# This file uses centimeters as units for non-parametric coordinates.

mtllib Crystal 2.mtl
g default
v 0.002303 -0.512502 0.502540
v 0.204054 -0.266420 0.256459
v 0.002303 -0.012502 0.698095
v 0.204054 -0.012502 0.355769
v 0.002303 0.487498 0.502540
v 0.204054 0.241417 0.256459
v 0.002303 0.717950 0.002540
v 0.204054 0.358449 0.002540
v 0.002303 0.487498 -0.497460
v 0.204054 0.241417 -0.251378
v 0.002303 -0.012502 -0.693014
v 0.204054 -0.012502 -0.350688
v 0.002303 -0.512502 -0.497460
v 0.204054 -0.266420 -0.251378
v 0.002303 -0.742954 0.002540
v 0.204054 -0.383453 0.002540
v 0.204054 -0.012502 0.002540
v -0.265497 -0.266420 0.256459
v -0.063747 -0.512502 0.502540
v -0.063747 -0.012502 0.698095
v -0.265497 -0.012502 0.355769
v -0.063747 0.487498 0.502540
v -0.265497 0.241417 0.256459
v -0.063747 0.717950 0.002540
v -0.265497 0.358449 0.002540
v -0.063747 0.487498 -0.497460
v -0.265497 0.241417 -0.251378
v -0.063747 -0.012502 -0.693014
v -0.265497 -0.012502 -0.350688
v -0.063747 -0.512502 -0.497460
v -0.265497 -0.266420 -0.251378
v -0.063747 -0.742954 0.002540
v -0.265497 -0.383453 0.002540
v -0.265497 -0.012502 0.002540
vt 0.202633 0.265217
vt 0.105400 0.875386
vt 0.822655 0.436104
vt 0.277176 0.237118
vt 0.260414 0.875376
vt 0.746649 0.407456
vt 0.351742 0.265156
vt 0.415428 0.875367
vt 0.670620 0.436046
vt 0.386772 0.339831
vt 0.574389 0.875357
vt 0.634904 0.512187
vt 0.351803 0.414534
vt 0.733350 0.875347
vt 0.670562 0.588356
vt 0.277260 0.442633
vt 0.399212 0.921008
vt 0.746569 0.617004
vt 0.202694 0.414595
vt 0.559939 0.920896
vt 0.822597 0.588414
vt 0.167664 0.339920
vt 0.724759 0.920782
vt 0.858313 0.512273
vt 0.909039 0.350224
vt 0.746609 0.512230
vt 0.277218 0.339875
vt 0.117910 0.180992
vt 0.260415 0.894447
vt 0.415429 0.894437
vt 0.574390 0.894427
vt 0.733351 0.894417
vt 0.399226 0.940781
vt 0.559953 0.940670
vt 0.724772 0.940556
vt 0.046500 0.339970
vt 0.105402 0.894457
vt 0.889592 0.940442
vt 0.118040 0.498889
vt 0.888365 0.894408
vt 0.277309 0.562423
vt 0.436526 0.498759
vt 0.746522 0.739145
vt 0.888364 0.875337
vt 0.507936 0.339781
vt 0.436396 0.180862
vt 0.277127 0.117328
vt 0.981855 0.512320
vt 0.889578 0.920668
vt 0.908915 0.674361
vt 0.584178 0.674236
vt 0.511363 0.512140
vt 0.584302 0.350100
vt 0.746696 0.285315
vn -0.845014 -0.194776 0.498010
vn -0.845014 -0.194776 0.498010
vn -0.845014 -0.194776 0.498010
vn -0.845014 -0.194776 0.498010
vn 0.845014 -0.194776 0.498010
vn 0.845014 -0.194776 0.498010
vn 0.845014 -0.194776 0.498010
vn 0.845014 -0.194776 0.498010
vn -0.845014 0.194776 0.498010
vn -0.845014 0.194776 0.498010
vn -0.845014 0.194776 0.498010
vn -0.845014 0.194776 0.498010
vn 0.845014 0.194776 0.498010
vn 0.845014 0.194776 0.498010
vn 0.845014 0.194776 0.498010
vn 0.845014 0.194776 0.498010
vn -0.850689 0.477402 0.220037
vn -0.850689 0.477402 0.220037
vn -0.850689 0.477402 0.220037
vn -0.850689 0.477402 0.220037
vn 0.850689 0.477402 0.220037
vn 0.850689 0.477402 0.220037
vn 0.850689 0.477402 0.220037
vn 0.850689 0.477402 0.220037
vn -0.850689 0.477402 -0.220037
vn -0.850689 0.477402 -0.220037
vn -0.850689 0.477402 -0.220037
vn -0.850689 0.477402 -0.220037
vn 0.850689 0.477402 -0.220037
vn 0.850689 0.477402 -0.220037
vn 0.850689 0.477402 -0.220037
vn 0.850689 0.477402 -0.220037
vn -0.845014 0.194776 -0.498010
vn -0.845014 0.194776 -0.498010
vn -0.845014 0.194776 -0.498010
vn -0.845014 0.194776 -0.498010
vn 0.845014 0.194776 -0.498010
vn 0.845014 0.194776 -0.498010
vn 0.845014 0.194776 -0.498010
vn 0.845014 0.194776 -0.498010
vn -0.845014 -0.194776 -0.498010
vn -0.845014 -0.194776 -0.498010
vn -0.845014 -0.194776 -0.498010
vn -0.845014 -0.194776 -0.498010
vn 0.845014 -0.194776 -0.498010
vn 0.845014 -0.194776 -0.498010
vn 0.845014 -0.194776 -0.498010
vn 0.845014 -0.194776 -0.498010
vn -0.850689 -0.477402 -0.220037
vn -0.850689 -0.477402 -0.220037
vn -0.850689 -0.477402 -0.220037
vn -0.850689 -0.477402 -0.220037
vn 0.850689 -0.477402 -0.220037
vn 0.850689 -0.477402 -0.220037
vn 0.850689 -0.477402 -0.220037
vn 0.850689 -0.477402 -0.220037
vn -0.850689 -0.477402 0.220037
vn -0.850689 -0.477402 0.220037
vn -0.850689 -0.477402 0.220037
vn -0.850689 -0.477402 0.220037
vn 0.850689 -0.477402 0.220037
vn 0.850689 -0.477402 0.220037
vn 0.850689 -0.477402 0.220037
vn 0.850689 -0.477402 0.220037
vn 1.000000 0.000000 0.000000
vn 1.000000 0.000000 0.000000
vn 1.000000 0.000000 0.000000
vn 1.000000 0.000000 0.000000
vn 1.000000 0.000000 0.000000
vn 1.000000 0.000000 0.000000
vn 1.000000 0.000000 0.000000
vn 1.000000 0.000000 0.000000
vn 1.000000 -0.000000 0.000000
vn 1.000000 -0.000000 0.000000
vn 1.000000 -0.000000 0.000000
vn 1.000000 -0.000000 0.000000
vn 1.000000 -0.000000 0.000000
vn 1.000000 -0.000000 0.000000
vn 1.000000 -0.000000 0.000000
vn 1.000000 -0.000000 0.000000
vn -1.000000 0.000000 0.000000
vn -1.000000 0.000000 0.000000
vn -1.000000 0.000000 0.000000
vn -1.000000 0.000000 0.000000
vn -1.000000 0.000000 0.000000
vn -1.000000 0.000000 0.000000
vn -1.000000 0.000000 0.000000
vn -1.000000 0.000000 0.000000
vn -1.000000 -0.000000 0.000000
vn -1.000000 -0.000000 0.000000
vn -1.000000 -0.000000 0.000000
vn -1.000000 -0.000000 0.000000
vn -1.000000 -0.000000 0.000000
vn -1.000000 -0.000000 0.000000
vn -1.000000 -0.000000 0.000000
vn -1.000000 -0.000000 0.000000
vn 0.000000 -0.364242 0.931305
vn 0.000000 -0.364242 0.931305
vn 0.000000 -0.364242 0.931305
vn 0.000000 -0.364242 0.931305
vn 0.000000 0.364242 0.931305
vn 0.000000 0.364242 0.931305
vn 0.000000 0.364242 0.931305
vn 0.000000 0.364242 0.931305
vn 0.000000 0.908178 0.418584
vn 0.000000 0.908178 0.418584
vn 0.000000 0.908178 0.418584
vn 0.000000 0.908178 0.418584
vn 0.000000 0.908178 -0.418584
vn 0.000000 0.908178 -0.418584
vn 0.000000 0.908178 -0.418584
vn 0.000000 0.908178 -0.418584
vn 0.000000 0.364242 -0.931305
vn 0.000000 0.364242 -0.931305
vn 0.000000 0.364242 -0.931305
vn 0.000000 0.364242 -0.931305
vn 0.000000 -0.364242 -0.931305
vn 0.000000 -0.364242 -0.931305
vn 0.000000 -0.364242 -0.931305
vn 0.000000 -0.364242 -0.931305
vn 0.000000 -0.908178 -0.418584
vn 0.000000 -0.908178 -0.418584
vn 0.000000 -0.908178 -0.418584
vn 0.000000 -0.908178 -0.418584
vn 0.000000 -0.908178 0.418584
vn 0.000000 -0.908178 0.418584
vn 0.000000 -0.908178 0.418584
vn 0.000000 -0.908178 0.418584
s off
g pCube2
usemtl initialShadingGroup
f 18/1/1 19/28/2 20/47/3 21/4/4
f 1/25/5 2/3/6 4/6/7 3/54/8
f 21/4/9 20/47/10 22/46/11 23/7/12
f 3/54/13 4/6/14 6/9/15 5/53/16
f 23/7/17 22/46/18 24/45/19 25/10/20
f 5/53/21 6/9/22 8/12/23 7/52/24
f 25/10/25 24/45/26 26/42/27 27/13/28
f 7/52/29 8/12/30 10/15/31 9/51/32
f 27/13/33 26/42/34 28/41/35 29/16/36
f 9/51/37 10/15/38 12/18/39 11/43/40
f 29/16/41 28/41/42 30/39/43 31/19/44
f 11/43/45 12/18/46 14/21/47 13/50/48
f 31/19/49 30/39/50 32/36/51 33/22/52
f 13/50/53 14/21/54 16/24/55 15/48/56
f 33/22/57 32/36/58 19/28/59 18/1/60
f 15/48/61 16/24/62 2/3/63 1/25/64
f 16/24/65 14/21/66 12/18/67 17/26/68
f 2/3/69 16/24/70 17/26/71 4/6/72
f 17/26/73 12/18/74 10/15/75 8/12/76
f 4/6/77 17/26/78 8/12/79 6/9/80
f 31/19/81 33/22/82 34/27/83 29/16/84
f 33/22/85 18/1/86 21/4/87 34/27/88
f 29/16/89 34/27/90 25/10/91 27/13/92
f 34/27/93 21/4/94 23/7/95 25/10/96
f 1/2/97 3/5/98 20/29/99 19/37/100
f 3/5/101 5/8/102 22/30/103 20/29/104
f 5/8/105 7/11/106 24/31/107 22/30/108
f 7/11/109 9/14/110 26/32/111 24/31/112
f 9/14/113 11/44/114 28/40/115 26/32/116
f 11/17/117 13/20/118 30/34/119 28/33/120
f 13/20/121 15/23/122 32/35/123 30/34/124
f 15/23/125 1/49/126 19/38/127 32/35/128
