# This file uses centimeters as units for non-parametric coordinates.

mtllib Crystal 4.mtl
g default
v -0.037257 -0.707107 0.000000
v 0.037257 -0.707107 0.000000
v -0.037257 0.000000 0.707107
v 0.037257 0.000000 0.707107
v -0.037257 0.707107 0.000000
v 0.037257 0.707107 0.000000
v -0.037257 0.000000 -0.707107
v 0.037257 0.000000 -0.707107
v 0.204045 0.000000 -0.508848
v 0.204045 -0.508848 0.000000
v 0.204045 0.508848 0.000000
v 0.204045 0.000000 0.508848
v -0.204045 0.000000 -0.508848
v -0.204045 -0.508848 0.000000
v -0.204045 0.000000 0.508848
v -0.204045 0.508848 0.000000
v 0.224206 0.000000 0.000000
v -0.223203 0.000000 0.000000
vt 0.432544 0.224748
vt 0.510422 0.214666
vt 0.432744 0.625802
vt 0.511080 0.632712
vt 0.462274 0.493679
vt 0.479107 0.493582
vt 0.463569 0.719578
vt 0.480402 0.719481
vt 0.464865 0.945477
vt 0.481697 0.945380
vt 0.928467 0.214013
vt 0.929122 0.632054
vt 0.031489 0.224952
vt 0.031693 0.626003
vt 0.586121 0.286063
vt 0.857072 0.289709
vt 0.853426 0.560661
vt 0.582473 0.557013
vt 0.104039 0.293520
vt 0.363972 0.297297
vt 0.360197 0.557230
vt 0.100262 0.553456
vt 0.719772 0.423360
vt 0.232118 0.425375
vt 0.476517 0.041785
vt 0.477812 0.267684
vt 0.459684 0.041882
vt 0.460979 0.267780
vn 0.000000 -0.707107 0.707107
vn 0.000000 -0.707107 0.707107
vn 0.000000 -0.707107 0.707107
vn 0.000000 -0.707107 0.707107
vn 0.000000 0.707107 0.707107
vn 0.000000 0.707107 0.707107
vn 0.000000 0.707107 0.707107
vn 0.000000 0.707107 0.707107
vn 0.000000 0.707107 -0.707107
vn 0.000000 0.707107 -0.707107
vn 0.000000 0.707107 -0.707107
vn 0.000000 0.707107 -0.707107
vn 0.000000 -0.707107 -0.707107
vn 0.000000 -0.707107 -0.707107
vn 0.000000 -0.707107 -0.707107
vn 0.000000 -0.707107 -0.707107
vn 0.643430 -0.541294 -0.541294
vn 0.643430 -0.541294 -0.541294
vn 0.643430 -0.541294 -0.541294
vn 0.643430 -0.541294 -0.541294
vn 0.643430 0.541294 -0.541294
vn 0.643430 0.541294 -0.541294
vn 0.643430 0.541294 -0.541294
vn 0.643430 0.541294 -0.541294
vn 0.643430 0.541294 0.541294
vn 0.643430 0.541294 0.541294
vn 0.643430 0.541294 0.541294
vn 0.643430 0.541294 0.541294
vn 0.643430 -0.541294 0.541294
vn 0.643430 -0.541294 0.541294
vn 0.643430 -0.541294 0.541294
vn 0.643430 -0.541294 0.541294
vn -0.643430 -0.541294 -0.541294
vn -0.643430 -0.541294 -0.541294
vn -0.643430 -0.541294 -0.541294
vn -0.643430 -0.541294 -0.541294
vn -0.643430 -0.541294 0.541294
vn -0.643430 -0.541294 0.541294
vn -0.643430 -0.541294 0.541294
vn -0.643430 -0.541294 0.541294
vn -0.643430 0.541294 0.541294
vn -0.643430 0.541294 0.541294
vn -0.643430 0.541294 0.541294
vn -0.643430 0.541294 0.541294
vn -0.643430 0.541294 -0.541294
vn -0.643430 0.541294 -0.541294
vn -0.643430 0.541294 -0.541294
vn -0.643430 0.541294 -0.541294
vn 0.912357 -0.289486 -0.289486
vn 0.912357 -0.289486 -0.289486
vn 0.912357 -0.289486 -0.289486
vn 0.912357 0.289486 -0.289486
vn 0.912357 0.289486 -0.289486
vn 0.912357 0.289486 -0.289486
vn 0.912357 0.289486 0.289486
vn 0.912357 0.289486 0.289486
vn 0.912357 0.289486 0.289486
vn 0.912357 -0.289486 0.289486
vn 0.912357 -0.289486 0.289486
vn 0.912357 -0.289486 0.289486
vn -0.912357 -0.289486 -0.289486
vn -0.912357 -0.289486 -0.289486
vn -0.912357 -0.289486 -0.289486
vn -0.912357 -0.289486 0.289486
vn -0.912357 -0.289486 0.289486
vn -0.912357 -0.289486 0.289486
vn -0.912357 0.289486 0.289486
vn -0.912357 0.289486 0.289486
vn -0.912357 0.289486 0.289486
vn -0.912357 0.289486 -0.289486
vn -0.912357 0.289486 -0.289486
vn -0.912357 0.289486 -0.289486
s off
g pCube3
usemtl pCube3SG1
f 1/27/1 2/25/2 4/26/3 3/28/4
f 3/28/5 4/26/6 6/6/7 5/5/8
f 5/5/9 6/6/10 8/8/11 7/7/12
f 7/7/13 8/8/14 2/10/15 1/9/16
f 2/2/17 8/11/18 9/16/19 10/15/20
f 8/11/21 6/12/22 11/17/23 9/16/24
f 6/12/25 4/4/26 12/18/27 11/17/28
f 4/4/29 2/2/30 10/15/31 12/18/32
f 7/13/33 1/1/34 14/20/35 13/19/36
f 1/1/37 3/3/38 15/21/39 14/20/40
f 3/3/41 5/14/42 16/22/43 15/21/44
f 5/14/45 7/13/46 13/19/47 16/22/48
f 10/15/49 9/16/50 17/23/51
f 9/16/52 11/17/53 17/23/54
f 11/17/55 12/18/56 17/23/57
f 12/18/58 10/15/59 17/23/60
f 13/19/61 14/20/62 18/24/63
f 14/20/64 15/21/65 18/24/66
f 15/21/67 16/22/68 18/24/69
f 16/22/70 13/19/71 18/24/72
