# This file uses centimeters as units for non-parametric coordinates.

mtllib Shrien 2.mtl
g default
v -0.828811 0.458450 -0.338980
v -1.397815 6.456910 -0.338980
v 0.006999 0.458450 -0.710954
v -0.828811 0.458450 0.000000
v -0.568413 0.021057 -0.233370
v -0.568413 0.021057 0.000000
v 0.006999 0.021057 -0.489455
v 0.006999 0.021057 0.000000
v -0.828811 0.458450 0.370552
v -0.568413 0.021057 0.255105
v 0.006999 0.021057 0.489455
v 0.006999 0.458450 0.710954
v -0.012653 3.051740 0.706503
v 0.842809 0.458450 -0.401861
v 1.411813 6.456909 -0.401861
v 0.582411 0.021057 -0.276660
v 0.582411 0.021057 0.000000
v 0.842809 0.458450 0.392681
v 0.582411 0.021057 0.270341
v 0.006999 6.732829 -0.710955
v 0.842809 0.458450 0.000000
v -1.397815 6.456908 0.370552
v -0.292281 3.641294 0.642123
v 0.038675 3.051740 0.704068
v -1.397815 6.456908 0.000000
v -1.327244 6.781825 0.000000
v 0.318303 3.641294 0.643873
v 1.411813 6.456908 0.392681
v 0.006999 7.658064 -0.184165
v 0.006999 7.658064 0.184165
v -0.247594 3.714354 0.652411
v 0.006999 6.732826 0.642373
v -0.005956 3.193424 0.554715
v -0.155573 3.537865 0.554715
v -0.011374 3.068253 0.628494
v -0.277065 3.628422 0.628494
v 0.031978 3.193424 0.554715
v 0.037396 3.068253 0.628494
v 0.181595 3.537865 0.554715
v 0.006999 7.844742 0.000000
v 0.303087 3.628422 0.628494
v 0.273617 3.714354 0.653493
v 1.341242 6.781825 0.000000
v 1.411813 6.456907 0.000000
v -0.130897 3.578210 0.554715
v -0.234605 3.697841 0.628494
v 0.156919 3.578210 0.554715
v 0.260628 3.697841 0.628494
v -1.034322 2.042178 0.370552
v -1.034322 2.042178 0.000000
v -1.011819 2.034786 -0.338980
v 0.006999 2.266739 -0.710955
v 1.048320 2.042180 -0.401861
v 1.048320 2.042178 0.000000
v 1.048320 2.042178 0.392681
v 1.019970 1.742831 0.392681
v 0.008447 2.299103 0.706574
v -1.005972 1.742831 0.370552
v -1.005972 1.742831 0.000000
v -1.005972 1.742832 -0.338980
v 0.006999 1.963777 -0.710955
v 1.019971 1.742832 -0.401861
v 1.019970 1.742831 0.000000
vt 0.283027 0.848758
vt 0.288570 0.595335
vt 0.163938 0.043022
vt 0.276759 0.885952
vt 0.320956 0.867792
vt 0.320238 0.886760
vt 0.368218 0.847487
vt 0.367867 0.887394
vt 0.282573 0.926689
vt 0.320493 0.907526
vt 0.367281 0.927318
vt 0.600781 0.062965
vt 0.599519 0.563423
vt 0.462026 0.061755
vt 0.082204 0.041576
vt 0.551149 0.749155
vt 0.415086 0.865233
vt 0.415532 0.887870
vt 0.366255 0.972450
vt 0.785110 0.064059
vt 0.414624 0.909970
vt 0.154884 0.618529
vt 0.459421 0.888358
vt 0.468729 0.614291
vt 0.775549 0.939505
vt 0.451526 0.931267
vt 0.624412 0.569932
vt 0.393552 0.614945
vt 0.424695 0.615130
vt 0.424514 0.645677
vt 0.673244 0.940177
vt 0.757196 0.622680
vt 0.876477 0.791028
vt 0.712310 0.748449
vt 0.706856 0.817581
vt 0.396838 0.061368
vt 0.427981 0.061553
vt 0.747522 0.929081
vt 0.745769 0.924401
vt 0.172318 0.888660
vt 0.234536 0.766119
vt 0.175777 0.944889
vt 0.295676 0.733498
vt 0.160636 0.887983
vt 0.156540 0.944226
vt 0.099746 0.767265
vt 0.720807 0.790159
vt 0.038560 0.732945
vt 0.702696 0.928994
vt 0.571440 0.790518
vt 0.820120 0.617655
vt 0.857039 0.617683
vt 0.820101 0.648203
vt 0.821184 0.064139
vt 0.858103 0.064219
vt 0.305222 0.729385
vt 0.186201 0.974866
vt 0.226146 0.749713
vt 0.276244 0.700602
vt 0.283629 0.689474
vt 0.147432 0.974532
vt 0.028446 0.728866
vt 0.108374 0.752178
vt 0.058133 0.700781
vt 0.050580 0.689514
vt 0.459199 0.532714
vt 0.425167 0.532530
vt 0.280603 0.512294
vt 0.393940 0.531412
vt 0.156254 0.531637
vt 0.031462 0.509066
vt 0.857136 0.535111
vt 0.820214 0.535059
vt 0.750506 0.537984
vt 0.784178 0.507292
vt 0.621617 0.561623
vt 0.478712 0.504429
vt 0.425294 0.504819
vt 0.280385 0.485503
vt 0.394160 0.504607
vt 0.156690 0.503842
vt 0.035104 0.481647
vt 0.857183 0.507430
vt 0.820258 0.507360
vt 0.023353 0.591154
vt 0.719387 0.657170
vt 0.860429 0.657624
vt 0.452222 0.844321
vt 0.367675 0.802319
vt 0.247853 0.044117
vt 0.899035 0.828330
vt 0.573305 0.617619
vt 0.651161 0.625774
vt 0.577773 0.925788
vt 0.601386 0.555356
vt 0.619557 0.569891
vt 0.623853 0.055197
vt 0.475526 0.531951
vt 0.459329 0.505010
vt 0.458739 0.615332
vt 0.517873 0.062865
vt 0.747321 0.509672
vt 0.784134 0.535009
vt 0.784050 0.617627
vt 0.708361 0.055435
vt 0.548888 0.829521
vt 0.737260 0.811374
vt 0.728608 0.767446
vt 0.578151 0.785362
vt 0.730485 0.748331
vt 0.593776 0.657240
vt 0.869040 0.911998
vt 0.875155 0.780996
vt 0.900487 0.748802
vt 0.742345 0.814668
vt 0.710671 0.810762
vt 0.727109 0.790778
vt 0.724779 0.767427
vt 0.740467 0.748180
vt 0.724852 0.748317
vt 0.734049 0.657434
vt 0.770494 0.934075
vt 0.706380 0.909145
vt 0.725645 0.914037
vt 0.678257 0.934717
vt 0.872326 0.924329
vt 0.742614 0.906234
vt 0.703901 0.925089
vt 0.580413 0.915569
vn -0.313467 -0.014533 -0.949488
vn -0.313467 -0.014533 -0.949488
vn -0.327716 -0.015194 -0.944654
vn -0.327391 -0.015179 -0.944767
vn -0.859254 -0.511549 0.000000
vn -0.859254 -0.511549 0.000000
vn -0.859254 -0.511549 0.000000
vn -0.859254 -0.511549 0.000000
vn -0.369017 -0.419895 -0.829165
vn -0.369017 -0.419895 -0.829165
vn -0.369017 -0.419895 -0.829165
vn -0.369017 -0.419895 -0.829165
vn 0.000000 -1.000000 0.000000
vn 0.000000 -1.000000 0.000000
vn 0.000000 -1.000000 0.000000
vn 0.000000 -1.000000 0.000000
vn -0.859254 -0.511549 0.000000
vn -0.859254 -0.511549 0.000000
vn -0.859254 -0.511549 0.000000
vn -0.859254 -0.511549 0.000000
vn 0.000000 -1.000000 0.000000
vn 0.000000 -1.000000 0.000000
vn 0.000000 -1.000000 0.000000
vn 0.000000 -1.000000 0.000000
vn -0.297876 -0.013788 0.954505
vn -0.298868 -0.013359 0.954201
vn -0.289185 -0.013407 0.957179
vn 0.271821 -0.012602 0.962265
vn 0.276970 -0.012841 -0.960793
vn 0.264539 -0.012265 -0.964297
vn 0.264539 -0.012265 -0.964297
vn 0.276682 -0.012828 -0.960876
vn 0.000000 -1.000000 0.000000
vn 0.000000 -1.000000 0.000000
vn 0.000000 -1.000000 0.000000
vn 0.000000 -1.000000 0.000000
vn 0.313310 -0.429034 -0.847211
vn 0.313310 -0.429034 -0.847211
vn 0.313310 -0.429034 -0.847211
vn 0.313310 -0.429034 -0.847211
vn -0.341497 -0.424621 0.838497
vn -0.341497 -0.424621 0.838497
vn -0.341497 -0.424621 0.838497
vn -0.341497 -0.424621 0.838497
vn 0.271821 -0.012602 0.962265
vn 0.271821 -0.012602 0.962265
vn 0.271821 -0.012602 0.962265
vn 0.000000 -1.000000 0.000000
vn 0.000000 -1.000000 0.000000
vn 0.000000 -1.000000 0.000000
vn 0.000000 -1.000000 0.000000
vn 0.859254 -0.511549 0.000000
vn 0.859254 -0.511549 0.000000
vn 0.859254 -0.511549 0.000000
vn 0.859254 -0.511549 0.000000
vn 0.321665 -0.427770 0.844716
vn 0.321665 -0.427770 0.844716
vn 0.321665 -0.427770 0.844716
vn 0.321665 -0.427770 0.844716
vn 0.859254 -0.511549 0.000000
vn 0.859254 -0.511549 0.000000
vn 0.859254 -0.511549 0.000000
vn 0.859254 -0.511549 0.000000
vn -0.977216 0.212246 0.000002
vn -0.977216 0.212246 0.000002
vn -0.977216 0.212246 0.000002
vn -0.977216 0.212247 0.000000
vn -0.977216 0.212247 0.000000
vn -0.977216 0.212247 0.000000
vn -0.505260 0.650069 -0.567559
vn -0.505260 0.650069 -0.567559
vn -0.505260 0.650068 -0.567559
vn -0.505260 0.650069 -0.567559
vn -0.311049 0.470238 -0.825909
vn -0.311049 0.470238 -0.825909
vn -0.311049 0.470238 -0.825909
vn -0.511056 0.663278 0.546703
vn -0.511056 0.663278 0.546703
vn -0.511056 0.663278 0.546703
vn -0.511056 0.663278 0.546703
vn -0.995531 -0.094435 0.000000
vn -0.995531 -0.094435 0.000000
vn -0.995531 -0.094435 0.000000
vn -0.995531 -0.094435 0.000000
vn 0.682418 0.313299 0.660417
vn 0.682418 0.313299 0.660417
vn 0.682418 0.313299 0.660417
vn 0.682418 0.313299 0.660417
vn -0.682418 0.313299 0.660416
vn -0.682417 0.313299 0.660416
vn -0.682417 0.313299 0.660416
vn -0.682418 0.313299 0.660416
vn -0.294139 0.472893 0.830575
vn -0.294139 0.472893 0.830575
vn -0.294139 0.472893 0.830575
vn 0.277093 0.475408 -0.834989
vn 0.277093 0.475408 -0.834989
vn 0.277093 0.475408 -0.834989
vn -0.995531 -0.094435 0.000000
vn -0.995531 -0.094435 0.000000
vn -0.995531 -0.094435 0.000000
vn -0.995531 -0.094435 0.000000
vn 0.516105 0.675069 -0.527179
vn 0.516105 0.675069 -0.527179
vn 0.516105 0.675069 -0.527179
vn 0.516105 0.675069 -0.527179
vn 0.977216 0.212246 0.000001
vn 0.977216 0.212246 0.000001
vn 0.977216 0.212246 0.000001
vn 0.282119 0.474683 0.833718
vn 0.282119 0.474683 0.833718
vn 0.282119 0.474683 0.833718
vn 0.514691 0.671737 0.532788
vn 0.514691 0.671737 0.532788
vn 0.514691 0.671737 0.532788
vn 0.514691 0.671737 0.532788
vn 0.977216 0.212247 0.000000
vn 0.977216 0.212247 0.000000
vn 0.977216 0.212247 0.000000
vn 0.995531 -0.094435 0.000000
vn 0.995531 -0.094435 0.000000
vn 0.995531 -0.094435 0.000000
vn 0.995531 -0.094435 0.000000
vn 0.995531 -0.094435 0.000000
vn 0.995531 -0.094435 0.000000
vn 0.995531 -0.094434 0.000000
vn 0.995531 -0.094434 0.000000
vn 0.000000 0.507779 0.861487
vn 0.000000 0.507779 0.861487
vn 0.000000 0.507779 0.861487
vn 0.000000 0.507779 0.861487
vn 0.885478 0.429868 0.176471
vn 0.885478 0.429868 0.176471
vn 0.885478 0.429868 0.176471
vn 0.885478 0.429868 0.176471
vn 0.374720 -0.229193 0.898363
vn 0.374720 -0.229193 0.898363
vn 0.374720 -0.229193 0.898363
vn 0.374720 -0.229193 0.898363
vn 0.559233 -0.394691 0.729025
vn 0.559233 -0.394691 0.729025
vn 0.559233 -0.394691 0.729025
vn 0.559233 -0.394691 0.729025
vn -0.885492 0.429301 0.177778
vn -0.885492 0.429301 0.177778
vn -0.885492 0.429301 0.177778
vn -0.885492 0.429301 0.177778
vn 0.000000 -0.524920 0.851151
vn 0.000000 -0.524920 0.851151
vn 0.000000 -0.524920 0.851151
vn 0.000000 -0.524920 0.851151
vn -0.374720 -0.229193 0.898363
vn -0.374720 -0.229193 0.898363
vn -0.374720 -0.229193 0.898363
vn -0.374720 -0.229193 0.898363
vn -0.584543 -0.404994 0.703057
vn -0.584543 -0.404994 0.703057
vn -0.584543 -0.404994 0.703057
vn -0.584543 -0.404994 0.703057
vn 0.004944 0.979113 0.203257
vn 0.004944 0.979113 0.203257
vn 0.004944 0.979113 0.203257
vn 0.004944 0.979113 0.203257
vn -0.000310 -0.956601 0.291400
vn -0.000310 -0.956601 0.291400
vn -0.000310 -0.956601 0.291400
vn -0.000310 -0.956601 0.291400
vn 0.000000 0.000000 1.000000
vn 0.000000 0.000000 1.000000
vn 0.000000 0.000000 1.000000
vn 0.000000 0.000000 1.000000
vn 0.000000 0.000000 1.000000
vn 0.000000 0.000000 1.000000
vn -0.995531 -0.094435 0.000000
vn -0.995531 -0.094435 0.000000
vn -0.995531 -0.094435 0.000000
vn -0.995531 -0.094435 0.000000
vn -0.995531 -0.094434 0.000000
vn -0.995531 -0.094434 0.000000
vn -0.995531 -0.094435 0.000000
vn -0.995531 -0.094435 0.000000
vn -0.263741 -0.012228 -0.964516
vn -0.263928 -0.012236 -0.964465
vn -0.313467 -0.014533 -0.949488
vn -0.313467 -0.014533 -0.949488
vn 0.264539 -0.012265 -0.964297
vn 0.221721 -0.010280 -0.975056
vn 0.221559 -0.010272 -0.975093
vn 0.264539 -0.012265 -0.964297
vn 0.995531 -0.094434 0.000001
vn 0.995531 -0.094434 0.000001
vn 0.995531 -0.094435 0.000000
vn 0.995531 -0.094435 0.000000
vn 0.995531 -0.094435 0.000000
vn 0.995531 -0.094435 0.000000
vn 0.995531 -0.094435 0.000000
vn 0.995531 -0.094435 0.000000
vn 0.281242 -0.012602 0.959554
vn 0.280386 -0.012943 0.959800
vn 0.271821 -0.012602 0.962265
vn 0.271821 -0.012602 0.962265
vn 0.271821 -0.012602 0.962265
vn -0.289185 -0.013407 0.957179
vn -0.289185 -0.013407 0.957179
vn 0.271821 -0.012602 0.962265
vn 0.271821 -0.012602 0.962265
vn 0.271821 -0.012602 0.962265
vn 0.227643 -0.017092 0.973595
vn -0.289185 -0.013407 0.957179
vn -0.289185 -0.013407 0.957179
vn -0.242496 -0.018197 0.969982
vn -0.289185 -0.013407 0.957179
vn 0.271821 -0.012602 0.962265
vn -0.289185 -0.013407 0.957179
vn 0.271821 -0.012602 0.962265
vn 0.271821 -0.012602 0.962265
vn 0.280386 -0.012943 0.959800
vn 0.281242 -0.012602 0.959554
vn 0.222544 -0.035752 0.974267
vn -0.289185 -0.013407 0.957179
vn -0.236144 -0.040139 0.970889
vn -0.298868 -0.013359 0.954201
vn -0.297876 -0.013788 0.954505
vn -0.995531 -0.094435 0.000000
vn -0.995531 -0.094435 0.000000
vn -0.995531 -0.094435 0.000000
vn -0.995531 -0.094435 0.000000
vn -0.995531 -0.094435 0.000000
vn -0.995531 -0.094435 0.000000
vn -0.995531 -0.094434 0.000000
vn -0.995531 -0.094434 0.000000
vn -0.327391 -0.015179 -0.944767
vn -0.327716 -0.015194 -0.944654
vn -0.263928 -0.012236 -0.964465
vn -0.263741 -0.012228 -0.964516
vn 0.221721 -0.010280 -0.975056
vn 0.276970 -0.012841 -0.960793
vn 0.276682 -0.012828 -0.960876
vn 0.221559 -0.010272 -0.975093
vn 0.995531 -0.094435 0.000000
vn 0.995531 -0.094435 0.000000
vn 0.995531 -0.094434 0.000001
vn 0.995531 -0.094434 0.000001
vn 0.995531 -0.094434 0.000000
vn 0.995531 -0.094434 0.000000
vn 0.995531 -0.094435 0.000000
vn 0.995531 -0.094435 0.000000
vn 0.271821 -0.012602 0.962265
vn 0.271821 -0.012602 0.962265
vn 0.047378 0.012218 0.998802
vn -0.289185 -0.013407 0.957179
vn -0.289185 -0.013407 0.957179
vn -0.289185 -0.013407 0.957179
vn 0.271821 -0.012602 0.962265
vn 0.271821 -0.012602 0.962265
vn 0.271821 -0.012602 0.962265
s off
g pCube9
usemtl pPrism4SG
f 3/3/1 1/90/2 60/79/3 61/81/4
f 4/4/5 1/1/6 5/5/7 6/6/8
f 1/1/9 3/89/10 7/7/11 5/5/12
f 5/5/13 7/7/14 8/8/15 6/6/16
f 9/9/17 4/4/18 6/6/19 10/10/20
f 6/6/21 8/8/22 11/11/23 10/10/24
f 57/95/25 58/77/26 9/101/27 12/12/28
f 62/82/29 14/15/30 3/3/31 61/81/32
f 7/7/33 16/17/34 17/18/35 8/8/36
f 3/89/37 14/88/38 16/17/39 7/7/40
f 12/19/41 9/9/42 10/10/43 11/11/44
f 42/125/45 27/31/46 28/94/47
f 8/8/48 17/18/49 19/21/50 11/11/51
f 14/88/52 21/23/53 17/18/54 16/17/55
f 18/26/56 12/19/57 11/11/58 19/21/59
f 21/23/60 18/26/61 19/21/62 17/18/63
f 2/28/64 25/29/65 26/30/66
f 25/29/67 22/100/68 26/30/69
f 29/119/70 2/114/71 26/113/72 40/108/73
f 2/87/74 29/110/75 20/121/76
f 26/33/77 22/91/78 30/107/79 40/117/80
f 1/36/81 4/37/82 59/78/83 60/80/84
f 35/42/85 33/40/86 34/41/87 36/43/88
f 39/46/89 37/44/90 38/45/91 41/48/92
f 22/112/93 32/127/94 30/115/95
f 29/120/96 15/111/97 20/86/98
f 4/37/99 9/14/100 58/99/101 59/78/102
f 43/109/103 15/16/104 29/34/105 40/118/106
f 44/51/107 15/52/108 43/53/109
f 32/123/110 28/129/111 30/35/112
f 43/50/113 40/47/114 30/116/115 28/106/116
f 28/104/117 44/51/118 43/53/119
f 21/54/120 14/55/121 62/83/122 63/84/123
f 18/20/124 21/54/125 63/84/126 56/75/127
f 38/45/128 37/44/129 33/40/130 35/42/131
f 23/56/132 13/57/133 35/42/134 36/43/135
f 36/43/136 34/41/137 45/58/138 46/59/139
f 31/60/140 23/56/141 36/43/142 46/59/143
f 24/61/144 27/62/145 41/48/146 38/45/147
f 46/59/148 45/58/149 47/63/150 48/64/151
f 48/64/152 47/63/153 39/46/154 41/48/155
f 27/62/156 42/65/157 48/64/158 41/48/159
f 35/42/160 13/57/161 24/61/162 38/45/163
f 46/59/164 48/64/165 42/65/166 31/60/167
f 34/41/168 33/40/169 37/44/170 39/46/171 47/63/172 45/58/173
f 50/67/174 49/66/175 22/100/176 25/29/177
f 51/69/178 50/67/179 25/29/180 2/28/181
f 52/70/182 51/68/183 2/2/184 20/22/185
f 15/85/186 53/71/187 52/70/188 20/22/189
f 54/73/190 53/72/191 15/52/192 44/51/193
f 55/103/194 54/73/195 44/51/196 28/104/197
f 56/102/198 57/76/199 12/97/200 18/105/201
f 32/39/202 22/126/203 31/122/204
f 28/32/205 27/93/206 24/27/207 55/74/208
f 23/92/209 22/24/210 49/98/211 13/13/212
f 32/124/213 31/38/214 42/49/215
f 24/27/216 57/76/217 56/102/218 55/74/219
f 13/13/220 49/98/221 58/77/222 57/95/223
f 59/78/224 58/99/225 49/66/226 50/67/227
f 60/80/228 59/78/229 50/67/230 51/69/231
f 61/81/232 60/79/233 51/68/234 52/70/235
f 53/71/236 62/82/237 61/81/238 52/70/239
f 63/84/240 62/83/241 53/72/242 54/73/243
f 56/75/244 63/84/245 54/73/246 55/103/247
f 24/27/248 13/96/249 57/76/250
f 31/122/251 22/126/252 23/25/253
f 42/125/254 28/94/255 32/128/256
