# This file uses centimeters as units for non-parametric coordinates.

mtllib Shrien 1.mtl
g default
v -0.320404 0.015728 -0.429868
v -0.589803 0.015728 0.017806
v -0.577007 0.435078 -0.914178
v -1.142621 0.450772 0.011547
v 0.568728 0.455970 -0.872640
v 0.311725 0.015728 -0.411753
v -0.611803 0.433248 0.932708
v -0.323265 0.015728 0.470687
v -0.816018 4.471753 -1.514252
v 0.604071 0.015728 0.017806
v 1.152547 0.445711 0.055931
v 0.571618 0.447150 0.927312
v 0.315906 0.015728 0.454977
v -1.592044 5.646487 -0.063204
v -0.576392 1.271779 1.393844
v 0.759116 5.941761 -1.131839
v 1.590542 4.514528 0.416702
v 0.348615 1.271783 1.348717
v -0.350392 6.768191 -0.887003
v -1.073206 7.093612 -0.135606
v -1.025325 7.171110 1.269165
v 0.323929 7.422501 -0.776865
v 0.240991 7.765596 0.085490
v 1.220604 7.109949 0.017806
v 0.687159 7.171106 1.204110
v -0.424836 3.090842 1.306808
v -0.126227 2.926604 1.305611
v -0.126227 2.965073 1.258318
v -0.396010 3.112714 1.248420
v -0.126227 3.097328 1.165284
v -0.300529 3.192715 1.158889
v -0.300529 3.505312 1.137931
v -0.396010 3.596549 1.215982
v -0.424836 3.626591 1.277280
v -0.126227 3.600700 1.131536
v 0.143555 3.112714 1.248420
v 0.048074 3.192715 1.158889
v 0.048074 3.505312 1.137931
v -0.126227 3.744190 1.206084
v 0.143555 3.596549 1.215982
v -0.126227 3.789315 1.258063
v 0.172381 3.625077 1.256867
v 0.167585 3.093969 1.287067
v -0.126227 2.968179 1.258318
v -0.126227 3.100435 1.165284
v -0.300529 3.195822 1.158889
v -0.396010 3.115820 1.248420
v -0.300529 3.508419 1.137931
v -0.396010 3.599656 1.215982
vt 0.566858 0.392857
vt 0.610120 0.468184
vt 0.576902 0.523640
vt 0.490077 0.523411
vt 0.729196 0.392752
vt 0.686759 0.471196
vt 0.564335 0.652373
vt 0.610402 0.579104
vt 0.063808 0.221346
vt 0.078504 0.025266
vt 0.130688 0.024965
vt 0.144618 0.275446
vt 0.723927 0.522350
vt 0.809932 0.525945
vt 0.168049 0.022025
vt 0.223200 0.021480
vt 0.234134 0.217806
vt 0.153932 0.285961
vt 0.732119 0.653123
vt 0.688537 0.575162
vt 0.350657 0.041631
vt 0.413938 0.041018
vt 0.439363 0.092027
vt 0.331352 0.351448
vt 0.485313 0.222290
vt 0.506382 0.025815
vt 0.559135 0.025008
vt 0.571360 0.289040
vt 0.593628 0.099149
vt 0.717144 0.099702
vt 0.694249 0.196441
vt 0.597630 0.199011
vt 0.776332 0.032624
vt 0.839118 0.033310
vt 0.832661 0.279537
vt 0.747096 0.081684
vt 0.274317 0.336469
vt 0.337241 0.523759
vt 0.185516 0.459729
vt 0.185377 0.334371
vt 0.169265 0.459613
vt 0.017373 0.541109
vt 0.103545 0.370562
vt 0.168959 0.334861
vt 0.170757 0.660752
vt 0.068321 0.914397
vt 0.087245 0.572067
vt 0.168802 0.571607
vt 0.514422 0.958273
vt 0.457216 0.875747
vt 0.579482 0.850547
vt 0.316827 0.561898
vt 0.367985 0.764433
vt 0.224197 0.658909
vt 0.223313 0.534160
vt 0.592987 0.926369
vt 0.464884 0.746908
vt 0.447682 0.733990
vt 0.359043 0.528429
vt 0.358993 0.363318
vt 0.440024 0.366044
vt 0.678596 0.851384
vt 0.621372 0.745322
vt 0.906254 0.962066
vt 0.792985 0.977363
vt 0.800729 0.959727
vt 0.893139 0.943894
vt 0.801474 0.958973
vt 0.824796 0.915308
vt 0.865531 0.902320
vt 0.893368 0.943076
vt 0.910945 0.828013
vt 0.936370 0.822755
vt 0.960087 0.818769
vt 0.936772 0.822643
vt 0.910414 0.828122
vt 0.864981 0.902456
vt 0.823558 0.915295
vt 0.875212 0.775687
vt 0.736517 0.879006
vt 0.783753 0.866946
vt 0.818802 0.779014
vt 0.899859 0.734618
vt 0.799625 0.733796
vt 0.911574 0.716447
vt 0.791509 0.716783
vt 0.720845 0.881922
vt 0.927654 0.639084
vt 0.899626 0.538300
vt 0.917791 0.528216
vt 0.917488 0.495591
vt 0.953494 0.280076
vt 0.848956 0.280423
vt 0.899371 0.485765
vt 0.881359 0.495800
vt 0.881641 0.528151
vt 0.871144 0.639262
vn -0.576302 -0.742279 -0.341904
vn -0.576302 -0.742279 -0.341904
vn -0.576302 -0.742279 -0.341904
vn -0.576302 -0.742279 -0.341904
vn 0.031253 -0.739459 -0.672475
vn 0.031253 -0.739459 -0.672475
vn 0.031253 -0.739459 -0.672475
vn 0.031253 -0.739459 -0.672475
vn -0.579515 -0.746581 0.326771
vn -0.579515 -0.746581 0.326771
vn -0.579515 -0.746581 0.326771
vn -0.579515 -0.746581 0.326771
vn -0.886982 -0.099108 -0.451045
vn -0.886982 -0.099108 -0.451045
vn -0.886982 -0.099108 -0.451045
vn -0.886982 -0.099108 -0.451045
vn 0.579785 -0.721002 -0.379481
vn 0.579785 -0.721002 -0.379481
vn 0.579785 -0.721002 -0.379481
vn 0.579785 -0.721002 -0.379481
vn 0.199768 -0.087048 -0.975969
vn 0.199768 -0.087048 -0.975969
vn 0.199768 -0.087048 -0.975969
vn 0.199768 -0.087048 -0.975969
vn 0.013433 -0.739825 0.672666
vn 0.013433 -0.739825 0.672666
vn 0.013433 -0.739825 0.672666
vn 0.013433 -0.739825 0.672666
vn 0.558433 -0.741611 0.371708
vn 0.558433 -0.741611 0.371708
vn 0.558433 -0.741611 0.371707
vn 0.558433 -0.741611 0.371707
vn -0.845886 -0.057759 0.530227
vn -0.845886 -0.057759 0.530227
vn -0.845886 -0.057759 0.530227
vn -0.845886 -0.057759 0.530227
vn 0.854213 -0.050679 -0.517447
vn 0.854214 -0.050679 -0.517446
vn 0.854213 -0.050679 -0.517447
vn 0.854214 -0.050679 -0.517446
vn 0.024490 -0.099074 0.994779
vn 0.024490 -0.099074 0.994779
vn 0.024490 -0.099074 0.994779
vn 0.024490 -0.099074 0.994779
vn 0.693024 -0.083721 0.716037
vn 0.693024 -0.083721 0.716037
vn 0.693024 -0.083721 0.716037
vn 0.693024 -0.083721 0.716037
vn -0.693697 0.280736 -0.663304
vn -0.693697 0.280736 -0.663304
vn -0.693697 0.280736 -0.663304
vn -0.693697 0.280736 -0.663304
vn -0.025942 0.251782 -0.967436
vn -0.025942 0.251782 -0.967436
vn -0.025942 0.251782 -0.967436
vn -0.025942 0.251782 -0.967436
vn 0.000000 -1.000000 0.000000
vn 0.000000 -1.000000 0.000000
vn 0.000000 -1.000000 0.000000
vn 0.000000 -1.000000 0.000000
vn 0.000000 -1.000000 0.000000
vn 0.000000 -1.000000 0.000000
vn -0.933769 0.035923 0.356069
vn -0.933769 0.035923 0.356069
vn -0.933769 0.035923 0.356069
vn -0.933769 0.035923 0.356069
vn -0.283165 0.750325 -0.597352
vn -0.283165 0.750325 -0.597352
vn -0.283165 0.750325 -0.597352
vn 0.847804 0.162018 -0.504954
vn 0.847804 0.162018 -0.504954
vn 0.847804 0.162018 -0.504954
vn 0.847804 0.162018 -0.504954
vn -0.625853 0.702150 -0.339549
vn -0.625853 0.702150 -0.339549
vn -0.625853 0.702150 -0.339549
vn -0.450480 0.892144 -0.033862
vn -0.450480 0.892144 -0.033862
vn -0.450480 0.892144 -0.033862
vn 0.771084 0.074790 0.632325
vn 0.771084 0.074790 0.632325
vn 0.771084 0.074790 0.632325
vn 0.771084 0.074790 0.632325
vn 0.522313 0.808413 -0.271400
vn 0.522313 0.808413 -0.271400
vn 0.522313 0.808413 -0.271400
vn 0.017618 0.885801 0.463730
vn 0.017618 0.885801 0.463730
vn 0.017618 0.885801 0.463730
vn 0.553962 0.806260 0.207535
vn 0.553962 0.806260 0.207535
vn 0.553962 0.806260 0.207535
vn 0.400332 0.744503 0.534275
vn 0.400332 0.744503 0.534275
vn 0.400331 0.744503 0.534275
vn 0.400332 0.744503 0.534275
vn 0.273958 0.553338 0.786616
vn 0.273958 0.553338 0.786616
vn 0.273958 0.553338 0.786616
vn 0.273958 0.553338 0.786616
vn 0.660429 0.050229 0.749207
vn 0.660429 0.050229 0.749207
vn 0.660429 0.050229 0.749207
vn 0.660429 0.050229 0.749207
vn 0.901317 0.026277 0.432362
vn 0.901317 0.026277 0.432362
vn 0.901317 0.026277 0.432362
vn 0.901317 0.026277 0.432362
vn 0.000000 0.066893 0.997760
vn 0.000000 0.066893 0.997760
vn 0.000000 0.066893 0.997760
vn 0.000000 0.066893 0.997760
vn -0.273959 0.553339 0.786614
vn -0.273959 0.553339 0.786614
vn -0.273959 0.553339 0.786614
vn -0.273959 0.553339 0.786614
vn 0.000000 0.066893 0.997760
vn 0.000000 0.066893 0.997760
vn 0.000000 0.066893 0.997760
vn 0.000000 0.066893 0.997760
vn 0.273961 -0.443390 0.853435
vn 0.273961 -0.443390 0.853435
vn 0.273961 -0.443390 0.853435
vn 0.273961 -0.443390 0.853435
vn -0.660429 0.050229 0.749207
vn -0.660429 0.050229 0.749207
vn -0.660429 0.050229 0.749207
vn -0.660429 0.050229 0.749207
vn 0.414879 -0.705951 0.574029
vn 0.414879 -0.705951 0.574029
vn 0.414879 -0.705950 0.574029
vn 0.414879 -0.705951 0.574029
vn -0.273960 -0.443387 0.853437
vn -0.273960 -0.443387 0.853436
vn -0.273960 -0.443387 0.853437
vn -0.273960 -0.443387 0.853436
vn -0.375296 -0.665978 0.644691
vn -0.375296 -0.665978 0.644691
vn -0.375296 -0.665978 0.644691
vn -0.375296 -0.665978 0.644691
vn -0.434768 0.645505 0.627934
vn -0.434768 0.645505 0.627934
vn -0.434768 0.645505 0.627934
vn -0.434768 0.645505 0.627934
vn -0.796875 0.094933 0.596639
vn -0.796875 0.094933 0.596639
vn -0.796875 0.094933 0.596639
vn -0.796875 0.094933 0.596639
vn 0.041666 0.058791 0.997400
vn 0.041666 0.058791 0.997400
vn 0.041666 0.058791 0.997400
vn 0.041666 0.058791 0.997400
vn 0.041666 0.058791 0.997400
vn 0.041666 0.058791 0.997400
vn 0.041666 0.058791 0.997400
vn 0.041666 0.058791 0.997400
vn 0.041666 0.058791 0.997400
vn 0.041666 0.058791 0.997400
vn 0.041666 0.058791 0.997400
vn 0.041666 0.058791 0.997400
vn 0.041666 0.058791 0.997400
vn 0.041666 0.058791 0.997400
vn 0.041666 0.058791 0.997400
vn 0.041666 0.058791 0.997400
vn 0.041666 0.058791 0.997400
vn 0.041666 0.058791 0.997400
vn 0.041666 0.058791 0.997400
vn 0.041666 0.058791 0.997400
vn 0.041666 0.058791 0.997400
vn 0.041666 0.058791 0.997400
vn 0.041666 0.058791 0.997400
vn 0.041666 0.058791 0.997400
vn 0.041666 0.058791 0.997400
vn 0.041666 0.058791 0.997400
vn 1.000000 0.000000 0.000000
vn 1.000000 0.000000 0.000000
vn 0.273958 0.553338 0.786616
vn 0.273958 0.553338 0.786616
vn 0.036671 0.000000 -0.999327
vn 0.036671 0.000000 -0.999327
vn 0.273958 0.553338 0.786616
vn 0.273958 0.553338 0.786616
vn -0.036667 0.000000 0.999328
vn -0.036667 0.000000 0.999328
vn 0.273958 0.553338 0.786616
vn 0.273958 0.553338 0.786616
vn 1.000000 0.000000 0.000000
vn 1.000000 0.000000 0.000000
vn 0.660429 0.050229 0.749207
vn 0.660429 0.050229 0.749207
vn -0.632896 0.000000 -0.774237
vn -0.632896 0.000000 -0.774237
vn 0.660429 0.050229 0.749207
vn 0.660429 0.050229 0.749207
vn -1.000000 0.000000 0.000000
vn -1.000000 0.000000 0.000000
vn 0.660429 0.050229 0.749207
vn 0.660429 0.050229 0.749207
s off
g Shrien_2:pPrism6
usemtl initialShadingGroup
f 3/1/1 1/2/2 2/3/3 4/4/4
f 1/2/5 3/1/6 5/5/7 6/6/8
f 7/7/9 4/4/10 2/3/11 8/8/12
f 9/9/13 3/10/14 4/11/15 14/12/16
f 10/13/17 6/6/18 5/5/19 11/14/20
f 5/15/21 3/16/22 9/17/23 16/18/24
f 12/19/25 7/7/26 8/8/27 13/20/28
f 12/19/29 13/20/30 10/13/31 11/14/32
f 4/21/33 7/22/34 15/23/35 14/24/36
f 17/25/37 11/26/38 5/27/39 16/28/40
f 7/29/41 12/30/42 18/31/43 15/32/44
f 12/33/45 11/34/46 17/35/47 18/36/48
f 19/37/49 9/38/50 14/39/51 20/40/52
f 16/41/53 9/42/54 19/43/55 22/44/56
f 6/6/57 10/13/58 13/20/59 8/8/60 2/3/61 1/2/62
f 14/45/63 15/46/64 21/47/65 20/48/66
f 19/49/67 20/50/68 23/51/69
f 24/52/70 17/53/71 16/54/72 22/55/73
f 22/56/74 19/49/75 23/51/76
f 20/50/77 21/57/78 23/51/79
f 18/58/80 17/59/81 24/60/82 25/61/83
f 24/62/84 22/56/85 23/51/86
f 21/57/87 25/63/88 23/51/89
f 25/63/90 24/62/91 23/51/92
f 26/64/93 27/65/94 28/66/95 29/67/96
f 44/68/97 45/69/98 46/70/99 47/71/100
f 47/71/101 46/70/102 48/72/103 49/73/104
f 34/74/105 26/64/106 29/67/107 33/75/108
f 32/76/109 31/77/110 30/78/111 35/79/112
f 36/80/113 37/81/114 30/78/115 28/66/116
f 30/78/117 37/81/118 38/82/119 35/79/120
f 33/75/121 32/76/122 35/79/123 39/83/124
f 40/84/125 38/82/126 37/81/127 36/80/128
f 41/85/129 34/74/130 33/75/131 39/83/132
f 39/83/133 35/79/134 38/82/135 40/84/136
f 42/86/137 41/85/138 39/83/139 40/84/140
f 27/65/141 43/87/142 36/80/143 28/66/144
f 43/87/145 42/86/146 40/84/147 36/80/148
f 15/88/149 27/89/150 26/90/151
f 15/88/152 26/90/153 34/91/154 21/92/155
f 25/93/156 41/94/157 42/95/158
f 43/96/159 18/97/160 25/93/161 42/95/162
f 21/92/163 34/91/164 41/94/165
f 21/92/166 41/94/167 25/93/168
f 27/89/169 18/97/170 43/96/171
f 15/88/172 18/97/173 27/89/174
f 28/66/175 30/78/176 45/69/177 44/68/178
f 30/78/179 31/77/180 46/70/181 45/69/182
f 29/67/183 28/66/184 44/68/185 47/71/186
f 31/77/187 32/76/188 48/72/189 46/70/190
f 32/76/191 33/75/192 49/73/193 48/72/194
f 33/75/195 29/67/196 47/71/197 49/73/198
