# This file uses centimeters as units for non-parametric coordinates.

mtllib Shrien 4.mtl
g default
v 0.057908 3.082417 0.922343
v 0.057908 3.169929 0.827394
v -0.186882 3.388525 0.827394
v -0.282258 3.386183 0.922343
v 0.057908 3.607122 0.827394
v 0.057908 3.689950 0.922343
v 0.302699 3.388525 0.827394
v 0.398075 3.386183 0.922343
v 0.057908 3.390793 0.754409
v 0.057908 3.011806 0.922342
v 0.477145 3.386183 0.922342
v 0.057908 3.760559 0.922342
v -0.361329 3.386183 0.922342
v 0.500790 2.856952 0.922342
v 0.614464 4.034990 0.922342
v -0.512506 4.037111 0.922342
v -0.404107 2.859295 0.922342
v 0.807152 2.306114 0.907454
v 0.979763 4.583851 0.940593
v -0.874110 4.587949 0.940593
v -0.704106 2.310641 0.907454
v -0.579720 0.315156 0.815997
v 0.686929 0.310628 0.843411
v 1.142042 6.599264 0.851180
v -0.991279 6.603363 0.826367
v 0.934485 2.306114 0.487350
v 1.140351 4.583851 0.446208
v -1.023101 4.587949 0.421395
v -0.829137 2.310641 0.563419
v -0.686409 0.315156 0.516203
v 0.791757 0.310628 0.534483
v 1.254503 6.599264 0.446208
v -1.235060 6.603363 0.421395
v 0.934485 2.306114 -0.179987
v 1.140351 4.583851 -0.359571
v -1.023101 4.587949 -0.384384
v -0.829137 2.310641 -0.140291
v -0.686409 0.315156 -0.021088
v 0.791757 0.310628 -0.002808
v 1.254503 6.599264 -0.359571
v -1.235060 6.603363 -0.384384
v 0.406252 2.306114 -0.554896
v 0.490247 4.583851 -0.736692
v -0.427683 4.587949 -0.761504
v -0.342035 2.310641 -0.582312
v -0.277712 0.315156 -0.414538
v 0.349459 0.310628 -0.387123
v 0.537050 6.599264 -0.911277
v -0.519246 6.603363 -0.936090
v 0.650654 7.033959 0.463373
v -0.556880 7.038056 0.449328
v 0.714311 7.033959 0.234145
v -0.694868 7.038056 0.220101
v 0.714311 7.033959 -0.221954
v -0.694868 7.038056 -0.235998
v 0.308208 7.033959 -0.534238
v -0.289693 7.038056 -0.548283
v -0.298553 0.056931 0.539145
v 0.404935 0.052403 0.553942
v -0.357807 0.056931 0.377323
v 0.463156 0.052403 0.387190
v -0.357807 0.056931 0.087306
v 0.463156 0.052403 0.097173
v -0.130820 0.056931 -0.125069
v 0.217506 0.052403 -0.110271
v 0.314587 7.256820 0.198147
v -0.259788 7.260918 0.191467
v 0.344866 7.256820 0.089113
v -0.325423 7.260918 0.082432
v 0.344866 7.256820 -0.127835
v -0.325423 7.260918 -0.134516
v 0.151699 7.256820 -0.276377
v -0.132698 7.260918 -0.283057
vt 0.727933 0.763669
vt 0.727920 0.777715
vt 0.703718 0.798856
vt 0.689694 0.798688
vt 0.727890 0.820047
vt 0.727885 0.833812
vt 0.752073 0.798880
vt 0.766088 0.798725
vt 0.727901 0.799057
vt 0.727942 0.756294
vt 0.774467 0.798720
vt 0.727883 0.841205
vt 0.681308 0.798675
vt 0.776801 0.740273
vt 0.789063 0.870254
vt 0.665165 0.870386
vt 0.677007 0.740505
vt 0.429922 0.202745
vt 0.848546 0.483765
vt 0.726334 0.436302
vt 0.517638 0.655224
vt 0.334157 0.375073
vt 0.083676 0.376117
vt 0.372438 0.675439
vt 0.071708 0.673402
vt 0.464124 0.213551
vt 0.811214 0.477591
vt 0.766765 0.435601
vt 0.543679 0.649575
vt 0.363337 0.437354
vt 0.057320 0.440692
vt 0.395967 0.736066
vt 0.031895 0.734917
vt 0.516432 0.228950
vt 0.753107 0.469582
vt 0.827075 0.436774
vt 0.594004 0.640011
vt 0.367068 0.551008
vt 0.057828 0.553812
vt 0.400480 0.861099
vt 0.024054 0.859681
vt 0.568382 0.239075
vt 0.698409 0.468474
vt 0.879520 0.442557
vt 0.641690 0.635694
vt 0.284010 0.638004
vt 0.150670 0.637416
vt 0.294870 0.958709
vt 0.127293 0.958234
vt 0.297557 0.746766
vt 0.138050 0.748051
vt 0.308674 0.777300
vt 0.117191 0.777553
vt 0.308413 0.840264
vt 0.116597 0.840560
vt 0.253608 0.884385
vt 0.170577 0.886753
vt 0.276318 0.445394
vt 0.144527 0.444465
vt 0.288410 0.474491
vt 0.133620 0.475092
vt 0.288641 0.528489
vt 0.135202 0.528820
vt 0.246670 0.568573
vt 0.181913 0.565980
vt 0.251054 0.787099
vt 0.178614 0.788561
vt 0.255222 0.800055
vt 0.169946 0.801191
vt 0.254690 0.826303
vt 0.170369 0.827529
vt 0.230145 0.843965
vt 0.194408 0.845477
vt 0.432323 0.445192
vt 0.631573 0.469597
vt 0.696193 0.634905
vt 0.628898 0.248090
vt 0.682495 0.252075
vt 0.580397 0.473243
vt 0.488364 0.440199
vt 0.743326 0.636290
vt 0.739995 0.252192
vt 0.522773 0.484195
vt 0.548647 0.438019
vt 0.791449 0.642923
vt 0.769896 0.251482
vt 0.625734 0.930651
vt 0.587554 0.437300
vt 0.810200 0.680076
vt 0.484307 0.492346
vt 0.644375 0.680494
vt 0.822984 0.648088
vt 0.828823 0.930347
vt 0.975303 0.305304
vt 0.897329 0.292010
vt 0.830028 0.285094
vt 0.482903 0.289180
vt 0.769717 0.283920
vt 0.543185 0.286999
vt 0.734352 0.285141
vt 0.574642 0.286338
vt 0.947275 0.454170
vt 0.415371 0.294661
vt 0.595611 0.077665
vt 0.646334 0.085313
vt 0.548710 0.068050
vt 0.692569 0.088629
vt 0.506596 0.055652
vt 0.736470 0.088719
vt 0.865355 0.076710
vt 0.762464 0.088115
vt 0.892625 0.237847
vt 0.481195 0.047568
vn 0.571047 0.627756 0.528987
vn 0.571047 0.627756 0.528987
vn 0.571047 0.627756 0.528987
vn 0.571047 0.627756 0.528987
vn 0.571047 -0.650565 0.500670
vn 0.571047 -0.650565 0.500670
vn 0.571047 -0.650565 0.500670
vn 0.571047 -0.650565 0.500670
vn -0.571047 -0.650565 0.500670
vn -0.571047 -0.650565 0.500670
vn -0.571047 -0.650565 0.500670
vn -0.571047 -0.650565 0.500670
vn -0.571047 0.627756 0.528987
vn -0.571047 0.627756 0.528987
vn -0.571047 0.627756 0.528987
vn -0.571047 0.627756 0.528987
vn 0.354221 0.377713 0.855488
vn 0.354221 0.377713 0.855488
vn 0.354221 0.377713 0.855488
vn 0.354219 -0.415228 0.837923
vn 0.354219 -0.415228 0.837923
vn 0.354219 -0.415228 0.837923
vn -0.354219 -0.415229 0.837923
vn -0.354219 -0.415229 0.837923
vn -0.354219 -0.415229 0.837923
vn -0.354221 0.377713 0.855488
vn -0.354221 0.377713 0.855488
vn -0.354221 0.377713 0.855488
vn -0.000001 -0.022147 0.999755
vn -0.000001 -0.022147 0.999755
vn -0.000001 -0.022147 0.999755
vn -0.000001 -0.022147 0.999755
vn -0.000000 -0.022149 0.999755
vn -0.000000 -0.022149 0.999755
vn -0.000000 -0.022149 0.999755
vn -0.000000 -0.022149 0.999755
vn 0.000000 -0.022148 0.999755
vn 0.000000 -0.022148 0.999755
vn 0.000000 -0.022148 0.999755
vn 0.000000 -0.022148 0.999755
vn 0.000001 -0.022146 0.999755
vn 0.000001 -0.022146 0.999755
vn 0.000001 -0.022146 0.999755
vn 0.000001 -0.022146 0.999755
vn -0.015156 -0.005640 0.999869
vn -0.015156 -0.005640 0.999869
vn -0.015156 -0.005640 0.999869
vn -0.016349 0.027437 0.999490
vn -0.016349 0.027437 0.999490
vn -0.016349 0.027437 0.999490
vn -0.062603 -0.003269 0.998033
vn -0.062603 -0.003269 0.998033
vn -0.062603 -0.003269 0.998033
vn -0.016425 -0.009898 0.999816
vn -0.016425 -0.009898 0.999816
vn -0.016425 -0.009898 0.999816
vn 0.008122 -0.013055 0.999882
vn 0.008122 -0.013055 0.999882
vn 0.008122 -0.013055 0.999882
vn -0.027500 0.008651 0.999584
vn -0.027500 0.008651 0.999584
vn -0.027500 0.008651 0.999584
vn -0.008888 -0.032094 0.999445
vn -0.008888 -0.032094 0.999445
vn -0.008888 -0.032094 0.999445
vn -0.014870 -0.005499 0.999874
vn -0.014870 -0.005499 0.999874
vn -0.014870 -0.005499 0.999874
vn -0.005032 -0.009172 0.999945
vn -0.005032 -0.009172 0.999945
vn -0.005032 -0.009172 0.999945
vn -0.005032 -0.009172 0.999945
vn -0.000069 -0.033174 0.999450
vn -0.000069 -0.033174 0.999450
vn -0.000069 -0.033174 0.999450
vn -0.000069 -0.033174 0.999450
vn 0.005051 -0.009184 0.999945
vn 0.005051 -0.009184 0.999945
vn 0.005051 -0.009184 0.999945
vn 0.005051 -0.009184 0.999945
vn -0.000077 -0.027074 0.999633
vn -0.000077 -0.027074 0.999633
vn -0.000077 -0.027074 0.999633
vn -0.000077 -0.027074 0.999633
vn -0.009988 -0.038942 0.999192
vn -0.009988 -0.038942 0.999192
vn -0.009988 -0.038942 0.999192
vn -0.009988 -0.038942 0.999192
vn -0.006111 0.050523 0.998704
vn -0.006111 0.050523 0.998704
vn -0.006111 0.050523 0.998704
vn -0.006111 0.050523 0.998704
vn 0.950900 -0.078477 0.299385
vn 0.950900 -0.078477 0.299385
vn 0.950899 -0.078477 0.299385
vn 0.950900 -0.078477 0.299385
vn -0.950874 -0.068770 0.301842
vn -0.950874 -0.068770 0.301842
vn -0.950874 -0.068770 0.301842
vn -0.950874 -0.068770 0.301842
vn -0.938298 -0.074534 0.337702
vn -0.938298 -0.074534 0.337702
vn -0.938298 -0.074534 0.337702
vn -0.938298 -0.074534 0.337702
vn 0.950902 -0.063935 0.302817
vn 0.950902 -0.063935 0.302817
vn 0.950902 -0.063935 0.302817
vn 0.950902 -0.063935 0.302817
vn 0.955200 -0.059074 0.290004
vn 0.955201 -0.059074 0.290004
vn 0.955200 -0.059074 0.290004
vn 0.955200 -0.059074 0.290004
vn -0.918449 -0.063932 0.390340
vn -0.918449 -0.063932 0.390340
vn -0.918449 -0.063932 0.390340
vn -0.918448 -0.063932 0.390340
vn 0.995940 -0.090015 0.000000
vn 0.995941 -0.090015 0.000000
vn 0.995941 -0.090015 0.000000
vn 0.995941 -0.090015 0.000000
vn -0.996392 -0.084865 0.000000
vn -0.996392 -0.084865 0.000000
vn -0.996393 -0.084865 0.000000
vn -0.996393 -0.084865 0.000000
vn -0.997452 -0.071343 0.000000
vn -0.997452 -0.071343 0.000000
vn -0.997452 -0.071343 0.000000
vn -0.997452 -0.071343 0.000000
vn 0.997452 -0.071343 0.000000
vn 0.997452 -0.071343 0.000000
vn 0.997452 -0.071343 0.000000
vn 0.997452 -0.071343 0.000000
vn 0.998400 -0.056549 0.000000
vn 0.998400 -0.056549 0.000000
vn 0.998400 -0.056549 0.000000
vn 0.998400 -0.056549 0.000000
vn -0.994515 -0.104592 0.000000
vn -0.994515 -0.104592 0.000000
vn -0.994515 -0.104592 0.000000
vn -0.994515 -0.104592 0.000000
vn 0.535256 -0.100589 -0.838679
vn 0.535256 -0.100589 -0.838679
vn 0.535256 -0.100589 -0.838679
vn 0.535256 -0.100589 -0.838679
vn -0.599720 -0.110473 -0.792548
vn -0.599720 -0.110473 -0.792548
vn -0.599720 -0.110473 -0.792548
vn -0.599720 -0.110473 -0.792548
vn -0.679429 -0.087632 -0.728490
vn -0.679429 -0.087632 -0.728490
vn -0.679429 -0.087632 -0.728490
vn -0.679429 -0.087632 -0.728490
vn 0.613156 -0.098401 -0.783809
vn 0.613156 -0.098401 -0.783810
vn 0.613156 -0.098401 -0.783809
vn 0.613156 -0.098401 -0.783809
vn 0.560899 -0.058167 -0.825839
vn 0.560899 -0.058167 -0.825839
vn 0.560899 -0.058167 -0.825839
vn 0.560899 -0.058166 -0.825839
vn -0.576243 -0.078626 -0.813487
vn -0.576243 -0.078626 -0.813488
vn -0.576243 -0.078626 -0.813487
vn -0.576243 -0.078626 -0.813488
vn 0.030824 -0.078954 -0.996402
vn 0.030824 -0.078954 -0.996402
vn 0.030824 -0.078954 -0.996402
vn 0.030824 -0.078954 -0.996402
vn 0.039143 -0.083644 -0.995727
vn 0.039143 -0.083644 -0.995727
vn 0.039143 -0.083644 -0.995727
vn 0.039143 -0.083644 -0.995727
vn 0.024678 -0.086004 -0.995989
vn 0.024678 -0.086004 -0.995989
vn 0.024678 -0.086004 -0.995989
vn 0.024678 -0.086004 -0.995989
vn -0.007115 0.660242 0.751019
vn -0.007115 0.660242 0.751019
vn -0.007115 0.660242 0.751019
vn -0.007115 0.660242 0.751019
vn 0.579629 0.798825 0.160964
vn 0.579629 0.798825 0.160964
vn 0.579629 0.798825 0.160964
vn 0.579629 0.798825 0.160964
vn -0.521485 0.793415 0.313920
vn -0.521485 0.793415 0.313920
vn -0.521485 0.793415 0.313920
vn -0.521485 0.793415 0.313920
vn 0.626927 0.779078 0.000000
vn 0.626927 0.779078 0.000000
vn 0.626927 0.779078 0.000000
vn 0.626927 0.779078 0.000000
vn -0.626926 0.779079 0.000000
vn -0.626926 0.779079 0.000000
vn -0.626926 0.779079 0.000000
vn -0.626926 0.779079 0.000000
vn 0.429216 0.710089 -0.558164
vn 0.429216 0.710089 -0.558164
vn 0.429216 0.710089 -0.558164
vn 0.429216 0.710089 -0.558164
vn -0.425451 0.717136 -0.552003
vn -0.425451 0.717136 -0.552003
vn -0.425451 0.717136 -0.552003
vn -0.425451 0.717136 -0.552003
vn 0.020905 0.660368 -0.750651
vn 0.020905 0.660368 -0.750651
vn 0.020905 0.660368 -0.750651
vn 0.020905 0.660368 -0.750651
vn -0.017831 -0.738761 0.673731
vn -0.017831 -0.738761 0.673731
vn -0.017831 -0.738761 0.673731
vn -0.017831 -0.738761 0.673731
vn -0.551290 -0.810434 0.198180
vn -0.551290 -0.810434 0.198180
vn -0.551290 -0.810435 0.198180
vn -0.551290 -0.810435 0.198180
vn 0.551755 -0.812279 0.189125
vn 0.551755 -0.812279 0.189125
vn 0.551755 -0.812279 0.189125
vn 0.551755 -0.812279 0.189125
vn -0.617878 -0.786274 0.000000
vn -0.617878 -0.786274 0.000000
vn -0.617878 -0.786274 0.000000
vn -0.617878 -0.786274 0.000000
vn 0.617878 -0.786274 0.000000
vn 0.617878 -0.786274 0.000000
vn 0.617878 -0.786274 0.000000
vn 0.617878 -0.786274 0.000000
vn -0.443216 -0.766341 -0.465061
vn -0.443216 -0.766341 -0.465061
vn -0.443216 -0.766341 -0.465061
vn -0.443216 -0.766341 -0.465061
vn 0.431162 -0.750235 -0.501246
vn 0.431162 -0.750235 -0.501246
vn 0.431162 -0.750235 -0.501246
vn 0.431162 -0.750235 -0.501245
vn 0.022310 -0.738415 -0.673978
vn 0.022310 -0.738415 -0.673978
vn 0.022310 -0.738414 -0.673978
vn 0.022310 -0.738415 -0.673978
vn -0.006189 -0.999981 0.000092
vn -0.006189 -0.999981 0.000092
vn -0.006189 -0.999981 0.000092
vn -0.006189 -0.999981 0.000092
vn -0.006189 -0.999981 0.000092
vn -0.006189 -0.999981 0.000092
vn -0.006189 -0.999981 0.000092
vn -0.006189 -0.999981 0.000092
vn -0.004046 0.760998 0.648742
vn -0.004046 0.760998 0.648742
vn -0.004046 0.760998 0.648742
vn -0.004046 0.760998 0.648742
vn 0.473671 0.870823 0.131541
vn 0.473671 0.870823 0.131541
vn 0.473671 0.870823 0.131541
vn 0.473671 0.870823 0.131541
vn -0.427116 0.866871 0.257110
vn -0.427116 0.866872 0.257110
vn -0.427116 0.866871 0.257110
vn -0.427116 0.866871 0.257110
vn 0.516530 0.856269 0.000000
vn 0.516530 0.856269 0.000000
vn 0.516530 0.856269 0.000000
vn 0.516530 0.856269 0.000000
vn -0.516530 0.856269 0.000000
vn -0.516530 0.856269 0.000000
vn -0.516530 0.856269 0.000000
vn -0.516530 0.856269 0.000000
vn 0.363657 0.802565 -0.472909
vn 0.363657 0.802565 -0.472909
vn 0.363657 0.802565 -0.472909
vn 0.363657 0.802565 -0.472909
vn -0.359458 0.808257 -0.466380
vn -0.359458 0.808257 -0.466380
vn -0.359458 0.808257 -0.466380
vn -0.359458 0.808257 -0.466380
vn 0.022299 0.760950 -0.648427
vn 0.022299 0.760950 -0.648427
vn 0.022299 0.760950 -0.648427
vn 0.022299 0.760950 -0.648427
vn 0.006845 0.999977 -0.000258
vn 0.006845 0.999977 -0.000258
vn 0.006845 0.999977 -0.000258
vn 0.006845 0.999977 -0.000258
vn 0.006845 0.999977 -0.000258
vn 0.006845 0.999977 -0.000258
vn 0.006845 0.999977 -0.000258
vn 0.006845 0.999977 -0.000258
s off
g pCube7
usemtl pCube7SG
f 1/1/1 2/2/2 3/3/3 4/4/4
f 4/4/5 3/3/6 5/5/7 6/6/8
f 6/6/9 5/5/10 7/7/11 8/8/12
f 8/8/13 7/7/14 2/2/15 1/1/16
f 2/2/17 9/9/18 3/3/19
f 3/3/20 9/9/21 5/5/22
f 5/5/23 9/9/24 7/7/25
f 7/7/26 9/9/27 2/2/28
f 8/8/29 1/1/30 10/10/31 11/11/32
f 6/6/33 8/8/34 11/11/35 12/12/36
f 4/4/37 6/6/38 12/12/39 13/13/40
f 1/1/41 4/4/42 13/13/43 10/10/44
f 11/11/45 14/14/46 15/15/47
f 12/12/48 15/15/49 16/16/50
f 13/13/51 16/16/52 17/17/53
f 10/10/54 17/17/55 14/14/56
f 12/12/57 11/11/58 15/15/59
f 13/13/60 12/12/61 16/16/62
f 10/10/63 13/13/64 17/17/65
f 11/11/66 10/10/67 14/14/68
f 15/15/69 14/14/70 18/89/71 19/93/72
f 16/16/73 15/15/74 19/93/75 20/87/76
f 17/17/77 16/16/78 20/87/79 21/91/80
f 14/14/81 17/17/82 21/91/83 18/89/84
f 18/112/85 21/86/86 22/111/87 23/110/88
f 20/20/89 19/88/90 24/101/91 25/100/92
f 19/19/93 18/92/94 26/85/95 27/27/96
f 21/21/97 20/90/98 28/83/99 29/29/100
f 22/111/101 21/86/102 29/82/103 30/109/104
f 18/18/105 23/113/106 31/108/107 26/26/108
f 24/101/109 19/88/110 27/84/111 32/99/112
f 20/20/113 25/100/114 33/98/115 28/28/116
f 27/27/117 26/85/118 34/81/119 35/35/120
f 29/29/121 28/83/122 36/79/123 37/37/124
f 30/109/125 29/82/126 37/78/127 38/107/128
f 26/26/129 31/108/130 39/106/131 34/34/132
f 32/99/133 27/84/134 35/80/135 40/97/136
f 28/28/137 33/98/138 41/96/139 36/36/140
f 35/35/141 34/81/142 42/76/143 43/43/144
f 37/37/145 36/79/146 44/75/147 45/45/148
f 38/107/149 37/78/150 45/77/151 46/105/152
f 34/34/153 39/106/154 47/104/155 42/42/156
f 40/97/157 35/80/158 43/74/159 48/103/160
f 36/36/161 41/96/162 49/95/163 44/44/164
f 43/43/165 42/76/166 45/45/167 44/75/168
f 42/42/169 47/104/170 46/105/171 45/77/172
f 48/94/173 43/102/174 44/44/175 49/95/176
f 25/25/177 24/24/178 50/50/179 51/51/180
f 24/24/181 32/32/182 52/52/183 50/50/184
f 33/33/185 25/25/186 51/51/187 53/53/188
f 32/32/189 40/40/190 54/54/191 52/52/192
f 41/41/193 33/33/194 53/53/195 55/55/196
f 40/40/197 48/48/198 56/56/199 54/54/200
f 49/49/201 41/41/202 55/55/203 57/57/204
f 48/48/205 49/49/206 57/57/207 56/56/208
f 23/23/209 22/22/210 58/58/211 59/59/212
f 22/22/213 30/30/214 60/60/215 58/58/216
f 31/31/217 23/23/218 59/59/219 61/61/220
f 30/30/221 38/38/222 62/62/223 60/60/224
f 39/39/225 31/31/226 61/61/227 63/63/228
f 38/38/229 46/46/230 64/64/231 62/62/232
f 47/47/233 39/39/234 63/63/235 65/65/236
f 46/46/237 47/47/238 65/65/239 64/64/240
f 59/59/241 58/58/242 60/60/243 62/62/244 64/64/245 65/65/246 63/63/247 61/61/248
f 51/51/249 50/50/250 66/66/251 67/67/252
f 50/50/253 52/52/254 68/68/255 66/66/256
f 53/53/257 51/51/258 67/67/259 69/69/260
f 52/52/261 54/54/262 70/70/263 68/68/264
f 55/55/265 53/53/266 69/69/267 71/71/268
f 54/54/269 56/56/270 72/72/271 70/70/272
f 57/57/273 55/55/274 71/71/275 73/73/276
f 56/56/277 57/57/278 73/73/279 72/72/280
f 67/67/281 66/66/282 68/68/283 70/70/284 72/72/285 73/73/286 71/71/287 69/69/288
