# This file uses centimeters as units for non-parametric coordinates.

mtllib Shrien 3.mtl
g default
v -0.828811 0.458450 -0.338980
v -1.397815 6.456910 -0.338980
v 0.006999 0.458450 -0.710954
v -0.828811 0.458450 0.000000
v -0.568413 0.021057 -0.233370
v -0.568413 0.021057 0.000000
v 0.006999 0.021057 -0.489455
v 0.006999 0.021057 0.000000
v -0.828811 0.458450 0.370552
v -0.568413 0.021057 0.255105
v 0.006999 0.021057 0.489455
v 0.006999 0.458450 0.710954
v -0.012653 3.051740 0.706503
v 0.842809 0.458450 -0.401861
v 1.411813 6.456909 -0.401861
v 0.582411 0.021057 -0.276660
v 0.582411 0.021057 0.000000
v 0.842809 0.458450 0.392681
v 0.582411 0.021057 0.270341
v 0.006999 6.732829 -0.710955
v 0.842809 0.458450 0.000000
v -1.397815 6.456908 0.370552
v -0.292281 3.641294 0.642123
v 0.038675 3.051740 0.704068
v -1.397815 6.456908 0.000000
v -1.327244 6.781825 0.000000
v 0.318303 3.641294 0.643873
v 1.411813 6.456908 0.392681
v 0.006999 7.658064 -0.184165
v 0.006999 7.658064 0.184165
v -0.247594 3.714354 0.652411
v 0.006999 6.732826 0.642373
v -0.005956 3.193424 0.554715
v -0.155573 3.537865 0.554715
v -0.011374 3.068253 0.628494
v -0.277065 3.628422 0.628494
v 0.031978 3.193424 0.554715
v 0.037396 3.068253 0.628494
v 0.181595 3.537865 0.554715
v 0.006999 7.844742 0.000000
v 0.303087 3.628422 0.628494
v 0.273617 3.714354 0.653493
v 1.341242 6.781825 0.000000
v 1.411813 6.456907 0.000000
v -0.130897 3.578210 0.554715
v -0.234605 3.697841 0.628494
v 0.156919 3.578210 0.554715
v 0.260628 3.697841 0.628494
v -1.034322 2.042178 0.370552
v -1.034322 2.042178 0.000000
v -1.011819 2.034786 -0.338980
v 0.006999 2.266739 -0.710955
v 1.048320 2.042180 -0.401861
v 1.048320 2.042178 0.000000
v 1.048320 2.042178 0.392681
v 1.019970 1.742831 0.392681
v 0.008447 2.299103 0.706574
v -1.005972 1.742831 0.370552
v -1.005972 1.742831 0.000000
v -1.005972 1.742832 -0.338980
v 0.006999 1.963777 -0.710955
v 1.019971 1.742832 -0.401861
v 1.019970 1.742831 0.000000
vt 0.200063 0.036093
vt 0.283195 0.036039
vt 0.297961 0.152925
vt 0.199874 0.172906
vt 0.284092 0.926103
vt 0.289400 0.894607
vt 0.321521 0.910726
vt 0.320912 0.926789
vt 0.361081 0.855281
vt 0.361543 0.893532
vt 0.361246 0.927327
vt 0.289013 0.960601
vt 0.321127 0.944375
vt 0.360750 0.961136
vt 0.608158 0.238890
vt 0.486703 0.177946
vt 0.503285 0.032647
vt 0.605069 0.031298
vt 0.103664 0.152658
vt 0.119086 0.035856
vt 0.401233 0.908559
vt 0.401611 0.927729
vt 0.432680 0.890847
vt 0.359879 0.999357
vt 0.375311 0.839073
vt 0.371338 0.843393
vt 0.331398 0.640861
vt 0.400843 0.946445
vt 0.438778 0.928141
vt 0.432094 0.964479
vt 0.362801 0.586325
vt 0.393935 0.586377
vt 0.393884 0.616915
vt 0.427968 0.586434
vt 0.633053 0.767776
vt 0.783677 0.768361
vt 0.759834 0.798665
vt 0.621890 0.785912
vt 0.745972 0.682536
vt 0.623656 0.767918
vt 0.627011 0.682358
vt 0.761078 0.808109
vt 0.782311 0.843221
vt 0.630033 0.827260
vt 0.620479 0.807873
vt 0.363807 0.032739
vt 0.394941 0.032818
vt 0.394646 0.151907
vt 0.363510 0.151816
vt 0.175780 0.944889
vt 0.172325 0.888641
vt 0.234531 0.766125
vt 0.295678 0.733507
vt 0.099739 0.767264
vt 0.160632 0.887981
vt 0.156543 0.944237
vt 0.038547 0.732935
vt 0.754816 0.924846
vt 0.634703 0.914724
vt 0.634452 0.829320
vt 0.618354 0.767905
vt 0.494973 0.682175
vt 0.613210 0.682109
vt 0.428972 0.032901
vt 0.428684 0.151975
vt 0.480265 0.802775
vt 0.454848 0.768694
vt 0.606548 0.768029
vt 0.618285 0.785893
vt 0.904734 0.598273
vt 0.941645 0.597740
vt 0.905176 0.628812
vt 0.600968 0.918082
vt 0.481109 0.926939
vt 0.602698 0.832713
vt 0.473948 0.807628
vt 0.614546 0.807291
vt 0.605005 0.826685
vt 0.452720 0.844341
vt 0.868667 0.598794
vt 0.896734 0.044709
vt 0.933645 0.044176
vt 0.935366 0.163262
vt 0.898455 0.163795
vt 0.860667 0.045230
vt 0.862388 0.164316
vt 0.305225 0.729396
vt 0.186210 0.974867
vt 0.226135 0.749721
vt 0.276267 0.700613
vt 0.283662 0.689486
vt 0.147446 0.974552
vt 0.028432 0.728858
vt 0.108363 0.752172
vt 0.058120 0.700760
vt 0.050561 0.689492
vt 0.394610 0.179530
vt 0.428643 0.179587
vt 0.363414 0.178627
vt 0.199838 0.200451
vt 0.298427 0.179448
vt 0.331287 0.581479
vt 0.199194 0.606339
vt 0.068527 0.581063
vt 0.101156 0.179857
vt 0.898854 0.191413
vt 0.935765 0.190879
vt 0.862787 0.191934
vt 0.755663 0.175515
vt 0.632737 0.240275
vt 0.632158 0.026498
vt 0.736030 0.026217
vt 0.886082 0.637717
vt 0.986197 0.638332
vt 0.940848 0.838499
vt 0.799947 0.723118
vt 0.669498 0.396162
vt 0.636284 0.327687
vt 0.758858 0.210290
vt 0.575890 0.390829
vt 0.452522 0.710403
vt 0.484163 0.211766
vt 0.607163 0.323810
vt 0.871712 0.638589
vt 0.889168 0.850471
vt 0.852587 0.850400
vt 0.630316 0.327689
vt 0.944867 0.842854
vt 0.430376 0.640168
vn -0.313467 -0.014533 -0.949488
vn -0.313467 -0.014533 -0.949488
vn -0.327716 -0.015194 -0.944654
vn -0.327391 -0.015179 -0.944767
vn -0.859254 -0.511549 0.000000
vn -0.859254 -0.511549 0.000000
vn -0.859254 -0.511549 0.000000
vn -0.859254 -0.511549 0.000000
vn -0.369017 -0.419895 -0.829165
vn -0.369017 -0.419895 -0.829165
vn -0.369017 -0.419895 -0.829165
vn -0.369017 -0.419895 -0.829165
vn 0.000000 -1.000000 0.000000
vn 0.000000 -1.000000 0.000000
vn 0.000000 -1.000000 0.000000
vn 0.000000 -1.000000 0.000000
vn -0.859254 -0.511549 0.000000
vn -0.859254 -0.511549 0.000000
vn -0.859254 -0.511549 0.000000
vn -0.859254 -0.511549 0.000000
vn 0.000000 -1.000000 0.000000
vn 0.000000 -1.000000 0.000000
vn 0.000000 -1.000000 0.000000
vn 0.000000 -1.000000 0.000000
vn -0.297876 -0.013788 0.954505
vn -0.298868 -0.013359 0.954201
vn -0.289185 -0.013407 0.957179
vn 0.271821 -0.012602 0.962265
vn 0.276970 -0.012841 -0.960793
vn 0.264539 -0.012265 -0.964297
vn 0.264539 -0.012265 -0.964297
vn 0.276682 -0.012828 -0.960876
vn 0.000000 -1.000000 0.000000
vn 0.000000 -1.000000 0.000000
vn 0.000000 -1.000000 0.000000
vn 0.000000 -1.000000 0.000000
vn 0.313310 -0.429034 -0.847211
vn 0.313310 -0.429034 -0.847211
vn 0.313310 -0.429034 -0.847211
vn 0.313310 -0.429034 -0.847211
vn -0.341497 -0.424621 0.838497
vn -0.341497 -0.424621 0.838497
vn -0.341497 -0.424621 0.838497
vn -0.341497 -0.424621 0.838497
vn 0.271821 -0.012602 0.962265
vn 0.271821 -0.012602 0.962265
vn 0.271821 -0.012602 0.962265
vn 0.000000 -1.000000 0.000000
vn 0.000000 -1.000000 0.000000
vn 0.000000 -1.000000 0.000000
vn 0.000000 -1.000000 0.000000
vn 0.859254 -0.511549 0.000000
vn 0.859254 -0.511549 0.000000
vn 0.859254 -0.511549 0.000000
vn 0.859254 -0.511549 0.000000
vn 0.321665 -0.427770 0.844716
vn 0.321665 -0.427770 0.844716
vn 0.321665 -0.427770 0.844716
vn 0.321665 -0.427770 0.844716
vn 0.859254 -0.511549 0.000000
vn 0.859254 -0.511549 0.000000
vn 0.859254 -0.511549 0.000000
vn 0.859254 -0.511549 0.000000
vn -0.977216 0.212246 0.000002
vn -0.977216 0.212246 0.000002
vn -0.977216 0.212246 0.000002
vn -0.977216 0.212247 0.000000
vn -0.977216 0.212247 0.000000
vn -0.977216 0.212247 0.000000
vn -0.505260 0.650069 -0.567559
vn -0.505260 0.650069 -0.567559
vn -0.505260 0.650068 -0.567559
vn -0.505260 0.650069 -0.567559
vn -0.311049 0.470238 -0.825909
vn -0.311049 0.470238 -0.825909
vn -0.311049 0.470238 -0.825909
vn -0.511056 0.663278 0.546703
vn -0.511056 0.663278 0.546703
vn -0.511056 0.663278 0.546703
vn -0.511056 0.663278 0.546703
vn -0.995531 -0.094435 0.000000
vn -0.995531 -0.094435 0.000000
vn -0.995531 -0.094435 0.000000
vn -0.995531 -0.094435 0.000000
vn 0.682418 0.313299 0.660417
vn 0.682418 0.313299 0.660417
vn 0.682418 0.313299 0.660417
vn 0.682418 0.313299 0.660417
vn -0.682418 0.313299 0.660416
vn -0.682418 0.313299 0.660416
vn -0.682418 0.313299 0.660416
vn -0.682418 0.313299 0.660416
vn -0.294139 0.472893 0.830575
vn -0.294139 0.472893 0.830575
vn -0.294139 0.472893 0.830575
vn 0.277093 0.475408 -0.834989
vn 0.277093 0.475408 -0.834989
vn 0.277093 0.475408 -0.834989
vn -0.995531 -0.094435 0.000000
vn -0.995531 -0.094435 0.000000
vn -0.995531 -0.094435 0.000000
vn -0.995531 -0.094435 0.000000
vn 0.516105 0.675069 -0.527179
vn 0.516105 0.675069 -0.527179
vn 0.516105 0.675069 -0.527179
vn 0.516105 0.675069 -0.527179
vn 0.977216 0.212246 0.000001
vn 0.977216 0.212246 0.000001
vn 0.977216 0.212246 0.000001
vn 0.282119 0.474683 0.833718
vn 0.282119 0.474683 0.833718
vn 0.282119 0.474683 0.833718
vn 0.514691 0.671737 0.532788
vn 0.514691 0.671737 0.532788
vn 0.514691 0.671737 0.532788
vn 0.514691 0.671737 0.532788
vn 0.977216 0.212247 0.000000
vn 0.977216 0.212247 0.000000
vn 0.977216 0.212247 0.000000
vn 0.995531 -0.094435 0.000000
vn 0.995531 -0.094435 0.000000
vn 0.995531 -0.094435 0.000000
vn 0.995531 -0.094435 0.000000
vn 0.995531 -0.094435 0.000000
vn 0.995531 -0.094435 0.000000
vn 0.995531 -0.094434 0.000000
vn 0.995531 -0.094434 0.000000
vn 0.000000 0.507779 0.861487
vn 0.000000 0.507779 0.861487
vn 0.000000 0.507779 0.861487
vn 0.000000 0.507779 0.861487
vn 0.885478 0.429868 0.176471
vn 0.885478 0.429868 0.176471
vn 0.885478 0.429868 0.176471
vn 0.885478 0.429868 0.176471
vn 0.374720 -0.229193 0.898363
vn 0.374720 -0.229193 0.898363
vn 0.374720 -0.229193 0.898363
vn 0.374720 -0.229193 0.898363
vn 0.559233 -0.394691 0.729025
vn 0.559233 -0.394691 0.729025
vn 0.559233 -0.394691 0.729025
vn 0.559233 -0.394691 0.729025
vn -0.885492 0.429301 0.177778
vn -0.885492 0.429301 0.177778
vn -0.885492 0.429301 0.177778
vn -0.885492 0.429301 0.177778
vn 0.000000 -0.524920 0.851151
vn 0.000000 -0.524920 0.851151
vn 0.000000 -0.524920 0.851151
vn 0.000000 -0.524920 0.851151
vn -0.374720 -0.229193 0.898363
vn -0.374720 -0.229193 0.898363
vn -0.374720 -0.229193 0.898363
vn -0.374720 -0.229193 0.898363
vn -0.584543 -0.404994 0.703057
vn -0.584543 -0.404994 0.703057
vn -0.584543 -0.404994 0.703057
vn -0.584543 -0.404994 0.703057
vn 0.004944 0.979113 0.203257
vn 0.004944 0.979113 0.203257
vn 0.004944 0.979113 0.203257
vn 0.004944 0.979113 0.203257
vn -0.000310 -0.956601 0.291400
vn -0.000310 -0.956601 0.291400
vn -0.000310 -0.956601 0.291400
vn -0.000310 -0.956601 0.291400
vn 0.000000 0.000000 1.000000
vn 0.000000 0.000000 1.000000
vn 0.000000 0.000000 1.000000
vn 0.000000 0.000000 1.000000
vn 0.000000 0.000000 1.000000
vn 0.000000 0.000000 1.000000
vn -0.995531 -0.094435 0.000000
vn -0.995531 -0.094435 0.000000
vn -0.995531 -0.094435 0.000000
vn -0.995531 -0.094435 0.000000
vn -0.995531 -0.094434 0.000000
vn -0.995531 -0.094434 0.000000
vn -0.995531 -0.094435 0.000000
vn -0.995531 -0.094435 0.000000
vn -0.263741 -0.012228 -0.964516
vn -0.263928 -0.012236 -0.964465
vn -0.313467 -0.014533 -0.949488
vn -0.313467 -0.014533 -0.949488
vn 0.264539 -0.012265 -0.964297
vn 0.221721 -0.010280 -0.975056
vn 0.221559 -0.010272 -0.975093
vn 0.264539 -0.012265 -0.964297
vn 0.995531 -0.094434 0.000001
vn 0.995531 -0.094434 0.000001
vn 0.995531 -0.094435 0.000000
vn 0.995531 -0.094435 0.000000
vn 0.995531 -0.094435 0.000000
vn 0.995531 -0.094435 0.000000
vn 0.995531 -0.094435 0.000000
vn 0.995531 -0.094435 0.000000
vn 0.281242 -0.012602 0.959554
vn 0.280386 -0.012943 0.959800
vn 0.271821 -0.012602 0.962265
vn 0.271821 -0.012602 0.962265
vn 0.271821 -0.012602 0.962265
vn -0.289185 -0.013407 0.957179
vn -0.289185 -0.013407 0.957179
vn 0.271821 -0.012602 0.962265
vn 0.271821 -0.012602 0.962265
vn 0.271821 -0.012602 0.962265
vn 0.227643 -0.017092 0.973595
vn -0.289185 -0.013407 0.957179
vn -0.289185 -0.013407 0.957179
vn -0.242496 -0.018197 0.969982
vn -0.289185 -0.013407 0.957179
vn 0.271821 -0.012602 0.962265
vn -0.289185 -0.013407 0.957179
vn 0.271821 -0.012602 0.962265
vn 0.271821 -0.012602 0.962265
vn 0.280386 -0.012943 0.959800
vn 0.281242 -0.012602 0.959554
vn 0.222544 -0.035752 0.974267
vn -0.289185 -0.013407 0.957179
vn -0.236144 -0.040139 0.970889
vn -0.298868 -0.013359 0.954201
vn -0.297876 -0.013788 0.954505
vn -0.995531 -0.094435 0.000000
vn -0.995531 -0.094435 0.000000
vn -0.995531 -0.094435 0.000000
vn -0.995531 -0.094435 0.000000
vn -0.995531 -0.094435 0.000000
vn -0.995531 -0.094435 0.000000
vn -0.995531 -0.094434 0.000000
vn -0.995531 -0.094434 0.000000
vn -0.327391 -0.015179 -0.944767
vn -0.327716 -0.015194 -0.944654
vn -0.263928 -0.012236 -0.964465
vn -0.263741 -0.012228 -0.964516
vn 0.221721 -0.010280 -0.975056
vn 0.276970 -0.012841 -0.960793
vn 0.276682 -0.012828 -0.960876
vn 0.221559 -0.010272 -0.975093
vn 0.995531 -0.094435 0.000000
vn 0.995531 -0.094435 0.000000
vn 0.995531 -0.094434 0.000001
vn 0.995531 -0.094434 0.000001
vn 0.995531 -0.094434 0.000000
vn 0.995531 -0.094434 0.000000
vn 0.995531 -0.094435 0.000000
vn 0.995531 -0.094435 0.000000
vn 0.271821 -0.012602 0.962265
vn 0.271821 -0.012602 0.962265
vn 0.047378 0.012218 0.998802
vn -0.289185 -0.013407 0.957179
vn -0.289185 -0.013407 0.957179
vn -0.289185 -0.013407 0.957179
vn 0.271821 -0.012602 0.962265
vn 0.271821 -0.012602 0.962265
vn 0.271821 -0.012602 0.962265
s off
g Shrien_5:pCube9
usemtl initialShadingGroup
f 3/1/1 1/2/2 60/3/3 61/4/4
f 4/5/5 1/6/6 5/7/7 6/8/8
f 1/6/9 3/9/10 7/10/11 5/7/12
f 5/7/13 7/10/14 8/11/15 6/8/16
f 9/12/17 4/5/18 6/8/19 10/13/20
f 6/8/21 8/11/22 11/14/23 10/13/24
f 57/15/25 58/16/26 9/17/27 12/18/28
f 62/19/29 14/20/30 3/1/31 61/4/32
f 7/10/33 16/21/34 17/22/35 8/11/36
f 3/9/37 14/23/38 16/21/39 7/10/40
f 12/24/41 9/12/42 10/13/43 11/14/44
f 42/25/45 27/26/46 28/27/47
f 8/11/48 17/22/49 19/28/50 11/14/51
f 14/23/52 21/29/53 17/22/54 16/21/55
f 18/30/56 12/24/57 11/14/58 19/28/59
f 21/29/60 18/30/61 19/28/62 17/22/63
f 2/31/64 25/32/65 26/33/66
f 25/32/67 22/34/68 26/33/69
f 29/35/70 2/36/71 26/37/72 40/38/73
f 2/39/74 29/40/75 20/41/76
f 26/42/77 22/43/78 30/44/79 40/45/80
f 1/46/81 4/47/82 59/48/83 60/49/84
f 35/50/85 33/51/86 34/52/87 36/53/88
f 39/54/89 37/55/90 38/56/91 41/57/92
f 22/58/93 32/59/94 30/60/95
f 29/61/96 15/62/97 20/63/98
f 4/47/99 9/64/100 58/65/101 59/48/102
f 43/66/103 15/67/104 29/68/105 40/69/106
f 44/70/107 15/71/108 43/72/109
f 32/73/110 28/74/111 30/75/112
f 43/76/113 40/77/114 30/78/115 28/79/116
f 28/80/117 44/70/118 43/72/119
f 21/81/120 14/82/121 62/83/122 63/84/123
f 18/85/124 21/81/125 63/84/126 56/86/127
f 38/56/128 37/55/129 33/51/130 35/50/131
f 23/87/132 13/88/133 35/50/134 36/53/135
f 36/53/136 34/52/137 45/89/138 46/90/139
f 31/91/140 23/87/141 36/53/142 46/90/143
f 24/92/144 27/93/145 41/57/146 38/56/147
f 46/90/148 45/89/149 47/94/150 48/95/151
f 48/95/152 47/94/153 39/54/154 41/57/155
f 27/93/156 42/96/157 48/95/158 41/57/159
f 35/50/160 13/88/161 24/92/162 38/56/163
f 46/90/164 48/95/165 42/96/166 31/91/167
f 34/52/168 33/51/169 37/55/170 39/54/171 47/94/172 45/89/173
f 50/97/174 49/98/175 22/34/176 25/32/177
f 51/99/178 50/97/179 25/32/180 2/31/181
f 52/100/182 51/101/183 2/102/184 20/103/185
f 15/104/186 53/105/187 52/100/188 20/103/189
f 54/106/190 53/107/191 15/71/192 44/70/193
f 55/108/194 54/106/195 44/70/196 28/80/197
f 56/109/198 57/110/199 12/111/200 18/112/201
f 32/113/202 22/114/203 31/115/204
f 28/116/205 27/117/206 24/118/207 55/119/208
f 23/120/209 22/121/210 49/122/211 13/123/212
f 32/124/213 31/125/214 42/126/215
f 24/118/216 57/110/217 56/109/218 55/119/219
f 13/123/220 49/122/221 58/16/222 57/15/223
f 59/48/224 58/65/225 49/98/226 50/97/227
f 60/49/228 59/48/229 50/97/230 51/99/231
f 61/4/232 60/3/233 51/101/234 52/100/235
f 53/105/236 62/19/237 61/4/238 52/100/239
f 63/84/240 62/83/241 53/107/242 54/106/243
f 56/86/244 63/84/245 54/106/246 55/108/247
f 24/118/248 13/127/249 57/110/250
f 31/115/251 22/114/252 23/128/253
f 42/25/254 28/27/255 32/129/256
