# This file uses centimeters as units for non-parametric coordinates.

mtllib Log1.mtl
g default
v 0.589260 0.830133 -5.051315
v -0.011086 1.332800 -5.466980
v -0.900021 0.551893 -5.583420
v -0.860793 -0.339403 -5.342209
v -0.297133 -0.867963 -5.186729
v 0.589260 -0.703223 -5.516876
v 0.957082 0.126413 -5.595791
v 0.718499 0.982662 -4.982213
v -0.030286 1.528991 -5.466980
v -1.038261 0.648173 -5.622474
v -0.978356 -0.390400 -5.432764
v -0.313462 -1.013889 -5.199307
v 0.718499 -0.806900 -5.463966
v 1.152382 0.151525 -5.597043
v 0.718499 1.004557 4.619635
v -0.061166 1.227079 4.937279
v -1.038261 0.603589 4.495688
v -1.038261 -0.396411 4.300837
v -0.256429 -1.019901 4.906293
v 0.718499 -0.797380 4.543764
v 1.152382 0.103589 4.381479
v 0.589260 0.867379 4.619635
v -0.041966 1.056020 4.937278
v -0.900021 0.527460 4.495688
v -0.900021 -0.320283 4.300836
v -0.237229 -0.848843 4.906292
v 0.589260 -0.660202 4.543763
v 0.957082 0.103589 4.381478
v 0.718499 0.900969 -2.691288
v -0.256429 1.123490 -4.494736
v -1.038261 0.500000 -2.691288
v -1.038261 -0.500000 -2.691288
v -0.256429 -1.123490 -2.691288
v 0.514567 -0.900969 -4.872227
v 1.152382 0.000000 -2.691288
v 0.718499 1.132006 -0.181225
v 1.152382 0.231037 -0.181225
v 0.718499 -0.801917 -0.181225
v -0.256429 -1.024438 -0.181225
v -1.038261 -0.400948 -0.181225
v -1.038261 0.731038 -0.181225
v -0.256429 1.354527 -0.181225
v 0.718499 0.716838 1.986292
v 1.152382 -0.184130 2.671441
v 0.718499 -1.085099 1.986292
v -0.256429 -1.307620 1.986292
v -1.038261 -0.684130 1.986292
v -1.038261 0.315870 1.986292
v -0.256429 0.939360 1.986292
v 0.589260 0.763790 -2.501797
v 0.957082 0.000000 -2.501797
v 0.385328 -0.763790 -4.682736
v -0.237229 -0.952431 -2.501797
v -0.900021 -0.423872 -2.501797
v -0.900021 0.423872 -2.501797
v -0.237229 0.952431 -4.305245
v 0.589260 0.763790 -0.121841
v -0.237229 0.952431 -0.121841
v -0.900021 0.423872 -0.121841
v -0.900021 -0.423872 -0.121841
v -0.237229 -0.952431 -0.121841
v 0.589260 -0.763790 -0.121841
v 0.957082 -0.000000 -0.121841
v 0.589260 0.579660 2.749408
v -0.237229 0.768301 2.749408
v -0.900021 0.239741 2.749408
v -0.900021 -0.608002 2.749408
v -0.237229 -1.136562 2.749408
v 0.589260 -0.947921 2.749408
v 0.957082 -0.184130 2.912863
v -0.438225 1.399053 -5.578785
v -0.394084 1.231422 -5.510789
v 0.514149 -0.717183 -5.488900
v 0.606107 -0.829444 -5.435143
v 1.030244 0.357211 4.448520
v 0.872009 0.280244 4.436561
vt 0.565220 -0.738270
vt 0.591168 -0.774000
vt 0.930311 -0.636695
vt 0.576627 -0.866642
vt 0.567777 -0.905190
vt 0.762309 -0.859653
vt 0.591266 -0.698280
vt 0.646174 -0.626098
vt 0.682204 -0.468987
vt 0.949440 -0.621647
vt 0.979745 -0.766169
vt 0.910357 -0.873978
vt 0.575771 -0.393170
vt 0.637119 -0.794461
vt 0.552922 -0.622532
vt 0.581791 -0.533915
vt 0.572119 -0.484675
vt 0.561388 -0.441096
vt 0.582541 -0.343663
vt 0.554787 -0.298733
vt 0.095461 -0.621232
vt 0.079524 -0.583733
vt 0.102033 -0.530450
vt 0.113738 -0.484155
vt 0.087228 -0.434143
vt 0.103362 -0.385390
vt 0.108082 -0.337446
vt 0.101538 -0.279249
vt 0.722961 -0.032553
vt 0.838521 -0.037599
vt 0.877660 -0.158219
vt 0.919941 -0.263638
vt 0.850822 -0.370607
vt 0.765184 -0.409175
vt 0.085428 -0.654163
vt 0.067263 -0.900491
vt 0.096571 -0.856506
vt 0.084880 -0.816105
vt 0.061204 -0.768652
vt 0.077834 -0.737273
vt 0.629538 -0.048058
vt 0.446770 -0.299265
vt 0.444708 -0.628007
vt 0.785564 -0.528812
vt 0.443146 -0.529202
vt 0.442992 -0.482374
vt 0.443411 -0.435970
vt 0.753412 -0.891238
vt 0.445291 -0.346399
vt 0.329260 -0.285437
vt 0.324252 -0.628814
vt 0.327434 -0.332642
vt 0.324829 -0.386313
vt 0.324506 -0.435064
vt 0.324492 -0.483372
vt 0.325252 -0.536496
vt 0.326004 -0.582555
vt 0.225408 -0.297615
vt 0.219908 -0.622425
vt 0.553545 -0.211909
vt 0.223145 -0.388859
vt 0.222321 -0.434196
vt 0.222528 -0.479720
vt 0.222100 -0.526610
vt 0.221468 -0.574684
vt 0.437578 -0.737172
vt 0.436573 -0.694611
vt 0.760295 -0.879506
vt 0.434092 -0.905966
vt 0.435047 -0.863822
vt 0.436767 -0.821538
vt 0.783072 -0.547122
vt 0.318227 -0.736557
vt 0.319217 -0.778052
vt 0.317491 -0.819728
vt 0.316353 -0.861861
vt 0.315436 -0.904456
vt 0.315844 -0.946925
vt 0.316836 -0.694915
vt 0.173162 -0.734179
vt 0.173440 -0.777737
vt 0.173510 -0.821135
vt 0.174106 -0.863794
vt 0.173464 -0.905775
vt 0.174732 -0.648440
vt 0.582455 -0.207730
vt 0.908727 -0.483133
vt 0.898014 -0.508124
vt 0.773853 -0.861245
vt 0.775829 -0.882181
vt 0.690889 -0.373902
vt 0.089559 -0.706788
vt 0.663683 -0.785430
vt 0.674919 -0.636605
vt 0.688553 -0.498134
vt 0.744792 -0.875452
vt 0.590551 -0.822483
vt 0.901370 -0.855078
vt 0.957378 -0.765275
vt 0.529026 -0.780778
vt 0.592001 -0.780626
vt 0.581602 -0.579425
vt 0.578786 -0.580520
vt 0.528097 -0.577025
vt 0.587952 -0.653289
vt 0.545408 -0.646091
vt 0.573708 -0.396713
vt 0.546910 -0.400758
vt 0.582209 -0.946797
vt 0.701368 -0.357164
vt 0.164591 -0.690789
vt 0.190659 -0.342987
vt 0.107957 -0.313487
vt 0.766179 -0.387415
vt 0.613112 -0.033852
vt 0.089785 -0.697112
vt 0.724320 -0.052712
vt 0.827528 -0.054549
vt 0.862930 -0.165475
vt 0.902119 -0.260429
vt 0.839163 -0.355082
vt 0.172955 -0.947874
vt 0.317276 -0.652864
vt 0.541988 -0.939483
vt 0.081680 -0.944737
vn 0.180144 0.346759 -0.920492
vn 0.550616 -0.008341 -0.834717
vn 0.550617 -0.008341 -0.834717
vn 0.258663 0.282983 -0.923588
vn 0.311265 -0.164553 -0.935968
vn 0.311265 -0.164553 -0.935968
vn 0.373039 -0.171990 -0.911736
vn 0.350334 -0.169323 -0.921193
vn 0.434257 -0.008403 -0.900750
vn 0.432246 -0.043713 -0.900696
vn 0.114246 -0.023706 -0.993170
vn 0.029642 -0.071525 -0.996998
vn -0.249608 -0.223397 -0.942226
vn -0.249608 -0.223397 -0.942226
vn 0.115238 -0.167745 -0.979072
vn -0.011347 0.217712 -0.975947
vn -0.034023 0.283564 -0.958350
vn 0.115238 -0.167745 -0.979072
vn 0.274393 0.960474 -0.046882
vn 0.239290 0.967004 0.087433
vn 0.257690 0.965739 0.030720
vn 0.257234 0.965797 0.032672
vn -0.637534 0.767689 0.064832
vn -0.655853 0.754009 -0.036428
vn -0.644996 0.763712 0.026924
vn -0.645830 0.763148 0.022555
vn -0.999860 -0.015612 -0.006116
vn -0.999856 -0.015801 -0.006190
vn -1.000000 0.000000 0.000000
vn -1.000000 0.000000 0.000000
vn -0.636690 -0.771120 -0.000380
vn -0.636672 -0.771135 -0.000337
vn -0.623172 -0.781433 -0.031908
vn -0.623218 -0.781490 -0.029539
vn 0.263755 -0.964469 0.015265
vn 0.186355 -0.981792 -0.036840
vn 0.250635 -0.967309 -0.038673
vn 0.250627 -0.967310 -0.038699
vn 0.863724 -0.503868 0.009960
vn 0.874495 -0.485033 -0.001145
vn 0.894840 -0.445724 -0.024324
vn 0.895722 -0.443889 -0.025390
vn 0.898852 0.438150 -0.009459
vn 0.898901 0.438031 -0.010278
vn 0.895504 0.444815 0.014578
vn 0.895211 0.445312 0.017144
vn 0.249194 -0.178307 0.951898
vn -0.010155 -0.183255 0.983013
vn -0.023590 -0.184481 0.982553
vn 0.255938 -0.176023 0.950532
vn -0.185202 -0.206957 0.960661
vn -0.182285 -0.207004 0.961208
vn -0.289786 0.093635 0.952500
vn -0.262968 0.064236 0.962664
vn -0.034794 0.224087 0.973948
vn -0.080631 0.233896 0.968912
vn 0.199041 0.144296 0.969310
vn 0.211777 0.142660 0.966850
vn 0.067434 0.159544 0.984885
vn 0.067434 0.159544 0.984885
vn -0.251144 -0.962856 -0.099168
vn -0.225680 -0.974144 -0.010549
vn -0.222426 -0.974509 -0.029303
vn -0.222427 -0.974517 -0.029021
vn 0.625486 -0.780190 -0.008374
vn 0.639810 -0.764787 -0.075790
vn 0.623324 -0.781623 -0.023070
vn 0.623315 -0.781612 -0.023704
vn 0.999906 0.013086 0.004144
vn 0.999902 0.013349 0.004227
vn 1.000000 0.000000 0.000000
vn 1.000000 0.000000 0.000000
vn 0.638033 0.769934 0.010781
vn 0.638232 0.769767 0.010930
vn 0.623261 0.781545 0.027084
vn 0.623250 0.781531 0.027715
vn -0.188106 0.981740 0.028348
vn -0.238860 0.971018 0.008328
vn -0.232578 0.972002 0.033457
vn -0.232528 0.972009 0.033595
vn -0.865806 0.499928 0.021269
vn -0.853596 0.520831 -0.010431
vn -0.883690 0.467342 0.026149
vn -0.883181 0.468304 0.026128
vn -0.898378 -0.439147 -0.008192
vn -0.898424 -0.439055 -0.008047
vn -0.900225 -0.435158 -0.015253
vn -0.900252 -0.435119 -0.014772
vn 0.218526 0.962808 0.158892
vn 0.218526 0.962808 0.158892
vn -0.627149 0.771125 0.109773
vn -0.627149 0.771125 0.109773
vn -0.999464 -0.030481 -0.011940
vn -0.999464 -0.030481 -0.011940
vn -0.649570 -0.759625 -0.032075
vn -0.649570 -0.759625 -0.032075
vn 0.156744 -0.986028 -0.056395
vn 0.156744 -0.986028 -0.056395
vn 0.859446 -0.511029 0.014228
vn 0.859445 -0.511029 0.014228
vn 0.896700 0.442194 0.019845
vn 0.896700 0.442194 0.019845
vn 0.893974 0.446351 0.039761
vn 0.901557 0.432575 -0.008622
vn 0.904187 -0.426851 0.015646
vn 0.913315 -0.406355 -0.027049
vn 0.232577 -0.972578 0.000759
vn 0.232608 -0.972570 0.001156
vn -0.634493 -0.772928 0.001337
vn -0.634418 -0.772990 0.000625
vn -1.000000 0.000000 0.000000
vn -1.000000 0.000000 0.000000
vn -0.591061 0.806254 0.024532
vn -0.591514 0.805863 0.026370
vn 0.224968 0.973849 0.031731
vn 0.225079 0.973968 0.026944
vn 0.892376 -0.447245 0.060307
vn 0.892376 -0.447245 0.060307
vn 0.239263 -0.965641 0.101446
vn 0.239263 -0.965641 0.101446
vn -0.640943 -0.762992 0.083876
vn -0.640943 -0.762992 0.083876
vn -1.000000 0.000000 0.000000
vn -1.000000 0.000000 0.000000
vn -0.565932 0.821776 -0.066365
vn -0.565932 0.821777 -0.066365
vn 0.226072 0.968142 -0.107667
vn 0.226072 0.968142 -0.107667
vn -0.896105 -0.443584 -0.015151
vn -0.896105 -0.443584 -0.015151
vn -0.850030 0.526389 -0.019074
vn -0.850030 0.526389 -0.019074
vn -0.174935 0.984010 0.033492
vn -0.174935 0.984010 0.033492
vn 0.651228 0.758598 0.020757
vn 0.651228 0.758598 0.020757
vn 0.999694 0.023586 0.007468
vn 0.999694 0.023586 0.007468
vn 0.643434 -0.759503 -0.095646
vn 0.643434 -0.759503 -0.095646
vn -0.259815 -0.956733 -0.130991
vn -0.259815 -0.956733 -0.130991
vn -0.221527 -0.974979 0.018511
vn -0.221553 -0.975003 0.016851
vn 0.592807 -0.805238 0.013107
vn 0.594697 -0.803896 0.009307
vn 1.000000 0.000000 0.000000
vn 1.000000 0.000000 0.000000
vn 0.636751 0.770842 -0.018718
vn 0.636216 0.771350 -0.015774
vn -0.234416 0.971925 -0.020290
vn -0.234573 0.971863 -0.021420
vn -0.901762 0.432225 -0.002602
vn -0.901473 0.432498 -0.017104
vn -0.900050 -0.435688 0.009269
vn -0.900040 -0.435798 0.002928
vn -0.217627 -0.964855 0.147288
vn -0.217627 -0.964855 0.147288
vn 0.549643 -0.830079 0.094133
vn 0.549643 -0.830079 0.094133
vn 1.000000 0.000000 0.000000
vn 1.000000 0.000000 0.000000
vn 0.651201 0.749930 -0.116370
vn 0.651201 0.749930 -0.116370
vn -0.249337 0.958308 -0.139563
vn -0.249337 0.958308 -0.139563
vn -0.898319 0.432666 -0.076302
vn -0.898319 0.432666 -0.076302
vn -0.926339 -0.244651 -0.286429
vn -0.926339 -0.244651 -0.286429
vn -0.926339 -0.244651 -0.286429
vn -0.926339 -0.244651 -0.286429
vn 0.988129 0.090317 -0.124277
vn 0.988129 0.090317 -0.124277
vn 0.988129 0.090317 -0.124277
vn 0.988129 0.090317 -0.124277
vn 0.782264 0.597143 0.177435
vn 0.782264 0.597143 0.177435
vn 0.782264 0.597143 0.177435
vn 0.782264 0.597143 0.177435
vn -0.729286 -0.625860 -0.276482
vn -0.729286 -0.625860 -0.276482
vn -0.729286 -0.625860 -0.276482
vn -0.729286 -0.625860 -0.276482
vn 0.906515 0.418756 -0.053612
vn 0.906515 0.418756 -0.053612
vn 0.122634 -0.218691 0.968058
vn 0.122634 -0.218691 0.968058
vn -0.898109 -0.433575 0.073568
vn -0.898109 -0.433575 0.073568
vn -0.109441 0.978095 -0.177067
vn -0.109441 0.978095 -0.177067
vn -0.109441 0.978095 -0.177067
vn -0.109441 0.978095 -0.177067
vn 0.380198 -0.877824 0.291332
vn 0.380198 -0.877824 0.291332
vn 0.380198 -0.877824 0.291332
vn 0.380198 -0.877824 0.291332
s 1
g pPrism1
usemtl initialShadingGroup
f 1/94/1 2/95/2 9/9/3 8/8/4
s 2
f 71/87/5 72/88/6 3/3/7 10/10/8
f 3/3/7 4/99/9 11/11/10 10/10/8
f 4/99/9 5/98/11 12/12/12 11/11/10
f 5/98/11 73/89/13 74/90/14 12/12/12
s 1
f 6/6/15 7/93/16 14/14/17 13/96/18
f 7/93/16 1/94/1 8/8/4 14/14/17
s 3
f 29/43/19 30/104/20 42/57/21 36/51/22
s 4
f 30/104/23 31/45/24 41/56/25 42/57/26
s 5
f 31/45/27 32/46/28 40/55/29 41/56/30
s 6
f 32/46/31 33/47/32 39/54/33 40/55/34
s 7
f 33/47/35 34/108/36 38/53/37 39/54/38
s 8
f 34/108/39 35/49/40 37/52/41 38/53/42
s 9
f 35/49/43 29/42/44 36/50/45 37/52/46
s 10
f 15/34/47 16/33/48 23/121/49 22/114/50
f 16/33/48 17/32/51 24/120/52 23/121/49
f 17/32/51 18/31/53 25/119/54 24/120/52
f 18/31/53 19/30/55 26/118/56 25/119/54
f 19/30/55 20/29/57 27/117/58 26/118/56
f 20/29/57 21/115/59 28/41/60 27/117/58
s 11
f 56/100/61 50/66/62 57/73/63 58/74/64
s 12
f 55/71/65 56/100/66 58/74/67 59/75/68
s 13
f 54/70/69 55/71/70 59/75/71 60/76/72
s 14
f 53/69/73 54/70/74 60/76/75 61/77/76
s 15
f 52/124/77 53/69/78 61/77/79 62/78/80
s 16
f 51/67/81 52/106/82 62/123/83 63/79/84
s 17
f 50/66/85 51/67/86 63/79/87 57/73/88
s 3
f 8/15/89 9/103/90 30/104/20 29/43/19
s 4
f 30/104/23 71/102/91 10/16/92 31/45/24
s 5
f 10/16/93 11/17/94 32/46/28 31/45/27
s 6
f 11/17/95 12/18/96 33/47/32 32/46/31
s 7
f 12/18/97 74/107/98 34/108/36 33/47/35
s 8
f 13/13/99 14/19/100 35/49/40 34/108/39
s 9
f 14/19/101 8/20/102 29/42/44 35/49/43
f 37/52/46 36/50/45 43/58/103 44/112/104
s 8
f 38/53/42 37/52/41 44/112/105 45/61/106
s 7
f 39/54/38 38/53/37 45/61/107 46/62/108
s 6
f 40/55/34 39/54/33 46/62/109 47/63/110
s 5
f 41/56/30 40/55/29 47/63/111 48/64/112
s 4
f 42/57/26 41/56/25 48/64/113 49/65/114
s 3
f 36/51/22 42/57/21 49/65/115 43/59/116
s 8
f 45/61/106 44/112/105 21/27/117 20/26/118
s 7
f 46/62/108 45/61/107 20/26/119 19/25/120
s 6
f 47/63/110 46/62/109 19/25/121 18/24/122
s 5
f 48/64/112 47/63/111 18/24/123 17/23/124
s 4
f 49/65/114 48/64/113 17/23/125 16/22/126
s 3
f 43/59/116 49/65/115 16/22/127 15/21/128
s 17
f 1/1/129 7/7/130 51/67/86 50/66/85
s 16
f 7/7/131 6/105/132 52/106/82 51/67/81
s 15
f 52/124/77 73/109/133 5/5/134 53/69/78
s 14
f 5/5/135 4/4/136 54/70/74 53/69/73
s 13
f 4/4/137 3/97/138 55/71/70 54/70/69
s 12
f 3/97/139 72/101/140 56/100/66 55/71/65
s 11
f 2/2/141 1/1/142 50/66/62 56/100/61
f 58/74/64 57/73/63 64/80/143 65/81/144
s 12
f 59/75/68 58/74/67 65/81/145 66/82/146
s 13
f 60/76/72 59/75/71 66/82/147 67/83/148
s 14
f 61/77/76 60/76/75 67/83/149 68/84/150
s 15
f 62/78/80 61/77/79 68/84/151 69/122/152
s 16
f 63/79/84 62/123/83 69/85/153 70/111/154
s 17
f 57/73/88 63/79/87 70/111/155 64/80/156
s 11
f 65/81/144 64/80/143 22/40/157 23/39/158
s 12
f 66/82/146 65/81/145 23/39/159 24/38/160
s 13
f 67/83/148 66/82/147 24/38/161 25/37/162
s 14
f 68/84/150 67/83/149 25/37/163 26/36/164
s 15
f 69/122/152 68/84/151 26/36/165 27/125/166
s 16
f 70/111/154 69/85/153 27/35/167 28/116/168
s off
f 30/44/169 9/9/170 2/95/171 56/72/172
f 71/87/173 30/44/174 56/72/175 72/88/176
f 73/89/177 52/68/178 34/48/179 74/90/180
f 52/68/181 6/6/182 13/96/183 34/48/184
s 9
f 44/112/104 43/58/103 15/28/185 75/113/186
s 10
f 76/110/187 75/91/188 15/34/47 22/114/50
s 17
f 64/80/156 70/111/155 76/92/189 22/40/190
s off
f 21/115/191 44/60/192 70/86/193 28/41/194
f 44/60/195 75/91/196 76/110/197 70/86/198
