# This file uses centimeters as units for non-parametric coordinates.

mtllib 2.mtl
g default
v 1.085600 1.175333 -1.880314
v -1.085599 1.175333 -1.880314
v -2.171199 1.175333 -0.000000
v -1.085600 1.175333 1.880314
v 1.085600 1.175333 1.880314
v 2.171199 1.175333 0.000000
v 0.000000 4.866015 0.000000
v 2.171199 1.175333 0.000000
v 1.085600 1.175333 -1.880314
v 1.085600 1.175333 1.880314
v -1.085600 1.175333 1.880314
v -2.171199 1.175333 -0.000000
v -1.085599 1.175333 -1.880314
v 0.000000 4.866015 0.000000
v 0.160276 -0.047186 -0.493278
v -0.419608 -0.047186 -0.304863
v -0.419608 -0.047186 0.304863
v 0.160276 -0.047186 0.493278
v 0.518664 -0.047186 0.000000
v 0.120507 5.275155 -0.316144
v -0.251143 5.275155 -0.195388
v -0.251143 5.275155 0.195388
v 0.120507 5.275155 0.316144
v 0.350199 5.275155 -0.000000
v 0.160276 -0.047186 -0.493278
v -0.419608 -0.047186 -0.304863
v -0.251143 5.275155 -0.195388
v 0.120507 5.275155 -0.316144
v -0.419608 -0.047186 0.304863
v -0.251143 5.275155 0.195388
v 0.160276 -0.047186 0.493278
v 0.120507 5.275155 0.316144
v 0.518664 -0.047186 0.000000
v 0.350199 5.275155 -0.000000
v 0.774913 3.140404 -1.342189
v -0.774913 3.140404 -1.342189
v -1.549826 3.140404 -0.000000
v -0.774913 3.140404 1.342189
v 0.774913 3.140404 1.342189
v 1.549826 3.140404 0.000000
v 0.000000 6.240056 0.000000
v 1.549826 3.140404 0.000000
v 0.774913 3.140404 -1.342189
v 0.774913 3.140404 1.342189
v -0.774913 3.140404 1.342189
v -1.549826 3.140404 -0.000000
v -0.774913 3.140404 -1.342189
v 0.000000 6.240056 0.000000
v 0.590339 4.698987 -1.022496
v -0.590338 4.698987 -1.022496
v -1.180677 4.698987 -0.000000
v -0.590338 4.698987 1.022496
v 0.590338 4.698987 1.022496
v 1.180677 4.698987 0.000000
v 0.000000 6.836902 0.000000
v 1.180677 4.698987 0.000000
v 0.590339 4.698987 -1.022496
v 0.590338 4.698987 1.022496
v -0.590338 4.698987 1.022496
v -1.180677 4.698987 -0.000000
v -0.590338 4.698987 -1.022496
v 0.000000 6.836902 0.000000
vt 0.690107 0.308071
vt 0.666071 0.238797
vt 0.714047 0.183344
vt 0.786058 0.197166
vt 0.810094 0.266440
vt 0.762118 0.321893
vt 0.941435 0.062960
vt 0.912385 0.130286
vt 0.780177 0.033310
vt 0.856893 0.178217
vt 0.655262 0.139515
vt 0.621460 0.074446
vt 0.690107 0.308071
vt 0.666071 0.238797
vt 0.714047 0.183344
vt 0.786058 0.197166
vt 0.810094 0.266440
vt 0.762118 0.321893
vt 0.941435 0.062960
vt 0.912385 0.130286
vt 0.780177 0.033310
vt 0.856893 0.178217
vt 0.655262 0.139515
vt 0.621460 0.074446
vt 0.049473 0.107821
vt 0.085856 0.104747
vt 0.105156 0.423117
vt 0.081838 0.425087
vt 0.122340 0.103287
vt 0.128539 0.422182
vt 0.158853 0.103444
vt 0.151941 0.422282
vt 0.195331 0.105057
vt 0.175319 0.423316
vt 0.231724 0.108026
vt 0.198644 0.425219
vt 0.140838 0.047178
vt 0.170286 0.068766
vt 0.111206 0.068512
vt 0.140085 0.458243
vt 0.121212 0.444407
vt 0.159076 0.444569
vt 0.049473 0.107821
vt 0.081838 0.425087
vt 0.105156 0.423117
vt 0.085856 0.104747
vt 0.128539 0.422182
vt 0.122340 0.103287
vt 0.151941 0.422282
vt 0.158853 0.103444
vt 0.175319 0.423316
vt 0.195331 0.105057
vt 0.198644 0.425219
vt 0.231724 0.108026
vt 0.140838 0.047178
vt 0.111206 0.068512
vt 0.170286 0.068766
vt 0.140085 0.458243
vt 0.159076 0.444569
vt 0.121212 0.444407
vt 0.375561 0.737329
vt 0.351526 0.668055
vt 0.399501 0.612602
vt 0.471512 0.626424
vt 0.495548 0.695698
vt 0.447572 0.751151
vt 0.626889 0.492218
vt 0.597839 0.559544
vt 0.465631 0.462568
vt 0.542347 0.607475
vt 0.340716 0.568774
vt 0.306914 0.503704
vt 0.697270 0.596284
vt 0.769281 0.610106
vt 0.817257 0.554654
vt 0.793221 0.485379
vt 0.721210 0.471557
vt 0.673234 0.527010
vt 0.948597 0.351174
vt 0.787339 0.321524
vt 0.919548 0.418499
vt 0.864056 0.466430
vt 0.662425 0.427729
vt 0.628623 0.362659
vt 0.697270 0.596284
vt 0.673234 0.527010
vt 0.721210 0.471557
vt 0.793221 0.485379
vt 0.817257 0.554654
vt 0.769281 0.610106
vt 0.948597 0.351174
vt 0.919548 0.418499
vt 0.787339 0.321524
vt 0.864056 0.466430
vt 0.662425 0.427729
vt 0.628623 0.362659
vt 0.697270 0.596284
vt 0.769281 0.610106
vt 0.817257 0.554654
vt 0.793221 0.485379
vt 0.721210 0.471557
vt 0.673234 0.527010
vt 0.948597 0.351174
vt 0.787339 0.321524
vt 0.919548 0.418499
vt 0.864056 0.466430
vt 0.662425 0.427729
vt 0.628623 0.362659
vn 0.000000 -1.000000 0.000000
vn 0.000000 -1.000000 0.000000
vn 0.000000 -1.000000 0.000000
vn 0.000000 -1.000000 0.000000
vn 0.000000 -1.000000 0.000000
vn 0.000000 -1.000000 0.000000
vn 0.000000 0.453955 -0.891024
vn 0.000000 0.453955 -0.891024
vn 0.000000 0.453956 -0.891024
vn -0.771650 0.453955 -0.445512
vn -0.771650 0.453955 -0.445512
vn -0.771650 0.453955 -0.445512
vn -0.771650 0.453955 0.445512
vn -0.771650 0.453955 0.445512
vn -0.771650 0.453955 0.445512
vn -0.000000 0.453955 0.891024
vn -0.000000 0.453955 0.891024
vn -0.000000 0.453956 0.891024
vn 0.771650 0.453956 0.445512
vn 0.771650 0.453955 0.445512
vn 0.771650 0.453956 0.445512
vn 0.771650 0.453955 -0.445512
vn 0.771650 0.453956 -0.445512
vn 0.771650 0.453956 -0.445512
vn 0.000000 1.000000 -0.000000
vn 0.000000 1.000000 -0.000000
vn 0.000000 1.000000 -0.000000
vn 0.000000 1.000000 -0.000000
vn 0.000000 1.000000 -0.000000
vn 0.000000 1.000000 -0.000000
vn -0.000000 -0.453955 0.891024
vn -0.000000 -0.453956 0.891024
vn -0.000000 -0.453955 0.891024
vn 0.771650 -0.453955 0.445512
vn 0.771650 -0.453955 0.445512
vn 0.771650 -0.453955 0.445512
vn 0.771650 -0.453955 -0.445512
vn 0.771650 -0.453955 -0.445512
vn 0.771650 -0.453955 -0.445512
vn 0.000000 -0.453955 -0.891024
vn 0.000000 -0.453956 -0.891024
vn 0.000000 -0.453955 -0.891024
vn -0.771650 -0.453956 -0.445512
vn -0.771650 -0.453956 -0.445512
vn -0.771650 -0.453955 -0.445512
vn -0.771650 -0.453955 0.445512
vn -0.771650 -0.453956 0.445512
vn -0.771650 -0.453956 0.445512
vn -0.308884 0.029331 -0.950647
vn -0.308884 0.029331 -0.950647
vn -0.308884 0.029331 -0.950647
vn -0.308884 0.029331 -0.950647
vn -0.999499 0.031637 -0.000000
vn -0.999499 0.031637 -0.000000
vn -0.999499 0.031637 -0.000000
vn -0.999499 0.031637 -0.000000
vn -0.308884 0.029331 0.950647
vn -0.308884 0.029331 0.950647
vn -0.308884 0.029331 0.950647
vn -0.308884 0.029331 0.950647
vn 0.808752 0.025599 0.587593
vn 0.808752 0.025599 0.587593
vn 0.808752 0.025599 0.587593
vn 0.808752 0.025599 0.587593
vn 0.808752 0.025599 -0.587593
vn 0.808752 0.025599 -0.587592
vn 0.808752 0.025599 -0.587593
vn 0.808752 0.025599 -0.587592
vn 0.000000 -1.000000 -0.000000
vn 0.000000 -1.000000 -0.000000
vn 0.000000 -1.000000 -0.000000
vn 0.000000 -1.000000 -0.000000
vn 0.000000 -1.000000 -0.000000
vn 0.000000 1.000000 0.000000
vn 0.000000 1.000000 0.000000
vn 0.000000 1.000000 0.000000
vn 0.000000 1.000000 0.000000
vn 0.000000 1.000000 0.000000
vn 0.308884 -0.029331 0.950647
vn 0.308884 -0.029331 0.950647
vn 0.308884 -0.029331 0.950647
vn 0.308884 -0.029331 0.950647
vn 0.999499 -0.031637 0.000000
vn 0.999499 -0.031637 0.000000
vn 0.999499 -0.031637 0.000000
vn 0.999499 -0.031637 0.000000
vn 0.308884 -0.029331 -0.950647
vn 0.308884 -0.029331 -0.950647
vn 0.308884 -0.029331 -0.950647
vn 0.308884 -0.029331 -0.950647
vn -0.808752 -0.025599 -0.587593
vn -0.808752 -0.025599 -0.587593
vn -0.808752 -0.025599 -0.587593
vn -0.808752 -0.025599 -0.587593
vn -0.808752 -0.025599 0.587593
vn -0.808752 -0.025599 0.587592
vn -0.808752 -0.025599 0.587593
vn -0.808752 -0.025599 0.587592
vn 0.000000 1.000000 0.000000
vn 0.000000 1.000000 0.000000
vn 0.000000 1.000000 0.000000
vn 0.000000 1.000000 0.000000
vn 0.000000 1.000000 0.000000
vn 0.000000 -1.000000 0.000000
vn 0.000000 -1.000000 0.000000
vn 0.000000 -1.000000 0.000000
vn 0.000000 -1.000000 0.000000
vn 0.000000 -1.000000 0.000000
vn 0.000000 -1.000000 0.000000
vn 0.000000 -1.000000 0.000000
vn 0.000000 -1.000000 0.000000
vn 0.000000 -1.000000 0.000000
vn 0.000000 -1.000000 0.000000
vn 0.000000 -1.000000 0.000000
vn 0.000000 0.397360 -0.917663
vn 0.000000 0.397360 -0.917663
vn 0.000000 0.397360 -0.917663
vn -0.794719 0.397360 -0.458832
vn -0.794719 0.397360 -0.458832
vn -0.794719 0.397360 -0.458832
vn -0.794719 0.397360 0.458831
vn -0.794719 0.397360 0.458831
vn -0.794719 0.397360 0.458831
vn 0.000000 0.397360 0.917663
vn 0.000000 0.397360 0.917663
vn 0.000000 0.397360 0.917663
vn 0.794719 0.397360 0.458832
vn 0.794719 0.397360 0.458832
vn 0.794719 0.397360 0.458832
vn 0.794720 0.397360 -0.458831
vn 0.794720 0.397360 -0.458831
vn 0.794720 0.397360 -0.458831
vn 0.000000 1.000000 0.000000
vn 0.000000 1.000000 0.000000
vn 0.000000 1.000000 0.000000
vn 0.000000 1.000000 0.000000
vn 0.000000 1.000000 0.000000
vn 0.000000 1.000000 0.000000
vn -0.000000 -0.397360 0.917663
vn -0.000000 -0.397360 0.917663
vn -0.000000 -0.397360 0.917663
vn 0.794719 -0.397360 0.458832
vn 0.794719 -0.397360 0.458832
vn 0.794719 -0.397360 0.458832
vn 0.794719 -0.397360 -0.458831
vn 0.794719 -0.397360 -0.458831
vn 0.794719 -0.397360 -0.458831
vn 0.000000 -0.397360 -0.917663
vn 0.000000 -0.397360 -0.917663
vn 0.000000 -0.397360 -0.917663
vn -0.794719 -0.397360 -0.458832
vn -0.794719 -0.397360 -0.458832
vn -0.794719 -0.397360 -0.458832
vn -0.794720 -0.397360 0.458831
vn -0.794720 -0.397360 0.458831
vn -0.794720 -0.397360 0.458831
vn 0.000000 -1.000000 -0.000000
vn 0.000000 -1.000000 -0.000000
vn 0.000000 -1.000000 -0.000000
vn 0.000000 -1.000000 -0.000000
vn 0.000000 -1.000000 -0.000000
vn 0.000000 -1.000000 -0.000000
vn 0.000000 0.431461 -0.902132
vn 0.000000 0.431461 -0.902132
vn 0.000000 0.431461 -0.902132
vn -0.781269 0.431461 -0.451066
vn -0.781269 0.431461 -0.451066
vn -0.781269 0.431461 -0.451066
vn -0.781269 0.431461 0.451066
vn -0.781269 0.431461 0.451066
vn -0.781269 0.431461 0.451066
vn -0.000000 0.431461 0.902132
vn -0.000000 0.431461 0.902132
vn -0.000000 0.431461 0.902132
vn 0.781269 0.431461 0.451066
vn 0.781269 0.431461 0.451066
vn 0.781269 0.431461 0.451066
vn 0.781269 0.431461 -0.451066
vn 0.781269 0.431461 -0.451066
vn 0.781269 0.431461 -0.451066
vn 0.000000 1.000000 -0.000000
vn 0.000000 1.000000 -0.000000
vn 0.000000 1.000000 -0.000000
vn 0.000000 1.000000 -0.000000
vn 0.000000 1.000000 -0.000000
vn 0.000000 1.000000 -0.000000
vn -0.000000 -0.431461 0.902132
vn -0.000000 -0.431461 0.902132
vn -0.000000 -0.431461 0.902132
vn 0.781269 -0.431461 0.451066
vn 0.781269 -0.431461 0.451066
vn 0.781269 -0.431461 0.451066
vn 0.781269 -0.431461 -0.451066
vn 0.781269 -0.431461 -0.451066
vn 0.781269 -0.431461 -0.451066
vn 0.000000 -0.431461 -0.902132
vn 0.000000 -0.431461 -0.902132
vn 0.000000 -0.431461 -0.902132
vn -0.781269 -0.431461 -0.451066
vn -0.781269 -0.431461 -0.451066
vn -0.781269 -0.431461 -0.451066
vn -0.781269 -0.431461 0.451066
vn -0.781269 -0.431461 0.451066
vn -0.781269 -0.431461 0.451066
s off
g polySurface3
usemtl initialShadingGroup
f 9/1/1 8/2/2 10/3/3 11/4/4 12/5/5 13/6/6
f 9/7/7 13/8/8 14/9/9
f 13/8/10 12/10/11 14/9/12
f 12/10/13 11/4/14 14/9/15
f 11/4/16 10/3/17 14/9/18
f 10/3/19 8/11/20 14/9/21
f 8/11/22 9/12/23 14/9/24
f 1/13/25 2/18/26 3/17/27 4/16/28 5/15/29 6/14/30
f 1/19/31 7/21/32 2/20/33
f 2/20/34 7/21/35 3/22/36
f 3/22/37 7/21/38 4/16/39
f 4/16/40 7/21/41 5/15/42
f 5/15/43 7/21/44 6/23/45
f 6/23/46 7/21/47 1/24/48
f 25/25/49 26/26/50 27/27/51 28/28/52
f 26/26/53 29/29/54 30/30/55 27/27/56
f 29/29/57 31/31/58 32/32/59 30/30/60
f 31/31/61 33/33/62 34/34/63 32/32/64
f 33/33/65 25/35/66 28/36/67 34/34/68
f 25/37/69 33/38/70 31/31/71 29/29/72 26/39/73
f 28/40/74 27/41/75 30/30/76 32/32/77 34/42/78
f 15/43/79 20/44/80 21/45/81 16/46/82
f 16/46/83 21/45/84 22/47/85 17/48/86
f 17/48/87 22/47/88 23/49/89 18/50/90
f 18/50/91 23/49/92 24/51/93 19/52/94
f 19/52/95 24/51/96 20/53/97 15/54/98
f 15/55/99 16/56/100 17/48/101 18/50/102 19/57/103
f 20/58/104 24/59/105 23/49/106 22/47/107 21/60/108
f 43/61/109 42/62/110 44/63/111 45/64/112 46/65/113 47/66/114
f 43/67/115 47/68/116 48/69/117
f 47/68/118 46/70/119 48/69/120
f 46/70/121 45/64/122 48/69/123
f 45/64/124 44/63/125 48/69/126
f 44/63/127 42/71/128 48/69/129
f 42/71/130 43/72/131 48/69/132
f 35/73/133 36/74/134 37/75/135 38/76/136 39/77/137 40/78/138
f 35/79/139 41/80/140 36/81/141
f 36/81/142 41/80/143 37/82/144
f 37/82/145 41/80/146 38/76/147
f 38/76/148 41/80/149 39/77/150
f 39/77/151 41/80/152 40/83/153
f 40/83/154 41/80/155 35/84/156
f 57/85/157 56/86/158 58/87/159 59/88/160 60/89/161 61/90/162
f 57/91/163 61/92/164 62/93/165
f 61/92/166 60/94/167 62/93/168
f 60/94/169 59/88/170 62/93/171
f 59/88/172 58/87/173 62/93/174
f 58/87/175 56/95/176 62/93/177
f 56/95/178 57/96/179 62/93/180
f 49/97/181 50/98/182 51/99/183 52/100/184 53/101/185 54/102/186
f 49/103/187 55/104/188 50/105/189
f 50/105/190 55/104/191 51/106/192
f 51/106/193 55/104/194 52/100/195
f 52/100/196 55/104/197 53/101/198
f 53/101/199 55/104/200 54/107/201
f 54/107/202 55/104/203 49/108/204
