# This file uses centimeters as units for non-parametric coordinates.

mtllib Tree1.mtl
g default
v 0.241454 -0.007176 -0.304146
v -0.087659 -0.007176 -0.379264
v -0.351588 -0.007176 -0.168789
v -0.351588 -0.007176 0.168789
v -0.087659 -0.007176 0.379264
v 0.241454 -0.007176 0.304146
v 0.387923 -0.007176 0.000000
v 0.102753 4.685865 -0.115216
v -0.021922 4.685865 -0.143672
v -0.121902 4.685865 -0.063940
v -0.121902 4.685865 0.063940
v -0.021922 4.685865 0.143672
v 0.102753 4.685865 0.115216
v 0.158238 4.685865 0.000000
v -0.001095 -0.007176 0.000000
v 0.010871 4.685865 0.000000
v 0.161299 4.545817 -0.194965
v -0.049670 4.545817 -0.243117
v -0.218854 4.545817 -0.108197
v -0.218854 4.545817 0.108197
v -0.049670 4.545817 0.243117
v 0.161299 4.545817 0.194965
v 0.255189 4.545817 -0.000000
v 0.151845 3.966954 -0.182086
v -0.045189 3.966954 -0.227058
v -0.203197 3.966954 -0.101050
v -0.203197 3.966954 0.101050
v -0.045189 3.966954 0.227058
v 0.151845 3.966954 0.182086
v 0.239533 3.966954 0.000000
v 0.153286 3.314502 -0.184050
v -0.045872 3.314502 -0.229507
v -0.205585 3.314502 -0.102140
v -0.205585 3.314502 0.102140
v -0.045872 3.314502 0.229507
v 0.153286 3.314502 0.184050
v 0.241920 3.314502 -0.000000
v 0.166334 2.733653 -0.201822
v -0.052056 2.733653 -0.251669
v -0.227191 2.733653 -0.112003
v -0.227191 2.733653 0.112003
v -0.052056 2.733653 0.251669
v 0.166334 2.733653 0.201822
v 0.263526 2.733653 -0.000000
v 0.173706 1.899758 -0.211864
v -0.055550 1.899758 -0.264190
v -0.239399 1.899758 -0.117576
v -0.239399 1.899758 0.117576
v -0.055550 1.899758 0.264190
v 0.173706 1.899758 0.211864
v 0.275734 1.899758 -0.000000
v 0.203028 1.294719 -0.251805
v -0.069447 1.294719 -0.313996
v -0.287956 1.294719 -0.139741
v -0.287956 1.294719 0.139741
v -0.069447 1.294719 0.313996
v 0.203028 1.294719 0.251805
v 0.324291 1.294719 -0.000000
v 0.229995 0.643732 -0.288537
v -0.082228 0.643732 -0.359800
v -0.332612 0.643732 -0.160126
v -0.332612 0.643732 0.160126
v -0.082228 0.643732 0.359800
v 0.229995 0.643732 0.288537
v 0.368947 0.643732 0.000000
v 0.168148 2.300915 -0.204294
v 0.266531 2.300915 0.000000
v 0.168148 2.300915 0.204294
v -0.052916 2.300915 0.254751
v -0.230196 2.300915 0.113375
v -0.230196 2.300915 -0.113375
v -0.052916 2.300915 -0.254751
v -0.500972 1.594229 -1.353604
v -1.650582 1.718410 0.143388
v -0.670691 1.718410 1.442461
v 1.084525 1.594229 0.748340
v 1.189417 1.517482 -0.979723
v -0.109432 2.766238 0.000000
v 0.489404 1.004897 -1.452178
v -1.500730 0.712241 -0.897495
v -1.500731 0.712241 0.897495
v 0.489404 1.004897 1.452177
v 1.719374 1.185768 -0.000000
v -0.062484 2.078293 0.000000
v 0.125298 2.805871 -0.959890
v -1.174110 3.064487 -0.585877
v -1.166777 3.064487 0.598371
v 0.137163 2.805871 0.956263
v 0.935708 2.646037 -0.006795
v -0.093403 3.938578 -0.000422
v -0.100873 2.223724 -1.120939
v -1.389177 2.264292 -0.333950
v -1.031135 2.264292 0.914880
v 0.478451 2.223724 0.899710
v 1.053384 2.198651 -0.358496
v -0.197030 3.593117 0.000000
v -0.309268 3.526143 -0.789670
v -1.052816 3.446861 0.061034
v -0.516718 3.294688 0.860264
v 0.558157 3.279923 0.503511
v 0.686368 3.422970 -0.516204
v -0.058731 4.465972 -0.023053
v 0.053549 3.862856 -0.772614
v -0.843063 3.763664 -0.234848
v -0.602130 3.763664 0.635868
v 0.443387 3.862856 0.636235
v 0.848619 3.924160 -0.234256
v 0.023708 4.585685 -0.005997
v 0.193713 4.224886 -0.525346
v -0.490179 4.297972 -0.258718
v -0.425998 4.297972 0.372593
v 0.297560 4.224886 0.496136
v 0.680563 4.179716 -0.058821
v 0.152816 5.234288 -0.005169
vt 0.184689 0.086081
vt 0.081127 0.085282
vt 0.015932 0.165752
vt 0.038197 0.266895
vt 0.131157 0.312549
vt 0.224810 0.268336
vt 0.248634 0.167548
vt 0.014752 0.320917
vt 0.046179 0.317967
vt 0.077812 0.316220
vt 0.109493 0.315701
vt 0.141203 0.316681
vt 0.172831 0.319114
vt 0.204282 0.322857
vt 0.235339 0.327706
vt 0.061645 0.759711
vt 0.073887 0.755800
vt 0.088761 0.755067
vt 0.104015 0.753734
vt 0.119292 0.753499
vt 0.134155 0.754412
vt 0.147991 0.756868
vt 0.159223 0.762811
vt 0.151275 0.778710
vt 0.078920 0.778015
vt 0.033263 0.834152
vt 0.048687 0.904849
vt 0.113576 0.936868
vt 0.179067 0.906100
vt 0.195845 0.835713
vt 0.132078 0.193206
vt 0.114376 0.853487
vt 0.171981 0.749901
vt 0.050283 0.745737
vt 0.069026 0.740860
vt 0.086570 0.738619
vt 0.103579 0.738082
vt 0.120339 0.738104
vt 0.137344 0.739506
vt 0.154449 0.743429
vt 0.180039 0.692721
vt 0.047394 0.688097
vt 0.066042 0.686998
vt 0.084979 0.685937
vt 0.103999 0.685468
vt 0.123080 0.686237
vt 0.142076 0.687925
vt 0.161128 0.690053
vt 0.183286 0.631127
vt 0.048079 0.626686
vt 0.067171 0.625999
vt 0.086478 0.625635
vt 0.105933 0.625687
vt 0.125455 0.626304
vt 0.144924 0.627475
vt 0.164235 0.629111
vt 0.189619 0.577597
vt 0.045269 0.572931
vt 0.065982 0.571985
vt 0.086605 0.571488
vt 0.107199 0.571587
vt 0.127784 0.572279
vt 0.148367 0.573557
vt 0.168962 0.575365
vt 0.197715 0.501774
vt 0.041686 0.497032
vt 0.063642 0.494875
vt 0.086022 0.493810
vt 0.108608 0.493527
vt 0.131248 0.494209
vt 0.153777 0.495806
vt 0.176031 0.498292
vt 0.211528 0.447674
vt 0.031478 0.442147
vt 0.057129 0.438808
vt 0.082903 0.437000
vt 0.108758 0.436593
vt 0.134580 0.437457
vt 0.160330 0.439540
vt 0.185960 0.442871
vt 0.225506 0.387951
vt 0.021053 0.381724
vt 0.050470 0.378395
vt 0.079743 0.376395
vt 0.108948 0.375987
vt 0.138085 0.376979
vt 0.167189 0.379343
vt 0.196305 0.383040
vt 0.193039 0.537757
vt 0.044247 0.533226
vt 0.171988 0.535300
vt 0.150794 0.533272
vt 0.129470 0.531877
vt 0.108085 0.531194
vt 0.086727 0.531233
vt 0.065427 0.531994
vt 0.921935 0.162366
vt 0.992528 0.312596
vt 0.854975 0.405501
vt 0.699370 0.312690
vt 0.740754 0.162424
vt 0.622330 0.996907
vt 0.471774 0.878857
vt 0.611293 0.892372
vt 0.535236 0.774628
vt 0.677059 0.771681
vt 0.763296 0.868904
vt 0.921935 0.162366
vt 0.992528 0.312596
vt 0.854975 0.405501
vt 0.699370 0.312690
vt 0.740754 0.162424
vt 0.891144 0.922387
vt 0.762551 0.854521
vt 0.881328 0.813830
vt 0.786686 0.731328
vt 0.931381 0.717002
vt 0.993884 0.835881
vt 0.921935 0.162366
vt 0.992528 0.312596
vt 0.854975 0.405501
vt 0.699370 0.312690
vt 0.740754 0.162424
vt 0.464453 0.473812
vt 0.336579 0.386565
vt 0.453802 0.352733
vt 0.376909 0.258007
vt 0.531705 0.259435
vt 0.581378 0.392755
vt 0.921935 0.162366
vt 0.992528 0.312596
vt 0.854975 0.405501
vt 0.699370 0.312690
vt 0.740754 0.162424
vt 0.846128 0.620726
vt 0.700372 0.503550
vt 0.842077 0.558829
vt 0.773552 0.423033
vt 0.900029 0.422181
vt 0.989058 0.496347
vt 0.921935 0.162366
vt 0.992528 0.312596
vt 0.854975 0.405501
vt 0.699370 0.312690
vt 0.740754 0.162424
vt 0.669830 0.753239
vt 0.502385 0.673299
vt 0.655885 0.706176
vt 0.547723 0.576104
vt 0.669322 0.548588
vt 0.768472 0.605290
vt 0.921935 0.162366
vt 0.992528 0.312596
vt 0.854975 0.405501
vt 0.699370 0.312690
vt 0.740754 0.162424
vt 0.362283 0.721947
vt 0.207689 0.597331
vt 0.360717 0.634475
vt 0.275519 0.502042
vt 0.411367 0.507754
vt 0.496195 0.598974
vt 0.921935 0.162366
vt 0.992528 0.312596
vt 0.854975 0.405501
vt 0.699370 0.312689
vt 0.740754 0.162424
vt 0.354752 0.943474
vt 0.249815 0.867235
vt 0.351624 0.841155
vt 0.285088 0.759803
vt 0.414793 0.760604
vt 0.452596 0.874307
vn 0.221931 0.072783 -0.972342
vn 0.221983 0.069476 -0.972572
vn 0.186726 0.543917 -0.818100
vn 0.186726 0.543917 -0.818100
vn -0.621684 0.076052 -0.779567
vn -0.621812 0.073314 -0.779727
vn -0.515893 0.561573 -0.646908
vn -0.515893 0.561573 -0.646908
vn -0.997087 0.076268 -0.000000
vn -0.997087 0.076268 -0.000000
vn -0.822205 0.569192 0.000000
vn -0.822205 0.569192 0.000000
vn -0.621812 0.073315 0.779728
vn -0.621684 0.076052 0.779567
vn -0.515893 0.561573 0.646908
vn -0.515893 0.561573 0.646908
vn 0.221983 0.069476 0.972572
vn 0.221931 0.072783 0.972342
vn 0.186726 0.543918 0.818100
vn 0.186726 0.543918 0.818100
vn 0.898910 0.067570 0.432892
vn 0.898821 0.069002 0.432850
vn 0.764460 0.529217 0.368144
vn 0.764460 0.529217 0.368144
vn 0.898821 0.069002 -0.432850
vn 0.898910 0.067570 -0.432892
vn 0.764460 0.529217 -0.368144
vn 0.764460 0.529217 -0.368144
vn 0.000000 -1.000000 -0.000000
vn 0.000000 -1.000000 0.000000
vn 0.000000 -1.000000 0.000000
vn 0.000000 -1.000000 -0.000000
vn 0.000000 -1.000000 0.000000
vn 0.000000 -1.000000 -0.000000
vn 0.000000 -1.000000 0.000000
vn 0.000000 -1.000000 0.000000
vn 0.000000 1.000000 -0.000002
vn 0.000000 1.000000 0.000001
vn 0.000000 1.000000 -0.000001
vn 0.000000 1.000000 -0.000001
vn 0.000000 1.000000 -0.000004
vn 0.000000 1.000000 -0.000002
vn 0.000000 1.000000 0.000002
vn 0.000000 1.000000 -0.000004
vn 0.222509 -0.010343 -0.974876
vn 0.222509 -0.010354 -0.974876
vn -0.623453 -0.010831 -0.781786
vn -0.623453 -0.010840 -0.781786
vn -0.999939 -0.011052 -0.000000
vn -0.999939 -0.011052 -0.000000
vn -0.623453 -0.010840 0.781786
vn -0.623453 -0.010831 0.781786
vn 0.222509 -0.010354 0.974876
vn 0.222509 -0.010343 0.974876
vn 0.900924 -0.009960 0.433863
vn 0.900924 -0.009956 0.433863
vn 0.900924 -0.009956 -0.433863
vn 0.900924 -0.009960 -0.433863
vn 0.222482 0.018706 -0.974757
vn 0.222482 0.018727 -0.974757
vn -0.623370 0.019589 -0.781681
vn -0.623370 0.019606 -0.781681
vn -0.999800 0.019989 -0.000000
vn -0.999800 0.019989 -0.000000
vn -0.623370 0.019606 0.781681
vn -0.623370 0.019589 0.781681
vn 0.222482 0.018727 0.974757
vn 0.222482 0.018706 0.974757
vn 0.900823 0.018015 0.433814
vn 0.900823 0.018006 0.433814
vn 0.900823 0.018006 -0.433814
vn 0.900823 0.018015 -0.433814
vn 0.222466 0.022294 -0.974686
vn 0.222466 0.022274 -0.974686
vn -0.623320 0.023341 -0.781618
vn -0.623320 0.023324 -0.781619
vn -0.999717 0.023799 -0.000000
vn -0.999717 0.023799 -0.000000
vn -0.623320 0.023324 0.781619
vn -0.623320 0.023341 0.781619
vn 0.222466 0.022274 0.974686
vn 0.222466 0.022294 0.974686
vn 0.900762 0.021439 0.433784
vn 0.900762 0.021447 0.433784
vn 0.900762 0.021447 -0.433784
vn 0.900762 0.021439 -0.433784
vn 0.222180 0.055368 -0.973432
vn 0.222179 0.055449 -0.973428
vn 0.222500 0.013833 -0.974835
vn 0.222500 0.013826 -0.974835
vn -0.622441 0.057974 -0.780517
vn -0.622439 0.058042 -0.780513
vn -0.623424 0.014484 -0.781750
vn -0.623424 0.014478 -0.781750
vn -0.998248 0.059164 -0.000000
vn -0.998248 0.059164 -0.000000
vn -0.999891 0.014770 -0.000000
vn -0.999891 0.014770 -0.000000
vn -0.622439 0.058042 0.780513
vn -0.622441 0.057974 0.780517
vn -0.623425 0.014478 0.781750
vn -0.623424 0.014484 0.781749
vn 0.222179 0.055449 0.973428
vn 0.222180 0.055368 0.973432
vn 0.222500 0.013826 0.974835
vn 0.222500 0.013833 0.974835
vn 0.899686 0.053340 0.433266
vn 0.899688 0.053306 0.433267
vn 0.900889 0.013306 0.433846
vn 0.900889 0.013309 0.433846
vn 0.899688 0.053306 -0.433267
vn 0.899686 0.053340 -0.433266
vn 0.900889 0.013309 -0.433846
vn 0.900889 0.013306 -0.433846
vn 0.221994 0.068804 -0.972617
vn 0.221994 0.068779 -0.972619
vn -0.621871 0.072024 -0.779801
vn -0.621872 0.072002 -0.779802
vn -0.997299 0.073446 -0.000000
vn -0.997299 0.073446 -0.000000
vn -0.621872 0.072002 0.779802
vn -0.621871 0.072024 0.779801
vn 0.221994 0.068779 0.972619
vn 0.221994 0.068804 0.972618
vn 0.898992 0.066201 0.432932
vn 0.898992 0.066212 0.432932
vn 0.898992 0.066212 -0.432932
vn 0.898992 0.066201 -0.432932
vn 0.222299 0.044633 -0.973956
vn 0.222300 0.044574 -0.973959
vn -0.622809 0.046723 -0.780978
vn -0.622810 0.046674 -0.780979
vn -0.998865 0.047631 -0.000000
vn -0.998865 0.047631 -0.000000
vn -0.622810 0.046674 0.780979
vn -0.622809 0.046723 0.780978
vn 0.222300 0.044574 0.973959
vn 0.222299 0.044633 0.973956
vn 0.900139 0.042910 0.433484
vn 0.900138 0.042935 0.433484
vn 0.900138 0.042935 -0.433484
vn 0.900139 0.042910 -0.433484
vn 0.222438 0.027286 -0.974565
vn 0.222438 0.027286 -0.974565
vn -0.623235 0.028570 -0.781512
vn -0.623235 0.028570 -0.781512
vn -0.999575 0.029141 -0.000000
vn -0.999575 0.029141 -0.000000
vn -0.623235 0.028570 0.781512
vn -0.623235 0.028570 0.781512
vn 0.222438 0.027286 0.974565
vn 0.222438 0.027286 0.974565
vn 0.900658 0.026257 0.433734
vn 0.900658 0.026257 0.433734
vn 0.900658 0.026257 -0.433734
vn 0.900658 0.026257 -0.433734
vn -0.054367 -0.997679 0.041009
vn -0.054367 -0.997679 0.041009
vn -0.054367 -0.997679 0.041009
vn -0.054367 -0.997679 0.041009
vn -0.054367 -0.997679 0.041009
vn -0.527201 0.711926 -0.463919
vn -0.527201 0.711926 -0.463919
vn -0.527201 0.711926 -0.463919
vn -0.497117 0.782475 0.374976
vn -0.497117 0.782475 0.374976
vn -0.497117 0.782475 0.374976
vn 0.301235 0.711926 0.634365
vn 0.301235 0.711926 0.634365
vn 0.301235 0.711926 0.634365
vn 0.697127 0.716872 0.010477
vn 0.697127 0.716872 0.010477
vn 0.697127 0.716872 0.010477
vn 0.181442 0.716872 -0.673182
vn 0.181442 0.716872 -0.673182
vn 0.181442 0.716872 -0.673182
vn 0.145489 -0.989360 -0.000000
vn 0.145489 -0.989360 -0.000000
vn 0.145489 -0.989360 -0.000000
vn 0.145489 -0.989360 -0.000000
vn 0.145489 -0.989360 -0.000000
vn -0.283033 0.716722 -0.637339
vn -0.283033 0.716722 -0.637339
vn -0.283033 0.716722 -0.637339
vn -0.688675 0.725070 0.000000
vn -0.688675 0.725070 0.000000
vn -0.688675 0.725070 0.000000
vn -0.283033 0.716722 0.637339
vn -0.283033 0.716722 0.637339
vn -0.283033 0.716722 0.637339
vn 0.402059 0.802681 0.440513
vn 0.402059 0.802681 0.440513
vn 0.402059 0.802681 0.440513
vn 0.402059 0.802681 -0.440513
vn 0.402059 0.802681 -0.440513
vn 0.402059 0.802681 -0.440513
vn -0.194864 -0.980830 0.001207
vn -0.194864 -0.980830 0.001207
vn -0.194864 -0.980830 0.001207
vn -0.194864 -0.980830 0.001207
vn -0.194864 -0.980830 0.001207
vn -0.095312 0.632622 -0.768573
vn -0.095312 0.632622 -0.768573
vn -0.095312 0.632622 -0.768573
vn -0.630137 0.776474 0.003902
vn -0.630137 0.776474 0.003902
vn -0.630137 0.776474 0.003902
vn -0.085787 0.632622 0.769695
vn -0.085787 0.632622 0.769695
vn -0.085787 0.632622 0.769695
vn 0.687595 0.545094 0.479672
vn 0.687595 0.545094 0.479672
vn 0.687595 0.545094 0.479672
vn 0.681603 0.545094 -0.488150
vn 0.681603 0.545094 -0.488150
vn 0.681603 0.545094 -0.488150
vn -0.026786 -0.999612 0.007680
vn -0.026786 -0.999612 0.007680
vn -0.026786 -0.999612 0.007680
vn -0.026786 -0.999612 0.007680
vn -0.026786 -0.999612 0.007680
vn -0.420119 0.556959 -0.716447
vn -0.420119 0.556959 -0.716447
vn -0.420119 0.556959 -0.716447
vn -0.753142 0.621412 0.215927
vn -0.753142 0.621412 0.215927
vn -0.753142 0.621412 0.215927
vn 0.023311 0.556959 0.830213
vn 0.023311 0.556959 0.830213
vn 0.023311 0.556959 0.830213
vn 0.743656 0.582458 0.328205
vn 0.743656 0.582458 0.328205
vn 0.743656 0.582458 0.328205
vn 0.456788 0.582458 -0.672375
vn 0.456788 0.582458 -0.672375
vn 0.456788 0.582458 -0.672375
vn -0.062122 -0.987286 -0.146309
vn -0.062122 -0.987286 -0.146309
vn -0.062122 -0.987287 -0.146309
vn -0.062122 -0.987286 -0.146309
vn -0.062122 -0.987286 -0.146309
vn -0.638677 0.581405 -0.504044
vn -0.638677 0.581405 -0.504044
vn -0.638677 0.581405 -0.504044
vn -0.591945 0.619909 0.515087
vn -0.591945 0.619909 0.515087
vn -0.591945 0.619909 0.515087
vn 0.277817 0.506804 0.816069
vn 0.277817 0.506804 0.816069
vn 0.277817 0.506804 0.816069
vn 0.838552 0.515033 0.177683
vn 0.838552 0.515033 0.177683
vn 0.838552 0.515033 0.177683
vn 0.272592 0.563471 -0.779868
vn 0.272592 0.563471 -0.779868
vn 0.272592 0.563471 -0.779868
vn 0.094427 -0.995189 -0.026129
vn 0.094427 -0.995189 -0.026129
vn 0.094427 -0.995189 -0.026129
vn 0.094427 -0.995189 -0.026129
vn 0.094427 -0.995189 -0.026129
vn -0.445047 0.642842 -0.623448
vn -0.445047 0.642842 -0.623448
vn -0.445047 0.642842 -0.623448
vn -0.701537 0.685685 0.194120
vn -0.701537 0.685685 0.194120
vn -0.701537 0.685685 0.194120
vn -0.061256 0.642842 0.763545
vn -0.061256 0.642842 0.763545
vn -0.061256 0.642842 0.763545
vn 0.643267 0.682239 0.347501
vn 0.643267 0.682239 0.347501
vn 0.643267 0.682239 0.347501
vn 0.373133 0.682239 -0.628746
vn 0.373133 0.682239 -0.628746
vn 0.373133 0.682239 -0.628746
vn -0.102250 -0.994705 0.010395
vn -0.102250 -0.994705 0.010395
vn -0.102250 -0.994705 0.010395
vn -0.102250 -0.994705 0.010395
vn -0.102250 -0.994704 0.010395
vn -0.287829 0.429458 -0.855991
vn -0.287829 0.429458 -0.855991
vn -0.287829 0.429458 -0.855991
vn -0.831925 0.548404 0.084576
vn -0.831925 0.548404 0.084576
vn -0.831925 0.548404 0.084576
vn -0.109675 0.429458 0.896403
vn -0.109675 0.429458 0.896403
vn -0.109675 0.429458 0.896402
vn 0.780016 0.364470 0.508661
vn 0.780016 0.364470 0.508661
vn 0.780017 0.364470 0.508661
vn 0.661692 0.364470 -0.655229
vn 0.661692 0.364470 -0.655229
vn 0.661692 0.364470 -0.655229
s 1
g pCylinder7
usemtl initialShadingGroup
f 17/34/1 18/35/2 9/17/3 8/16/4
s 2
f 18/35/5 19/36/6 10/18/7 9/17/8
s 3
f 19/36/9 20/37/10 11/19/11 10/18/12
s 4
f 20/37/13 21/38/14 12/20/15 11/19/16
s 5
f 21/38/17 22/39/18 13/21/19 12/20/20
s 6
f 22/39/21 23/40/22 14/22/23 13/21/24
s 7
f 23/40/25 17/33/26 8/23/27 14/22/28
s 8
f 2/2/29 1/1/30 15/31/31
f 3/3/32 2/2/29 15/31/31
f 4/4/33 3/3/32 15/31/31
f 5/5/34 4/4/33 15/31/31
f 6/6/35 5/5/34 15/31/31
f 7/7/36 6/6/35 15/31/31
f 1/1/30 7/7/36 15/31/31
s 9
f 8/29/37 9/28/38 16/32/39
f 9/28/38 10/27/40 16/32/39
f 10/27/40 11/26/41 16/32/39
f 11/26/41 12/25/42 16/32/39
f 12/25/42 13/24/43 16/32/39
f 13/24/43 14/30/44 16/32/39
f 14/30/44 8/29/37 16/32/39
s 1
f 24/42/45 25/43/46 18/35/2 17/34/1
s 2
f 25/43/47 26/44/48 19/36/6 18/35/5
s 3
f 26/44/49 27/45/50 20/37/10 19/36/9
s 4
f 27/45/51 28/46/52 21/38/14 20/37/13
s 5
f 28/46/53 29/47/54 22/39/18 21/38/17
s 6
f 29/47/55 30/48/56 23/40/22 22/39/21
s 7
f 30/48/57 24/41/58 17/33/26 23/40/25
s 1
f 31/50/59 32/51/60 25/43/46 24/42/45
s 2
f 32/51/61 33/52/62 26/44/48 25/43/47
s 3
f 33/52/63 34/53/64 27/45/50 26/44/49
s 4
f 34/53/65 35/54/66 28/46/52 27/45/51
s 5
f 35/54/67 36/55/68 29/47/54 28/46/53
s 6
f 36/55/69 37/56/70 30/48/56 29/47/55
s 7
f 37/56/71 31/49/72 24/41/58 30/48/57
s 1
f 38/58/73 39/59/74 32/51/60 31/50/59
s 2
f 39/59/75 40/60/76 33/52/62 32/51/61
s 3
f 40/60/77 41/61/78 34/53/64 33/52/63
s 4
f 41/61/79 42/62/80 35/54/66 34/53/65
s 5
f 42/62/81 43/63/82 36/55/68 35/54/67
s 6
f 43/63/83 44/64/84 37/56/70 36/55/69
s 7
f 44/64/85 38/57/86 31/49/72 37/56/71
s 1
f 45/66/87 46/67/88 72/96/89 66/90/90
s 2
f 46/67/91 47/68/92 71/95/93 72/96/94
s 3
f 47/68/95 48/69/96 70/94/97 71/95/98
s 4
f 48/69/99 49/70/100 69/93/101 70/94/102
s 5
f 49/70/103 50/71/104 68/92/105 69/93/106
s 6
f 50/71/107 51/72/108 67/91/109 68/92/110
s 7
f 51/72/111 45/65/112 66/89/113 67/91/114
s 1
f 52/74/115 53/75/116 46/67/88 45/66/87
s 2
f 53/75/117 54/76/118 47/68/92 46/67/91
s 3
f 54/76/119 55/77/120 48/69/96 47/68/95
s 4
f 55/77/121 56/78/122 49/70/100 48/69/99
s 5
f 56/78/123 57/79/124 50/71/104 49/70/103
s 6
f 57/79/125 58/80/126 51/72/108 50/71/107
s 7
f 58/80/127 52/73/128 45/65/112 51/72/111
s 1
f 59/82/129 60/83/130 53/75/116 52/74/115
s 2
f 60/83/131 61/84/132 54/76/118 53/75/117
s 3
f 61/84/133 62/85/134 55/77/120 54/76/119
s 4
f 62/85/135 63/86/136 56/78/122 55/77/121
s 5
f 63/86/137 64/87/138 57/79/124 56/78/123
s 6
f 64/87/139 65/88/140 58/80/126 57/79/125
s 7
f 65/88/141 59/81/142 52/73/128 58/80/127
s 1
f 1/8/143 2/9/144 60/83/130 59/82/129
s 2
f 2/9/145 3/10/146 61/84/132 60/83/131
s 3
f 3/10/147 4/11/148 62/85/134 61/84/133
s 4
f 4/11/149 5/12/150 63/86/136 62/85/135
s 5
f 5/12/151 6/13/152 64/87/138 63/86/137
s 6
f 6/13/153 7/14/154 65/88/140 64/87/139
s 7
f 7/14/155 1/15/156 59/81/142 65/88/141
f 67/91/114 66/89/113 38/57/86 44/64/85
s 6
f 68/92/110 67/91/109 44/64/84 43/63/83
s 5
f 69/93/106 68/92/105 43/63/82 42/62/81
s 4
f 70/94/102 69/93/101 42/62/80 41/61/79
s 3
f 71/95/98 70/94/97 41/61/78 40/60/77
s 2
f 72/96/94 71/95/93 40/60/76 39/59/75
s 1
f 66/90/90 72/96/89 39/59/74 38/58/73
s off
f 73/97/157 77/98/158 76/99/159 75/100/160 74/101/161
f 73/102/162 74/103/163 78/104/164
f 74/103/165 75/105/166 78/104/167
f 75/105/168 76/106/169 78/104/170
f 76/106/171 77/107/172 78/104/173
f 77/107/174 73/102/175 78/104/176
f 79/108/177 83/109/178 82/110/179 81/111/180 80/112/181
f 79/113/182 80/114/183 84/115/184
f 80/114/185 81/116/186 84/115/187
f 81/116/188 82/117/189 84/115/190
f 82/117/191 83/118/192 84/115/193
f 83/118/194 79/113/195 84/115/196
f 85/119/197 89/120/198 88/121/199 87/122/200 86/123/201
f 85/124/202 86/125/203 90/126/204
f 86/125/205 87/127/206 90/126/207
f 87/127/208 88/128/209 90/126/210
f 88/128/211 89/129/212 90/126/213
f 89/129/214 85/124/215 90/126/216
f 91/130/217 95/131/218 94/132/219 93/133/220 92/134/221
f 91/135/222 92/136/223 96/137/224
f 92/136/225 93/138/226 96/137/227
f 93/138/228 94/139/229 96/137/230
f 94/139/231 95/140/232 96/137/233
f 95/140/234 91/135/235 96/137/236
f 97/141/237 101/142/238 100/143/239 99/144/240 98/145/241
f 97/146/242 98/147/243 102/148/244
f 98/147/245 99/149/246 102/148/247
f 99/149/248 100/150/249 102/148/250
f 100/150/251 101/151/252 102/148/253
f 101/151/254 97/146/255 102/148/256
f 103/152/257 107/153/258 106/154/259 105/155/260 104/156/261
f 103/157/262 104/158/263 108/159/264
f 104/158/265 105/160/266 108/159/267
f 105/160/268 106/161/269 108/159/270
f 106/161/271 107/162/272 108/159/273
f 107/162/274 103/157/275 108/159/276
f 109/163/277 113/164/278 112/165/279 111/166/280 110/167/281
f 109/168/282 110/169/283 114/170/284
f 110/169/285 111/171/286 114/170/287
f 111/171/288 112/172/289 114/170/290
f 112/172/291 113/173/292 114/170/293
f 113/173/294 109/168/295 114/170/296
