# This file uses centimeters as units for non-parametric coordinates.

mtllib StonePillar1.mtl
g default
v -0.221208 0.896983 0.110615
v -0.110615 0.896983 0.221208
v -0.307381 1.096181 0.153706
v -0.153706 1.096181 0.307381
v 0.110615 0.896983 0.221208
v 0.221208 0.896983 0.110615
v 0.307381 1.096181 0.153706
v 0.153706 1.096181 0.307381
v 0.221208 0.896983 -0.110615
v 0.110615 0.896983 -0.221208
v 0.153706 1.096181 -0.307381
v 0.307381 1.096181 -0.153706
v -0.110615 0.896983 -0.221208
v -0.221208 0.896983 -0.110615
v -0.307381 1.096181 -0.153706
v -0.153706 1.096181 -0.307381
v -0.153706 5.041321 0.307381
v -0.307381 5.041321 0.153706
v 0.153706 5.041321 0.307381
v 0.307381 5.041321 0.153706
v 0.307381 5.041321 -0.153706
v 0.153706 5.041321 -0.307381
v -0.153706 5.041321 -0.307381
v -0.307381 5.041321 -0.153706
v -0.106513 5.226110 0.213006
v -0.213006 5.226110 0.106513
v 0.106513 5.226110 0.213006
v 0.213006 5.226110 0.106513
v 0.213006 5.226110 -0.106513
v 0.106513 5.226110 -0.213006
v -0.106513 5.226110 -0.213006
v -0.213006 5.226110 -0.106513
v -0.106513 5.750519 0.213006
v -0.213006 5.750519 0.106513
v 0.106513 5.750519 0.213006
v 0.213006 5.750519 0.106513
v 0.213006 5.750519 -0.106513
v 0.106513 5.750519 -0.213006
v -0.106513 5.750519 -0.213006
v -0.213006 5.750519 -0.106513
v -0.192319 5.343882 0.384601
v -0.384600 5.343882 0.192318
v -0.192319 5.637362 0.384601
v -0.384600 5.637362 0.192318
v 0.192319 5.343882 0.384601
v 0.192319 5.637362 0.384601
v 0.384600 5.343882 0.192318
v 0.384600 5.637362 0.192318
v 0.384600 5.343882 -0.192318
v 0.384600 5.637362 -0.192318
v 0.192319 5.343882 -0.384601
v 0.192319 5.637362 -0.384601
v -0.192319 5.343882 -0.384601
v -0.192319 5.637362 -0.384601
v -0.384600 5.343882 -0.192318
v -0.384600 5.637362 -0.192318
v -0.394480 5.886255 0.396615
v 0.396614 5.886255 0.394479
v 0.394480 5.886255 -0.396615
v -0.396614 5.886255 -0.394479
v -0.394480 6.086172 0.396615
v 0.396614 6.086172 0.394479
v 0.394480 6.086172 -0.396615
v -0.396614 6.086172 -0.394479
v 0.178093 0.815134 0.356151
v -0.178093 0.815134 0.356151
v 0.356150 0.815134 -0.178093
v 0.356150 0.815134 0.178093
v -0.178093 0.815134 -0.356151
v 0.178093 0.815134 -0.356151
v -0.356150 0.815134 0.178093
v -0.356150 0.815134 -0.178093
v 0.178093 0.523612 0.356151
v -0.178093 0.523612 0.356151
v 0.356150 0.523612 -0.178093
v 0.356150 0.523612 0.178093
v -0.178093 0.523612 -0.356151
v 0.178093 0.523612 -0.356151
v -0.356150 0.523612 0.178093
v -0.356150 0.523612 -0.178093
v -0.500000 0.055413 0.500000
v 0.500000 0.055413 0.500000
v 0.500000 0.277381 0.500000
v -0.500000 0.277381 0.500000
v -0.500000 0.277381 -0.500000
v 0.500000 0.277381 -0.500000
v 0.500000 0.055413 -0.500000
v -0.500000 0.055413 -0.500000
v 0.110615 0.438296 0.221208
v -0.110615 0.438296 0.221208
v 0.221208 0.438296 -0.110615
v 0.221208 0.438296 0.110615
v -0.110615 0.438296 -0.221208
v 0.110615 0.438296 -0.221208
v -0.221208 0.438296 0.110615
v -0.221208 0.438296 -0.110615
v -0.153706 1.981711 0.307381
v -0.153706 3.128993 0.307381
v -0.153706 4.276276 0.307381
v 0.153706 4.276276 0.307381
v 0.153706 3.128993 0.307381
v 0.153706 1.981711 0.307381
v 0.307381 4.276276 0.153706
v 0.307381 3.128993 0.153706
v 0.307381 1.981711 0.153706
v 0.307381 4.276276 -0.153706
v 0.307381 3.128993 -0.153706
v 0.307381 1.981711 -0.153706
v 0.153706 4.276276 -0.307381
v 0.153706 3.128993 -0.307381
v 0.153706 1.981711 -0.307381
v -0.153706 4.276276 -0.307381
v -0.153706 3.128993 -0.307381
v -0.153706 1.981711 -0.307381
v -0.307381 4.276276 -0.153706
v -0.307381 3.128993 -0.153706
v -0.307381 1.981711 -0.153706
v -0.307381 4.276276 0.153706
v -0.307381 3.128993 0.153706
v -0.307381 1.981711 0.153706
vt 0.898935 0.090278
vt 0.739843 0.086554
vt 0.641819 0.264883
vt 0.641925 0.062956
vt 0.439998 0.062850
vt 0.439892 0.264777
vt 0.736630 0.245769
vt 0.895792 0.249430
vt 0.582176 0.185550
vt 0.155691 0.188693
vt 0.519224 0.205136
vt 0.132056 0.117498
vt 0.499641 0.142184
vt 0.060863 0.141148
vt 0.562593 0.122598
vt 0.084498 0.212343
vt 0.809337 0.363349
vt 0.325450 0.125754
vt 0.350184 0.152453
vt 0.837413 0.367273
vt 0.856989 0.368901
vt 0.349411 0.178073
vt 0.322728 0.202833
vt 0.884769 0.369671
vt 0.904288 0.369690
vt 0.297103 0.202083
vt 0.272328 0.175387
vt 0.932251 0.368197
vt 0.952166 0.366187
vt 0.273076 0.149756
vt 0.299791 0.125008
vt 0.789181 0.358655
vt 0.964973 0.836935
vt 0.959611 0.963841
vt 0.832756 0.959964
vt 0.837137 0.832205
vt 0.977422 0.763165
vt 0.809278 0.757397
vt 0.351870 0.925355
vt 0.334255 0.907170
vt 0.837411 0.753048
vt 0.387871 0.925934
vt 0.856734 0.751417
vt 0.406052 0.908313
vt 0.884104 0.750480
vt 0.406640 0.872315
vt 0.903212 0.750700
vt 0.389025 0.854130
vt 0.930484 0.752638
vt 0.353024 0.853551
vt 0.949787 0.755520
vt 0.334843 0.871172
vt 0.490122 0.968642
vt 0.335232 0.960072
vt 0.480086 0.915326
vt 0.502581 0.938760
vt 0.405227 0.960310
vt 0.482161 0.869016
vt 0.440767 0.924958
vt 0.505575 0.846518
vt 0.441022 0.854968
vt 0.551885 0.848572
vt 0.405663 0.819413
vt 0.574402 0.871977
vt 0.335668 0.819175
vt 0.572342 0.918313
vt 0.300128 0.854526
vt 0.548911 0.940830
vt 0.686665 0.930745
vt 0.669389 0.912961
vt 0.723101 0.931469
vt 0.740884 0.914191
vt 0.741610 0.877756
vt 0.724333 0.859973
vt 0.687898 0.859249
vt 0.670115 0.876527
vt 0.985632 0.812685
vt 0.983922 0.984659
vt 0.812518 0.984612
vt 0.812485 0.811956
vt 0.334752 0.098529
vt 0.376920 0.143883
vt 0.376645 0.187412
vt 0.331330 0.229557
vt 0.287802 0.229322
vt 0.245605 0.183999
vt 0.245824 0.140452
vt 0.291194 0.098280
vt 0.189754 0.204647
vt 0.189196 0.123986
vt 0.148004 0.083433
vt 0.067337 0.084009
vt 0.026800 0.125194
vt 0.027358 0.205854
vt 0.068550 0.246407
vt 0.149217 0.245831
vt 0.801434 0.681249
vt 0.800522 0.566347
vt 0.831145 0.566276
vt 0.831597 0.679183
vt 0.801392 0.451988
vt 0.832042 0.453626
vt 0.780221 0.682737
vt 0.853085 0.678140
vt 0.883520 0.677443
vt 0.905117 0.677609
vt 0.935726 0.678714
vt 0.957372 0.680144
vt 0.853704 0.454435
vt 0.884348 0.454888
vt 0.906001 0.454783
vt 0.936540 0.453928
vt 0.958080 0.452946
vt 0.988150 0.451379
vt 0.852935 0.566257
vt 0.883867 0.566308
vt 0.905751 0.566380
vt 0.936619 0.566560
vt 0.958319 0.566703
vt 0.779045 0.566422
vt 0.632757 0.968249
vt 0.632609 0.822618
vt 0.778241 0.822469
vt 0.778389 0.968100
vt 0.514147 0.916776
vt 0.537950 0.918041
vt 0.550354 0.906772
vt 0.551616 0.882963
vt 0.540346 0.870570
vt 0.516545 0.869306
vt 0.504145 0.880571
vt 0.502879 0.904373
vt 0.801631 0.782651
vt 0.943635 0.774875
vt 0.926557 0.772428
vt 0.901976 0.771116
vt 0.883661 0.770785
vt 0.858612 0.771893
vt 0.840460 0.773274
vt 0.816741 0.777368
vt 0.299872 0.924516
vt 0.563128 0.968733
vt 0.602237 0.930718
vt 0.602292 0.857715
vt 0.564258 0.818656
vt 0.491325 0.818614
vt 0.452263 0.856583
vt 0.452158 0.929518
vt 0.929228 0.347769
vt 0.947052 0.345030
vt 0.884711 0.349026
vt 0.903570 0.347765
vt 0.840390 0.346736
vt 0.858997 0.346997
vt 0.969478 0.339800
vt 0.816311 0.342336
vt 0.981342 0.360129
vt 0.779823 0.450587
vt 0.788939 0.762552
vt 0.988003 0.682742
vt 0.988733 0.566871
vt 0.964341 0.781533
vt 0.800845 0.337961
vt 0.060847 0.188674
vt 0.520393 0.121915
vt 0.084528 0.117492
vt 0.498956 0.184383
vt 0.155707 0.141167
vt 0.561424 0.205819
vt 0.132026 0.212349
vt 0.582861 0.143351
vt 0.202741 0.202621
vt 0.202596 0.127596
vt 0.349919 0.272469
vt 0.275022 0.272585
vt 0.419866 0.125404
vt 0.419888 0.200305
vt 0.272726 0.055338
vt 0.347700 0.055334
vt 0.921526 0.063669
vt 0.922449 0.271851
vt 0.713331 0.063952
vt 0.713962 0.272336
vn 0.000000 0.000000 1.000000
vn 0.000000 0.000000 1.000000
vn 0.000000 0.000000 1.000000
vn 0.000000 0.000000 1.000000
vn 0.000000 0.000000 -1.000000
vn 0.000000 0.000000 -1.000000
vn 0.000000 0.000000 -1.000000
vn 0.000000 0.000000 -1.000000
vn 0.000000 -1.000000 0.000000
vn 0.000000 -1.000000 0.000000
vn 0.000000 -1.000000 0.000000
vn 0.000000 -1.000000 0.000000
vn 1.000000 0.000000 0.000000
vn 1.000000 0.000000 0.000000
vn 1.000000 0.000000 0.000000
vn 1.000000 0.000000 0.000000
vn -1.000000 0.000000 0.000000
vn -1.000000 0.000000 0.000000
vn -1.000000 0.000000 0.000000
vn -1.000000 0.000000 0.000000
vn -0.265428 0.926874 0.265428
vn 0.265428 0.926874 0.265428
vn 0.023599 0.879763 0.474826
vn -0.023599 0.879763 0.474826
vn 0.265428 0.926874 -0.265428
vn 0.474826 0.879763 -0.023599
vn 0.474826 0.879763 0.023599
vn -0.265428 0.926874 -0.265428
vn -0.023599 0.879763 -0.474826
vn 0.023599 0.879763 -0.474826
vn -0.474826 0.879763 0.023599
vn -0.474826 0.879763 -0.023599
vn 0.000000 -0.062507 0.998045
vn 0.000000 -0.397040 0.917801
vn 0.000000 -0.397040 0.917801
vn 0.000000 -0.062507 0.998045
vn 0.998045 -0.062507 0.000000
vn 0.917801 -0.397040 0.000000
vn 0.917801 -0.397040 0.000000
vn 0.998045 -0.062507 0.000000
vn 0.000000 -0.062507 -0.998045
vn 0.000000 -0.397040 -0.917801
vn 0.000000 -0.397040 -0.917801
vn 0.000000 -0.062507 -0.998045
vn -0.998045 -0.062507 0.000000
vn -0.917801 -0.397040 0.000000
vn -0.917801 -0.397040 0.000000
vn -0.998045 -0.062507 0.000000
vn 0.000000 1.000000 0.000000
vn 0.000000 1.000000 0.000000
vn 0.000000 1.000000 0.000000
vn 0.000000 1.000000 0.000000
vn -0.642679 -0.417047 0.642678
vn -0.642679 -0.417047 0.642678
vn -0.705439 -0.068646 0.705438
vn -0.705439 -0.068646 0.705438
vn 0.642679 -0.417047 0.642678
vn 0.642679 -0.417047 0.642678
vn 0.705439 -0.068646 0.705438
vn 0.705439 -0.068646 0.705438
vn 0.642679 -0.417047 -0.642678
vn 0.642679 -0.417047 -0.642678
vn 0.705439 -0.068646 -0.705438
vn 0.705439 -0.068646 -0.705438
vn -0.642679 -0.417047 -0.642678
vn -0.642679 -0.417047 -0.642678
vn -0.705439 -0.068646 -0.705438
vn -0.705439 -0.068646 -0.705438
vn -0.704616 0.083877 0.704615
vn -0.704616 0.083877 0.704615
vn -0.621741 0.476317 0.621739
vn -0.621741 0.476317 0.621739
vn 0.000000 0.075974 0.997110
vn 0.000000 0.075974 0.997110
vn 0.000000 0.454832 0.890577
vn 0.000000 0.454832 0.890577
vn 0.704616 0.083877 0.704615
vn 0.704616 0.083877 0.704615
vn 0.621741 0.476317 0.621739
vn 0.621741 0.476317 0.621739
vn 0.997110 0.075974 0.000000
vn 0.997110 0.075974 0.000000
vn 0.890576 0.454834 0.000000
vn 0.890576 0.454834 0.000000
vn 0.704616 0.083877 -0.704615
vn 0.704616 0.083877 -0.704615
vn 0.621741 0.476317 -0.621739
vn 0.621741 0.476317 -0.621739
vn 0.000000 0.075974 -0.997110
vn 0.000000 0.075974 -0.997110
vn 0.000000 0.454832 -0.890577
vn 0.000000 0.454832 -0.890577
vn -0.704616 0.083877 -0.704615
vn -0.704616 0.083877 -0.704615
vn -0.621741 0.476317 -0.621739
vn -0.621741 0.476317 -0.621739
vn -0.997110 0.075974 0.000000
vn -0.997110 0.075974 0.000000
vn -0.890576 0.454834 0.000000
vn -0.890576 0.454834 0.000000
vn -0.707112 0.000000 0.707102
vn -0.707112 0.000000 0.707102
vn -0.707112 0.000000 0.707102
vn -0.707112 0.000000 0.707102
vn 0.000000 0.000000 1.000000
vn 0.000000 0.000000 1.000000
vn 0.000000 0.000000 1.000000
vn 0.000000 0.000000 1.000000
vn 0.707112 0.000000 0.707102
vn 0.707112 0.000000 0.707102
vn 0.707112 0.000000 0.707102
vn 0.707112 0.000000 0.707102
vn 1.000000 0.000000 0.000000
vn 1.000000 0.000000 0.000000
vn 1.000000 0.000000 0.000000
vn 1.000000 0.000000 0.000000
vn 0.707112 0.000000 -0.707102
vn 0.707112 0.000000 -0.707102
vn 0.707112 0.000000 -0.707102
vn 0.707112 0.000000 -0.707102
vn 0.000000 0.000000 -1.000000
vn 0.000000 0.000000 -1.000000
vn 0.000000 0.000000 -1.000000
vn 0.000000 0.000000 -1.000000
vn -0.707112 0.000000 -0.707102
vn -0.707112 0.000000 -0.707102
vn -0.707112 0.000000 -0.707102
vn -0.707112 0.000000 -0.707102
vn -1.000000 0.000000 0.000000
vn -1.000000 0.000000 0.000000
vn -1.000000 0.000000 0.000000
vn -1.000000 0.000000 0.000000
vn -0.384142 -0.839567 0.384139
vn -0.384142 -0.839567 0.384139
vn -0.384142 -0.839567 0.384139
vn -0.384142 -0.839567 0.384139
vn -0.373347 0.849251 0.373343
vn -0.373347 0.849251 0.373343
vn -0.373347 0.849251 0.373343
vn -0.373347 0.849251 0.373343
vn 0.000000 -0.824489 0.565878
vn 0.000000 -0.824489 0.565878
vn 0.000000 -0.824489 0.565878
vn 0.000000 -0.824489 0.565878
vn 0.000000 0.834823 0.550519
vn 0.000000 0.834823 0.550519
vn 0.000000 0.834823 0.550519
vn 0.000000 0.834823 0.550519
vn 0.384142 -0.839567 0.384139
vn 0.384142 -0.839567 0.384139
vn 0.384142 -0.839567 0.384139
vn 0.384142 -0.839567 0.384139
vn 0.373347 0.849250 0.373344
vn 0.373347 0.849251 0.373344
vn 0.373347 0.849251 0.373344
vn 0.373347 0.849250 0.373344
vn 0.565880 -0.824487 0.000000
vn 0.565880 -0.824487 0.000000
vn 0.565880 -0.824487 0.000000
vn 0.565880 -0.824487 0.000000
vn 0.550521 0.834821 0.000000
vn 0.550521 0.834821 0.000000
vn 0.550521 0.834821 0.000000
vn 0.550521 0.834821 0.000000
vn 0.384142 -0.839567 -0.384139
vn 0.384142 -0.839567 -0.384139
vn 0.384142 -0.839567 -0.384139
vn 0.384142 -0.839567 -0.384139
vn 0.373347 0.849251 -0.373343
vn 0.373347 0.849251 -0.373343
vn 0.373347 0.849251 -0.373343
vn 0.373347 0.849251 -0.373343
vn 0.000000 -0.824489 -0.565878
vn 0.000000 -0.824489 -0.565878
vn 0.000000 -0.824489 -0.565878
vn 0.000000 -0.824489 -0.565878
vn 0.000000 0.834823 -0.550519
vn 0.000000 0.834823 -0.550519
vn 0.000000 0.834823 -0.550519
vn 0.000000 0.834823 -0.550519
vn -0.384142 -0.839567 -0.384139
vn -0.384142 -0.839567 -0.384139
vn -0.384142 -0.839567 -0.384139
vn -0.384142 -0.839567 -0.384139
vn -0.373347 0.849250 -0.373344
vn -0.373347 0.849251 -0.373344
vn -0.373347 0.849251 -0.373344
vn -0.373347 0.849250 -0.373344
vn -0.565880 -0.824487 0.000000
vn -0.565880 -0.824487 0.000000
vn -0.565880 -0.824487 0.000000
vn -0.565880 -0.824487 0.000000
vn -0.550521 0.834821 0.000000
vn -0.550521 0.834821 0.000000
vn -0.550521 0.834821 0.000000
vn -0.550521 0.834821 0.000000
vn -0.266596 -0.926203 0.266597
vn -0.266596 -0.926203 0.266597
vn -0.266596 -0.926203 0.266597
vn 0.001269 -0.802463 0.596700
vn 0.001269 -0.802463 0.596700
vn 0.001269 -0.802463 0.596700
vn 0.001269 -0.802463 0.596700
vn 0.266597 -0.926204 0.266594
vn 0.266597 -0.926204 0.266594
vn 0.266597 -0.926204 0.266594
vn 0.596698 -0.802465 -0.001267
vn 0.596698 -0.802465 -0.001267
vn 0.596698 -0.802465 -0.001267
vn 0.596698 -0.802465 -0.001267
vn 0.266596 -0.926203 -0.266597
vn 0.266596 -0.926203 -0.266597
vn 0.266596 -0.926203 -0.266597
vn -0.001269 -0.802463 -0.596700
vn -0.001269 -0.802463 -0.596700
vn -0.001269 -0.802463 -0.596700
vn -0.001269 -0.802463 -0.596700
vn -0.266597 -0.926204 -0.266594
vn -0.266597 -0.926204 -0.266594
vn -0.266597 -0.926204 -0.266594
vn -0.596698 -0.802465 0.001267
vn -0.596698 -0.802465 0.001267
vn -0.596698 -0.802465 0.001267
vn -0.596698 -0.802465 0.001267
vn 0.002700 0.000000 0.999996
vn 0.002700 0.000000 0.999996
vn 0.002700 0.000000 0.999996
vn 0.002700 0.000000 0.999996
vn 0.999996 0.000000 -0.002698
vn 0.999996 0.000000 -0.002698
vn 0.999996 0.000000 -0.002698
vn 0.999996 0.000000 -0.002698
vn -0.002700 0.000000 -0.999996
vn -0.002700 0.000000 -0.999996
vn -0.002700 0.000000 -0.999996
vn -0.002700 0.000000 -0.999996
vn -0.999996 0.000000 0.002698
vn -0.999996 0.000000 0.002698
vn -0.999996 0.000000 0.002698
vn -0.999996 0.000000 0.002698
vn 0.000000 0.855014 0.518604
vn 0.000000 0.855014 0.518604
vn 0.000000 0.855014 0.518604
vn 0.000000 0.855014 0.518604
vn 0.518605 0.855014 0.000000
vn 0.518605 0.855014 0.000000
vn 0.518605 0.855014 0.000000
vn 0.518605 0.855014 0.000000
vn 0.000000 0.855014 -0.518604
vn 0.000000 0.855014 -0.518604
vn 0.000000 0.855014 -0.518604
vn 0.000000 0.855014 -0.518604
vn -0.518605 0.855014 0.000000
vn -0.518605 0.855014 0.000000
vn -0.518605 0.855014 0.000000
vn -0.518605 0.855014 0.000000
vn -0.351012 0.868090 0.351012
vn -0.351012 0.868090 0.351012
vn -0.351012 0.868091 0.351012
vn -0.351012 0.868091 0.351012
vn 0.351012 0.868090 0.351012
vn 0.351012 0.868090 0.351012
vn 0.351012 0.868090 0.351012
vn 0.351012 0.868091 0.351012
vn 0.351012 0.868090 -0.351012
vn 0.351012 0.868090 -0.351012
vn 0.351012 0.868091 -0.351012
vn 0.351012 0.868091 -0.351012
vn -0.351012 0.868090 -0.351012
vn -0.351012 0.868090 -0.351012
vn -0.351012 0.868090 -0.351012
vn -0.351012 0.868091 -0.351012
vn 0.000000 0.000000 1.000000
vn 0.000000 0.000000 1.000000
vn 0.000000 0.000000 1.000000
vn 0.000000 0.000000 1.000000
vn 1.000000 0.000000 0.000000
vn 1.000000 0.000000 0.000000
vn 1.000000 0.000000 0.000000
vn 1.000000 0.000000 0.000000
vn 0.000000 0.000000 -1.000000
vn 0.000000 0.000000 -1.000000
vn 0.000000 0.000000 -1.000000
vn 0.000000 0.000000 -1.000000
vn -1.000000 0.000000 0.000000
vn -1.000000 0.000000 0.000000
vn -1.000000 0.000000 0.000000
vn -1.000000 0.000000 0.000000
vn -0.707107 0.000000 0.707106
vn -0.707107 0.000000 0.707106
vn -0.707107 0.000000 0.707106
vn -0.707107 0.000000 0.707106
vn 0.707107 0.000000 0.707106
vn 0.707107 0.000000 0.707106
vn 0.707107 0.000000 0.707106
vn 0.707107 0.000000 0.707106
vn 0.707107 0.000000 -0.707106
vn 0.707107 0.000000 -0.707106
vn 0.707107 0.000000 -0.707106
vn 0.707107 0.000000 -0.707106
vn -0.707107 0.000000 -0.707106
vn -0.707107 0.000000 -0.707106
vn -0.707107 0.000000 -0.707106
vn -0.707107 0.000000 -0.707106
vn 0.000000 -0.845238 0.534390
vn 0.000000 -0.845238 0.534390
vn 0.000000 -0.845238 0.534390
vn 0.000000 -0.845238 0.534390
vn 0.534391 -0.845238 0.000000
vn 0.534391 -0.845238 0.000000
vn 0.534391 -0.845238 0.000000
vn 0.534391 -0.845238 0.000000
vn 0.000000 -0.845238 -0.534390
vn 0.000000 -0.845238 -0.534390
vn 0.000000 -0.845238 -0.534390
vn 0.000000 -0.845238 -0.534390
vn -0.534391 -0.845238 0.000000
vn -0.534391 -0.845238 0.000000
vn -0.534391 -0.845238 0.000000
vn -0.534391 -0.845238 0.000000
vn -0.362042 -0.858983 0.362041
vn -0.362042 -0.858983 0.362041
vn -0.362042 -0.858983 0.362041
vn -0.362042 -0.858983 0.362041
vn 0.362042 -0.858983 0.362042
vn 0.362042 -0.858983 0.362042
vn 0.362042 -0.858983 0.362042
vn 0.362042 -0.858983 0.362042
vn 0.362042 -0.858983 -0.362041
vn 0.362042 -0.858983 -0.362041
vn 0.362042 -0.858983 -0.362041
vn 0.362042 -0.858983 -0.362041
vn -0.362042 -0.858983 -0.362042
vn -0.362042 -0.858983 -0.362042
vn -0.362042 -0.858983 -0.362042
vn -0.362042 -0.858983 -0.362042
vn 0.000000 0.000000 1.000000
vn 0.000000 0.000000 1.000000
vn 0.000000 0.000000 1.000000
vn 0.000000 0.000000 1.000000
vn 0.000000 0.000000 1.000000
vn 0.000000 0.000000 1.000000
vn -0.707107 0.000000 0.707106
vn -0.707107 0.000000 0.707106
vn 0.707107 0.000000 0.707106
vn 0.707107 0.000000 0.707106
vn 1.000000 0.000000 0.000000
vn 1.000000 0.000000 0.000000
vn 0.707107 0.000000 -0.707106
vn 0.707107 0.000000 -0.707106
vn 0.000000 0.000000 -1.000000
vn 0.000000 0.000000 -1.000000
vn -0.707107 0.000000 -0.707106
vn -0.707107 0.000000 -0.707106
vn -1.000000 0.000000 0.000000
vn -1.000000 0.000000 0.000000
vn 0.707107 0.000000 0.707106
vn 0.707107 0.000000 0.707106
vn 1.000000 0.000000 0.000000
vn 1.000000 0.000000 0.000000
vn 0.707107 0.000000 -0.707106
vn 0.707107 0.000000 -0.707106
vn 0.000000 0.000000 -1.000000
vn 0.000000 0.000000 -1.000000
vn -0.707107 0.000000 -0.707106
vn -0.707107 0.000000 -0.707106
vn -1.000000 0.000000 0.000000
vn -1.000000 0.000000 0.000000
vn -0.707107 0.000000 0.707106
vn -0.707107 0.000000 0.707106
vn 0.707107 0.000000 0.707106
vn 0.707107 0.000000 0.707106
vn 1.000000 0.000000 0.000000
vn 1.000000 0.000000 0.000000
vn 0.707107 0.000000 -0.707106
vn 0.707107 0.000000 -0.707106
vn 0.000000 0.000000 -1.000000
vn 0.000000 0.000000 -1.000000
vn -0.707107 0.000000 -0.707106
vn -0.707107 0.000000 -0.707106
vn -1.000000 0.000000 0.000000
vn -1.000000 0.000000 0.000000
vn -0.707107 0.000000 0.707106
vn -0.707107 0.000000 0.707106
s off
g pCube113
usemtl initialShadingGroup
f 81/1/1 82/2/2 83/182/3 84/180/4
f 85/181/5 86/183/6 87/7/7 88/8/8
f 88/8/9 87/7/10 82/2/11 81/1/12
f 82/2/13 87/7/14 86/183/15 83/182/16
f 88/8/17 81/1/18 84/180/19 85/181/20
s 1
f 84/4/21 83/3/22 89/9/23 90/171/24
f 83/3/22 86/6/25 91/11/26 92/169/27
f 86/6/25 85/5/28 93/13/29 94/167/30
f 85/5/28 84/4/21 95/15/31 96/165/32
s 4
f 4/17/33 2/156/34 5/153/35 8/20/36
s 5
f 7/21/37 6/154/38 9/151/39 12/24/40
s 6
f 11/25/41 10/152/42 13/149/43 16/28/44
s 7
f 15/29/45 14/150/46 1/155/47 3/157/48
s off
f 61/33/49 62/34/50 63/35/51 64/36/52
s 8
f 1/163/53 2/156/54 4/17/55 3/32/56
s 9
f 5/153/57 6/154/58 7/21/59 8/20/60
s 10
f 9/151/61 10/152/62 11/25/63 12/24/64
s 11
f 13/149/65 14/150/66 15/29/67 16/28/68
s 1
f 95/15/31 84/4/21 90/171/24
f 89/9/23 83/3/22 92/169/27
f 91/11/26 86/6/25 94/167/30
f 93/13/29 85/5/28 96/165/32
s 8
f 18/159/69 17/38/70 25/140/71 26/133/72
s 4
f 17/38/73 19/41/74 27/139/75 25/140/76
s 9
f 19/41/77 20/43/78 28/138/79 27/139/80
s 5
f 20/43/81 21/45/82 29/137/83 28/138/84
s 10
f 21/45/85 22/47/86 30/136/87 29/137/88
s 6
f 22/47/89 23/49/90 31/135/91 30/136/92
s 11
f 23/49/93 24/51/94 32/134/95 31/135/96
s 7
f 24/51/97 18/37/98 26/162/99 32/134/100
s off
f 42/53/101 41/148/102 43/55/103 44/56/104
f 41/148/105 45/147/106 46/58/107 43/55/108
f 45/147/109 47/146/110 48/60/111 46/58/112
f 47/146/113 49/145/114 50/62/115 48/60/116
f 49/145/117 51/144/118 52/64/119 50/62/120
f 51/144/121 53/143/122 54/66/123 52/64/124
f 53/143/125 55/142/126 56/68/127 54/66/128
f 55/142/129 42/53/130 44/56/131 56/68/132
f 26/40/133 25/39/134 41/54/135 42/141/136
f 33/132/137 34/125/138 44/56/139 43/55/140
f 25/39/141 27/42/142 45/57/143 41/54/144
f 35/131/145 33/132/146 43/55/147 46/58/148
f 27/42/149 28/44/150 47/59/151 45/57/152
f 36/130/153 35/131/154 46/58/155 48/60/156
f 28/44/157 29/46/158 49/61/159 47/59/160
f 37/129/161 36/130/162 48/60/163 50/62/164
f 29/46/165 30/48/166 51/63/167 49/61/168
f 38/128/169 37/129/170 50/62/171 52/64/172
f 30/48/173 31/50/174 53/65/175 51/63/176
f 39/127/177 38/128/178 52/64/179 54/66/180
f 31/50/181 32/52/182 55/67/183 53/65/184
f 40/126/185 39/127/186 54/66/187 56/68/188
f 32/52/189 26/40/190 42/141/191 55/67/192
f 34/125/193 40/126/194 56/68/195 44/56/196
f 34/70/197 33/69/198 57/121/199
f 33/69/200 35/71/201 58/124/202 57/121/203
f 35/71/204 36/72/205 58/124/206
f 36/72/207 37/73/208 59/123/209 58/124/210
f 37/73/211 38/74/212 59/123/213
f 38/74/214 39/75/215 60/122/216 59/123/217
f 39/75/218 40/76/219 60/122/220
f 40/76/221 34/70/222 57/121/223 60/122/224
f 57/77/225 58/78/226 62/34/227 61/33/228
f 58/78/229 59/79/230 63/35/231 62/34/232
f 59/79/233 60/80/234 64/36/235 63/35/236
f 60/80/237 57/77/238 61/33/239 64/36/240
f 5/19/241 2/18/242 66/81/243 65/82/244
f 9/23/245 6/22/246 68/83/247 67/84/248
f 13/27/249 10/26/250 70/85/251 69/86/252
f 1/31/253 14/30/254 72/87/255 71/88/256
f 2/18/257 1/31/258 71/88/259 66/81/260
f 6/22/261 5/19/262 65/82/263 68/83/264
f 10/26/265 9/23/266 67/84/267 70/85/268
f 14/30/269 13/27/270 69/86/271 72/87/272
f 65/82/273 66/81/274 74/179/275 73/176/276
f 67/84/277 68/83/278 76/177/279 75/174/280
f 69/86/281 70/85/282 78/175/283 77/172/284
f 71/88/285 72/87/286 80/173/287 79/178/288
f 66/81/289 71/88/290 79/178/291 74/179/292
f 68/83/293 65/82/294 73/176/295 76/177/296
f 70/85/297 67/84/298 75/174/299 78/175/300
f 72/87/301 69/86/302 77/172/303 80/173/304
f 73/90/305 74/89/306 90/10/307 89/168/308
f 75/92/309 76/91/310 92/12/311 91/166/312
f 77/94/313 78/93/314 94/14/315 93/164/316
f 79/96/317 80/95/318 96/16/319 95/170/320
f 74/89/321 79/96/322 95/170/323 90/10/324
f 76/91/325 73/90/326 89/168/327 92/12/328
f 78/93/329 75/92/330 91/166/331 94/14/332
f 80/95/333 77/94/334 93/164/335 96/16/336
s 4
f 99/97/337 98/98/338 101/99/339 100/100/340
f 98/98/338 97/101/341 102/102/342 101/99/339
s 8
f 118/103/343 99/97/344 17/38/70 18/159/69
s 4
f 99/97/337 100/100/340 19/41/74 17/38/73
s 9
f 100/100/345 103/104/346 20/43/78 19/41/77
s 5
f 103/104/347 106/105/348 21/45/82 20/43/81
s 10
f 106/105/349 109/106/350 22/47/86 21/45/85
s 6
f 109/106/351 112/107/352 23/49/90 22/47/89
s 11
f 112/107/353 115/108/354 24/51/94 23/49/93
s 7
f 115/108/355 118/160/356 18/37/98 24/51/97
s 4
f 4/17/33 8/20/36 102/102/342 97/101/341
s 9
f 8/20/60 7/21/59 105/109/357 102/102/358
s 5
f 7/21/37 12/24/40 108/110/359 105/109/360
s 10
f 12/24/64 11/25/63 111/111/361 108/110/362
s 6
f 11/25/41 16/28/44 114/112/363 111/111/364
s 11
f 16/28/68 15/29/67 117/113/365 114/112/366
s 7
f 15/29/45 3/157/48 120/114/367 117/113/368
s 8
f 3/32/56 4/17/55 97/101/369 120/158/370
s 9
f 100/100/345 101/99/371 104/115/372 103/104/346
f 101/99/371 102/102/358 105/109/357 104/115/372
s 5
f 103/104/347 104/115/373 107/116/374 106/105/348
f 104/115/373 105/109/360 108/110/359 107/116/374
s 10
f 106/105/349 107/116/375 110/117/376 109/106/350
f 107/116/375 108/110/362 111/111/361 110/117/376
s 6
f 109/106/351 110/117/377 113/118/378 112/107/352
f 110/117/377 111/111/364 114/112/363 113/118/378
s 11
f 112/107/353 113/118/379 116/119/380 115/108/354
f 113/118/379 114/112/366 117/113/365 116/119/380
s 7
f 115/108/355 116/119/381 119/161/382 118/160/356
f 116/119/381 117/113/368 120/114/367 119/161/382
s 8
f 97/101/369 98/98/383 119/120/384 120/158/370
f 98/98/383 99/97/344 118/103/343 119/120/384
