# This file uses centimeters as units for non-parametric coordinates.

mtllib StoneTable.mtl
g default
v -0.500000 0.070250 1.049252
v 0.500000 0.070250 1.049252
v -0.500000 0.591878 1.049252
v 0.500000 0.591878 1.049252
v -0.500000 0.591878 -1.049252
v 0.500000 0.591878 -1.049252
v -0.500000 0.070250 -1.049252
v 0.500000 0.070250 -1.049252
v -0.630810 0.591878 1.185860
v 0.630810 0.591878 1.185860
v 0.630810 0.789013 1.185860
v -0.630810 0.789013 1.185860
v 0.630810 0.591878 -1.185860
v 0.630810 0.789013 -1.185860
v -0.630810 0.591878 -1.185860
v -0.630810 0.789013 -1.185860
v -0.500000 0.556087 -0.018551
v -0.630810 0.556087 -0.020966
v -0.630810 0.753222 -0.020966
v 0.630810 0.753222 -0.020966
v 0.630810 0.556087 -0.020966
v 0.500000 0.556087 -0.018551
v 0.500000 0.070250 -0.018551
v -0.500000 0.070250 -0.018551
v -0.575313 0.070250 -1.129463
v 0.575313 0.070250 -1.129463
v 0.575313 0.000790 -1.129463
v -0.575313 0.000790 -1.129463
v 0.575313 0.070250 -0.019969
v 0.575313 0.000790 -0.019969
v -0.575313 0.070250 -0.019969
v -0.575313 0.000790 -0.019969
v 0.575313 0.070250 1.129463
v 0.575313 0.000790 1.129463
v -0.575313 0.070250 1.129463
v -0.575313 0.000790 1.129463
vt 0.911630 0.779394
vt 0.701664 0.800576
vt 0.421338 0.376798
vt 0.585959 0.376659
vt 0.657227 0.126601
vt 0.421321 0.722396
vt 0.678822 0.330482
vt 0.886821 0.331525
vt 0.508547 0.329137
vt 0.674320 0.563098
vt 0.908601 0.549632
vt 0.514985 0.073791
vt 0.381547 0.792367
vt 0.399808 0.354320
vt 0.109030 0.793039
vt 0.344699 0.793159
vt 0.107712 0.567163
vt 0.399623 0.553071
vt 0.071504 0.348929
vt 0.108348 0.348110
vt 0.607472 0.744737
vt 0.343996 0.348222
vt 0.382341 0.566206
vt 0.345313 0.566246
vt 0.901080 0.313482
vt 0.663011 0.312159
vt 0.652966 0.301682
vt 0.909992 0.301691
vt 0.657068 0.563506
vt 0.641463 0.564231
vt 0.925862 0.548495
vt 0.941481 0.547663
vt 0.687714 0.819775
vt 0.679029 0.831654
vt 0.928037 0.796521
vt 0.938463 0.806683
vt 0.421153 0.552674
vt 0.663019 0.279212
vt 0.586134 0.552484
vt 0.585943 0.722258
vt 0.361723 0.276384
vt 0.355724 0.123315
vt 0.070683 0.567218
vt 0.108314 0.311161
vt 0.399802 0.744895
vt 0.607664 0.552882
vt 0.344001 0.311263
vt 0.380841 0.348891
vt 0.344733 0.830108
vt 0.607477 0.354160
vt 0.109025 0.829998
vt 0.072180 0.792394
vt 0.515257 0.137606
vt 0.401739 0.151411
vt 0.507551 0.265374
vt 0.401069 0.249233
vt 0.616917 0.251284
vt 0.617747 0.153353
vt 0.508547 0.329137
vt 0.507551 0.265374
vn 0.000000 0.000000 1.000000
vn 0.000000 0.000000 1.000000
vn 0.000000 0.000000 1.000000
vn 0.000000 0.000000 1.000000
vn 0.000000 0.000000 -1.000000
vn 0.000000 0.000000 -1.000000
vn 0.000000 0.000000 -1.000000
vn 0.000000 0.000000 -1.000000
vn 1.000000 0.000000 0.000000
vn 1.000000 0.000000 0.000000
vn 1.000000 0.000000 0.000000
vn 1.000000 0.000000 0.000000
vn -1.000000 0.000000 0.000000
vn -1.000000 0.000000 0.000000
vn -1.000000 0.000000 0.000000
vn -1.000000 0.000000 0.000000
vn 0.000000 0.000000 1.000000
vn 0.000000 0.000000 1.000000
vn 0.000000 0.000000 1.000000
vn 0.000000 0.000000 1.000000
vn 1.000000 0.000000 0.000000
vn 1.000000 0.000000 0.000000
vn 1.000000 0.000000 0.000000
vn 1.000000 0.000000 0.000000
vn 0.000000 0.000000 -1.000000
vn 0.000000 0.000000 -1.000000
vn 0.000000 0.000000 -1.000000
vn 0.000000 0.000000 -1.000000
vn -1.000000 0.000000 0.000000
vn -1.000000 0.000000 0.000000
vn -1.000000 0.000000 0.000000
vn -1.000000 0.000000 0.000000
vn 0.000000 -1.000000 -0.000000
vn 0.000000 -1.000000 -0.000000
vn 0.000000 -1.000000 -0.000000
vn 0.000000 -1.000000 -0.000000
vn -0.016727 -0.999860 -0.000376
vn -0.016713 -0.999860 0.000376
vn -0.017313 -0.999319 -0.032580
vn -0.017313 -0.999319 -0.032580
vn 0.000000 -1.000000 0.000000
vn 0.000000 -1.000000 0.000000
vn 0.000000 -1.000000 0.000000
vn 0.000000 -1.000000 0.000000
vn 0.017313 -0.999319 -0.032580
vn 0.016713 -0.999860 0.000376
vn 0.016727 -0.999860 -0.000376
vn 0.017313 -0.999319 -0.032580
vn 0.000000 0.999528 0.030710
vn 0.000000 0.999528 0.030710
vn 0.000000 1.000000 0.000000
vn 0.000000 1.000000 0.000000
vn 0.016132 -0.999375 0.031450
vn 0.016132 -0.999375 0.031450
vn -1.000000 0.000000 0.000000
vn -1.000000 0.000000 0.000000
vn 0.000000 0.999561 -0.029644
vn 0.000000 0.999561 -0.029644
vn 1.000000 0.000000 0.000000
vn 1.000000 0.000000 0.000000
vn -0.016132 -0.999375 0.031450
vn -0.016132 -0.999375 0.031450
vn 1.000000 0.000000 0.000000
vn 1.000000 0.000000 0.000000
vn -1.000000 0.000000 0.000000
vn -1.000000 0.000000 0.000000
vn 0.000000 0.000000 -1.000000
vn 0.000000 0.000000 -1.000000
vn 0.000000 0.000000 -1.000000
vn 0.000000 0.000000 -1.000000
vn 1.000000 0.000000 0.000000
vn 1.000000 0.000000 0.000000
vn 1.000000 0.000000 0.000000
vn 1.000000 0.000000 0.000000
vn -1.000000 0.000000 0.000000
vn -1.000000 0.000000 0.000000
vn -1.000000 0.000000 0.000000
vn -1.000000 0.000000 0.000000
vn 1.000000 0.000000 0.000000
vn 1.000000 0.000000 0.000000
vn 1.000000 0.000000 0.000000
vn 1.000000 0.000000 0.000000
vn 0.000000 0.000000 1.000000
vn 0.000000 0.000000 1.000000
vn 0.000000 0.000000 1.000000
vn 0.000000 0.000000 1.000000
vn -1.000000 0.000000 0.000000
vn -1.000000 0.000000 0.000000
vn -1.000000 0.000000 0.000000
vn -1.000000 0.000000 0.000000
vn 0.000000 1.000000 -0.000000
vn 0.000000 1.000000 -0.000000
vn 0.000000 1.000000 -0.000000
vn 0.000000 1.000000 -0.000000
vn 0.000000 1.000000 0.000000
vn 0.000000 1.000000 0.000000
vn 0.000000 1.000000 0.000000
vn 0.000000 1.000000 0.000000
vn 0.000000 1.000000 0.000000
vn 0.000000 1.000000 0.000000
vn 0.000000 1.000000 0.000000
vn 0.000000 1.000000 0.000000
vn 0.000000 1.000000 0.000000
vn 0.000000 1.000000 0.000000
vn 0.000000 1.000000 0.000000
vn 0.000000 1.000000 0.000000
vn 0.000000 1.000000 0.000000
vn 0.000000 1.000000 0.000000
vn 0.000000 1.000000 0.000000
vn 0.000000 1.000000 0.000000
vn 0.000000 1.000000 0.000000
vn 0.000000 1.000000 0.000000
vn 0.000000 1.000000 0.000000
vn 0.000000 1.000000 0.000000
s off
g pCube124
usemtl initialShadingGroup
f 1/54/1 2/56/2 4/41/3 3/42/4
f 5/5/5 6/38/6 8/57/7 7/58/8
s 1
f 22/59/9 23/60/10 8/57/11 6/38/12
s 2
f 7/58/13 24/53/14 17/12/15 5/5/16
s off
f 9/49/17 10/51/18 11/15/19 12/16/20
s 3
f 20/17/21 21/43/22 13/19/23 14/20/24
s off
f 13/44/25 15/47/26 16/22/27 14/20/28
s 4
f 15/48/29 18/23/30 19/24/31 16/22/32
s off
f 3/4/33 4/3/34 10/14/35 9/50/36
s 5
f 21/18/37 22/37/38 6/6/39 13/45/40
s off
f 6/6/41 5/40/42 15/21/43 13/45/44
s 6
f 5/40/45 17/39/46 18/46/47 15/21/48
s 7
f 14/20/49 16/22/50 19/24/51 20/17/52
s 6
f 18/46/47 17/39/46 3/4/53 9/50/54
s 4
f 19/24/31 18/23/30 9/13/55 12/16/56
s 7
f 12/16/57 11/15/58 20/17/52 19/24/51
s 3
f 10/52/59 21/43/22 20/17/21 11/15/60
s 5
f 4/3/61 22/37/38 21/18/37 10/14/62
s 1
f 2/56/63 23/55/10 22/9/9 4/41/64
s 2
f 17/12/15 24/53/14 1/54/65 3/42/66
s off
f 25/25/67 26/26/68 27/27/69 28/28/70
f 26/26/71 29/29/72 30/30/73 27/27/74
f 31/31/75 25/25/76 28/28/77 32/32/78
f 29/29/79 33/33/80 34/34/81 30/30/82
f 33/33/83 35/35/84 36/36/85 34/34/86
f 35/35/87 31/31/88 32/32/89 36/36/90
f 7/8/91 8/7/92 26/26/93 25/25/94
f 8/7/95 23/10/96 29/29/97 26/26/98
f 24/11/99 7/8/100 25/25/101 31/31/102
f 23/10/103 2/2/104 33/33/105 29/29/106
f 2/2/107 1/1/108 35/35/109 33/33/110
f 1/1/111 24/11/112 31/31/113 35/35/114
